Peel-Bold.ufo
<glyph name="exclam" format="1">
  <advance width="607"/>
  <unicode hex="0021"/>
  <outline>
    <contour>
      <point x="304" y="301" type="curve" smooth="yes"/>
      <point x="365" y="301"/>
      <point x="384" y="362"/>
      <point x="387" y="403" type="curve" smooth="yes"/>
      <point x="474" y="1462" type="line"/>
      <point x="474" y="1475" type="line" smooth="yes"/>
      <point x="474" y="1577"/>
      <point x="389" y="1627"/>
      <point x="315" y="1627" type="curve" smooth="yes"/>
      <point x="240" y="1627"/>
      <point x="151" y="1576"/>
      <point x="151" y="1471" type="curve" smooth="yes"/>
      <point x="151" y="1462" type="line"/>
      <point x="223" y="407" type="line" smooth="yes"/>
      <point x="225" y="368"/>
      <point x="240" y="301"/>
    </contour>
    <contour>
      <point x="302" y="-18" type="curve" smooth="yes"/>
      <point x="387" y="-18"/>
      <point x="483" y="42"/>
      <point x="483" y="160" type="curve" smooth="yes"/>
      <point x="483" y="279"/>
      <point x="389" y="344"/>
      <point x="302" y="344" type="curve" smooth="yes"/>
      <point x="214" y="344"/>
      <point x="121" y="280"/>
      <point x="121" y="160" type="curve" smooth="yes"/>
      <point x="121" y="42"/>
      <point x="216" y="-18"/>
    </contour>
  </outline>
</glyph>
<glyph name="quotedbl" format="1">
  <advance width="826"/>
  <unicode hex="0022"/>
  <outline>
    <contour>
      <point x="249.0" y="859.0" type="curve" smooth="yes"/>
      <point x="318.0" y="859.0"/>
      <point x="324.0" y="932.0"/>
      <point x="330.0" y="977.0" type="curve" smooth="yes"/>
      <point x="387.0" y="1367.0"/>
      <point x="387.0" y="1381.0"/>
      <point x="387.0" y="1384.0" type="curve" smooth="yes"/>
      <point x="387.0" y="1477.0"/>
      <point x="314.0" y="1515.0"/>
      <point x="252.0" y="1515.0" type="curve" smooth="yes"/>
      <point x="191.0" y="1515.0"/>
      <point x="116.0" y="1476.0"/>
      <point x="116.0" y="1383.0" type="curve" smooth="yes"/>
      <point x="116.0" y="1375.0"/>
      <point x="117.0" y="1371.0"/>
      <point x="170.0" y="977.0" type="curve"/>
      <point x="175.0" y="933.0"/>
      <point x="180.0" y="859.0"/>
    </contour>
    <contour>
      <point x="606" y="859" type="curve" smooth="yes"/>
      <point x="675" y="859"/>
      <point x="681" y="932"/>
      <point x="687" y="977" type="curve" smooth="yes"/>
      <point x="744" y="1367"/>
      <point x="744" y="1381"/>
      <point x="744" y="1384" type="curve" smooth="yes"/>
      <point x="744" y="1477"/>
      <point x="671" y="1515"/>
      <point x="609" y="1515" type="curve" smooth="yes"/>
      <point x="548" y="1515"/>
      <point x="473" y="1476"/>
      <point x="473" y="1383" type="curve" smooth="yes"/>
      <point x="473" y="1375"/>
      <point x="474" y="1371"/>
      <point x="527" y="977" type="curve"/>
      <point x="532" y="933"/>
      <point x="537" y="859"/>
    </contour>
  </outline>
</glyph>
<glyph name="dollar" format="1">
  <advance width="1122"/>
  <unicode hex="0024"/>
  <outline>
    <contour>
      <point x="587" y="-314" type="curve" smooth="yes"/>
      <point x="650" y="-314"/>
      <point x="678" y="-252"/>
      <point x="678" y="-198" type="curve" smooth="yes"/>
      <point x="678" y="-99" type="line"/>
      <point x="868" y="-52"/>
      <point x="1034" y="96"/>
      <point x="1034" y="339" type="curve" smooth="yes"/>
      <point x="1034" y="499"/>
      <point x="969" y="628"/>
      <point x="784" y="759" type="curve" smooth="yes"/>
      <point x="678" y="834" type="line"/>
      <point x="678" y="1246" type="line"/>
      <point x="777" y="1220"/>
      <point x="874" y="1150"/>
      <point x="894" y="1134" type="curve" smooth="yes"/>
      <point x="977" y="1065" type="line"/>
      <point x="977" y="1410" type="line"/>
      <point x="961" y="1425" type="line" smooth="yes"/>
      <point x="920" y="1463"/>
      <point x="806" y="1510"/>
      <point x="678" y="1529" type="curve"/>
      <point x="678" y="1623" type="line" smooth="yes"/>
      <point x="678" y="1677"/>
      <point x="650" y="1739"/>
      <point x="587" y="1739" type="curve" smooth="yes"/>
      <point x="525" y="1739"/>
      <point x="489" y="1681"/>
      <point x="489" y="1621" type="curve" smooth="yes"/>
      <point x="489" y="1529" type="line"/>
      <point x="240" y="1488"/>
      <point x="94" y="1298"/>
      <point x="94" y="1098" type="curve" smooth="yes"/>
      <point x="94" y="966"/>
      <point x="157" y="830"/>
      <point x="289" y="738" type="curve"/>
      <point x="489" y="594" type="line"/>
      <point x="489" y="170" type="line"/>
      <point x="368" y="188"/>
      <point x="295" y="260"/>
      <point x="209" y="331" type="curve" smooth="yes"/>
      <point x="125" y="400" type="line"/>
      <point x="125" y="48" type="line"/>
      <point x="141" y="33" type="line" smooth="yes"/>
      <point x="236" y="-55"/>
      <point x="361" y="-104"/>
      <point x="489" y="-114" type="curve"/>
      <point x="489" y="-196" type="line" smooth="yes"/>
      <point x="489" y="-256"/>
      <point x="525" y="-314"/>
    </contour>
    <contour>
      <point x="489" y="968" type="line"/>
      <point x="431" y="1019"/>
      <point x="404" y="1074"/>
      <point x="404" y="1119" type="curve" smooth="yes"/>
      <point x="404" y="1166"/>
      <point x="428" y="1210"/>
      <point x="489" y="1236" type="curve"/>
    </contour>
    <contour>
      <point x="678" y="251" type="curve"/>
      <point x="678" y="503" type="line"/>
      <point x="737" y="447"/>
      <point x="741" y="419"/>
      <point x="741" y="376" type="curve" smooth="yes"/>
      <point x="741" y="316"/>
      <point x="718" y="278"/>
    </contour>
  </outline>
</glyph>
<glyph name="percent" format="1">
  <advance width="1764"/>
  <unicode hex="0025"/>
  <outline>
    <contour>
      <point x="456" y="957" type="curve" smooth="yes"/>
      <point x="343" y="957"/>
      <point x="281" y="1042"/>
      <point x="281" y="1143" type="curve" smooth="yes"/>
      <point x="281" y="1242"/>
      <point x="341" y="1326"/>
      <point x="456" y="1326" type="curve" smooth="yes"/>
      <point x="570" y="1326"/>
      <point x="632" y="1242"/>
      <point x="632" y="1143" type="curve" smooth="yes"/>
      <point x="632" y="1042"/>
      <point x="568" y="957"/>
    </contour>
    <contour>
      <point x="456" y="747" type="curve" smooth="yes"/>
      <point x="732" y="747"/>
      <point x="872" y="945"/>
      <point x="872" y="1139" type="curve" smooth="yes"/>
      <point x="872" y="1335"/>
      <point x="730" y="1538"/>
      <point x="456" y="1538" type="curve" smooth="yes"/>
      <point x="182" y="1538"/>
      <point x="39" y="1335"/>
      <point x="39" y="1139" type="curve" smooth="yes"/>
      <point x="39" y="946"/>
      <point x="178" y="747"/>
    </contour>
    <contour>
      <point x="247" y="0" type="line"/>
      <point x="520" y="0" type="line"/>
      <point x="1516" y="1516" type="line"/>
      <point x="1245" y="1516" type="line"/>
    </contour>
    <contour>
      <point x="1309" y="194" type="curve" smooth="yes"/>
      <point x="1197" y="194"/>
      <point x="1134" y="279"/>
      <point x="1134" y="379" type="curve" smooth="yes"/>
      <point x="1134" y="479"/>
      <point x="1195" y="563"/>
      <point x="1309" y="563" type="curve" smooth="yes"/>
      <point x="1424" y="563"/>
      <point x="1484" y="479"/>
      <point x="1484" y="379" type="curve" smooth="yes"/>
      <point x="1484" y="279"/>
      <point x="1422" y="194"/>
    </contour>
    <contour>
      <point x="1309" y="-17" type="curve" smooth="yes"/>
      <point x="1587" y="-17"/>
      <point x="1725" y="183"/>
      <point x="1725" y="375" type="curve" smooth="yes"/>
      <point x="1725" y="570"/>
      <point x="1585" y="774"/>
      <point x="1309" y="774" type="curve" smooth="yes"/>
      <point x="1035" y="774"/>
      <point x="892" y="570"/>
      <point x="892" y="375" type="curve" smooth="yes"/>
      <point x="892" y="182"/>
      <point x="1032" y="-17"/>
    </contour>
  </outline>
</glyph>
<glyph name="quotesingle" format="1">
  <advance width="560"/>
  <unicode hex="0027"/>
  <outline>
    <contour>
      <point x="279" y="859" type="curve" smooth="yes"/>
      <point x="348" y="859"/>
      <point x="364" y="932"/>
      <point x="370" y="977" type="curve" smooth="yes"/>
      <point x="424" y="1357" type="line"/>
      <point x="427" y="1367"/>
      <point x="427" y="1381"/>
      <point x="427" y="1384" type="curve" smooth="yes"/>
      <point x="427" y="1477"/>
      <point x="344" y="1515"/>
      <point x="282" y="1515" type="curve" smooth="yes"/>
      <point x="221" y="1515"/>
      <point x="136" y="1476"/>
      <point x="136" y="1383" type="curve" smooth="yes"/>
      <point x="136" y="1375"/>
      <point x="137" y="1371"/>
      <point x="138" y="1366" type="curve" smooth="yes"/>
      <point x="190" y="977" type="line"/>
      <point x="195" y="933"/>
      <point x="210" y="859"/>
    </contour>
  </outline>
</glyph>
<glyph name="parenleft" format="1">
  <advance width="668"/>
  <unicode hex="0028"/>
  <outline>
    <contour>
      <point x="490" y="-131" type="line"/>
      <point x="666" y="54" type="line"/>
      <point x="617" y="88" type="line"/>
      <point x="440" y="204"/>
      <point x="340" y="479"/>
      <point x="340" y="760" type="curve" smooth="yes"/>
      <point x="340" y="1041"/>
      <point x="440" y="1316"/>
      <point x="617" y="1432" type="curve"/>
      <point x="666" y="1466" type="line"/>
      <point x="490" y="1651" type="line"/>
      <point x="454" y="1628" type="line"/>
      <point x="175" y="1455"/>
      <point x="45" y="1102"/>
      <point x="45" y="760" type="curve" smooth="yes"/>
      <point x="45" y="418"/>
      <point x="175" y="65"/>
      <point x="454" y="-108" type="curve"/>
    </contour>
  </outline>
</glyph>
<glyph name="parenright" format="1">
  <advance width="669"/>
  <unicode hex="0029"/>
  <outline>
    <contour>
      <point x="180" y="-131" type="line"/>
      <point x="216" y="-108" type="line"/>
      <point x="495" y="65"/>
      <point x="625" y="418"/>
      <point x="625" y="760" type="curve" smooth="yes"/>
      <point x="625" y="1102"/>
      <point x="495" y="1455"/>
      <point x="216" y="1628" type="curve"/>
      <point x="180" y="1651" type="line"/>
      <point x="4" y="1466" type="line"/>
      <point x="53" y="1432" type="line"/>
      <point x="230" y="1316"/>
      <point x="330" y="1041"/>
      <point x="330" y="760" type="curve" smooth="yes"/>
      <point x="330" y="479"/>
      <point x="230" y="204"/>
      <point x="53" y="88" type="curve"/>
      <point x="4" y="54" type="line"/>
    </contour>
  </outline>
</glyph>
<glyph name="plus" format="1">
  <advance width="1188"/>
  <unicode hex="002B"/>
  <outline>
    <contour>
      <point x="465" y="305" type="line"/>
      <point x="722" y="305" type="line"/>
      <point x="722" y="655" type="line"/>
      <point x="1046" y="655" type="line"/>
      <point x="1046" y="912" type="line"/>
      <point x="722" y="912" type="line"/>
      <point x="722" y="1211" type="line"/>
      <point x="465" y="1211" type="line"/>
      <point x="465" y="912" type="line"/>
      <point x="141" y="912" type="line"/>
      <point x="141" y="655" type="line"/>
      <point x="465" y="655" type="line"/>
    </contour>
  </outline>
</glyph>
<glyph name="comma" format="1">
  <advance width="647"/>
  <unicode hex="002C"/>
  <outline>
    <contour>
      <point x="204" y="-334" type="line"/>
      <point x="225" y="-334" type="line" smooth="yes"/>
      <point x="377" y="-334"/>
      <point x="513" y="-109"/>
      <point x="513" y="42" type="curve" smooth="yes"/>
      <point x="513" y="173"/>
      <point x="412" y="239"/>
      <point x="321" y="239" type="curve" smooth="yes"/>
      <point x="229" y="239"/>
      <point x="137" y="170"/>
      <point x="137" y="50" type="curve" smooth="yes"/>
      <point x="137" y="-12"/>
      <point x="169" y="-72"/>
      <point x="234" y="-106" type="curve"/>
      <point x="228" y="-151"/>
      <point x="213" y="-181"/>
      <point x="168" y="-222" type="curve" smooth="yes"/>
      <point x="128" y="-258" type="line"/>
    </contour>
  </outline>
</glyph>
<glyph name="zero" format="1">
  <advance width="1413"/>
  <unicode hex="0030"/>
  <outline>
    <contour>
      <point x="707" y="239" type="curve" smooth="yes"/>
      <point x="549" y="239"/>
      <point x="432" y="433"/>
      <point x="432" y="764" type="curve" smooth="yes"/>
      <point x="432" y="1091"/>
      <point x="549" y="1278"/>
      <point x="707" y="1278" type="curve" smooth="yes"/>
      <point x="866" y="1278"/>
      <point x="983" y="1090"/>
      <point x="983" y="764" type="curve" smooth="yes"/>
      <point x="983" y="433"/>
      <point x="866" y="239"/>
    </contour>
    <contour>
      <point x="707" y="-19" type="curve" smooth="yes"/>
      <point x="1120" y="-19"/>
      <point x="1276" y="341"/>
      <point x="1276" y="758" type="curve" smooth="yes"/>
      <point x="1276" y="1197"/>
      <point x="1105" y="1536"/>
      <point x="707" y="1536" type="curve" smooth="yes"/>
      <point x="309" y="1536"/>
      <point x="137" y="1197"/>
      <point x="137" y="758" type="curve" smooth="yes"/>
      <point x="137" y="341"/>
      <point x="294" y="-19"/>
    </contour>
  </outline>
</glyph>
<glyph name="one" format="1">
  <advance width="843"/>
  <unicode hex="0031"/>
  <outline>
    <contour>
      <point x="386" y="0" type="line"/>
      <point x="669" y="0" type="line"/>
      <point x="669" y="1522" type="line"/>
      <point x="438" y="1522" type="line"/>
      <point x="361" y="1466"/>
      <point x="266" y="1432"/>
      <point x="137" y="1373" type="curve"/>
      <point x="137" y="1100" type="line"/>
      <point x="258" y="1137"/>
      <point x="321" y="1161"/>
      <point x="386" y="1195" type="curve"/>
    </contour>
  </outline>
</glyph>
<glyph name="two" format="1">
  <advance width="1094"/>
  <unicode hex="0032"/>
  <outline>
    <contour>
      <point x="44" y="0" type="line"/>
      <point x="1044" y="0" type="line"/>
      <point x="1044" y="259" type="line"/>
      <point x="409" y="259" type="line"/>
      <point x="755" y="595" type="line"/>
      <point x="924" y="757"/>
      <point x="1040" y="905"/>
      <point x="1040" y="1100" type="curve" smooth="yes"/>
      <point x="1040" y="1363"/>
      <point x="841" y="1534"/>
      <point x="535" y="1534" type="curve" smooth="yes"/>
      <point x="331" y="1534"/>
      <point x="187" y="1480"/>
      <point x="90" y="1390" type="curve" smooth="yes"/>
      <point x="65" y="1367" type="line"/>
      <point x="166" y="1110" type="line"/>
      <point x="221" y="1165" type="line" smooth="yes"/>
      <point x="293" y="1238"/>
      <point x="405" y="1273"/>
      <point x="521" y="1273" type="curve" smooth="yes"/>
      <point x="674" y="1273"/>
      <point x="740" y="1207"/>
      <point x="740" y="1067" type="curve" smooth="yes"/>
      <point x="740" y="978"/>
      <point x="676" y="881"/>
      <point x="558" y="760" type="curve"/>
      <point x="44" y="217" type="line"/>
    </contour>
  </outline>
</glyph>
<glyph name="three" format="1">
  <advance width="961"/>
  <unicode hex="0033"/>
  <outline>
    <contour>
      <point x="423" y="-19" type="curve" smooth="yes"/>
      <point x="733" y="-19"/>
      <point x="983" y="150"/>
      <point x="983" y="432" type="curve" smooth="yes"/>
      <point x="983" y="603"/>
      <point x="904" y="735"/>
      <point x="764" y="805" type="curve"/>
      <point x="879" y="874"/>
      <point x="947" y="989"/>
      <point x="947" y="1140" type="curve" smooth="yes"/>
      <point x="947" y="1402"/>
      <point x="701" y="1536"/>
      <point x="462" y="1536" type="curve" smooth="yes"/>
      <point x="244" y="1536"/>
      <point x="100" y="1493"/>
      <point x="-4" y="1413" type="curve" smooth="yes"/>
      <point x="-34" y="1390" type="line"/>
      <point x="60" y="1140" type="line"/>
      <point x="115" y="1183" type="line" smooth="yes"/>
      <point x="185" y="1239"/>
      <point x="294" y="1278"/>
      <point x="423" y="1278" type="curve" smooth="yes"/>
      <point x="584" y="1278"/>
      <point x="649" y="1230"/>
      <point x="649" y="1111" type="curve" smooth="yes"/>
      <point x="649" y="952"/>
      <point x="489" y="930"/>
      <point x="248" y="930" type="curve" smooth="yes"/>
      <point x="197" y="930" type="line"/>
      <point x="197" y="676" type="line"/>
      <point x="248" y="676" type="line" smooth="yes"/>
      <point x="537" y="676"/>
      <point x="704" y="642"/>
      <point x="704" y="441" type="curve" smooth="yes"/>
      <point x="704" y="310"/>
      <point x="606" y="239"/>
      <point x="424" y="239" type="curve" smooth="yes"/>
      <point x="281" y="239"/>
      <point x="184" y="284"/>
      <point x="114" y="338" type="curve" smooth="yes"/>
      <point x="59" y="381" type="line"/>
      <point x="-33" y="134" type="line"/>
      <point x="-8" y="111" type="line" smooth="yes"/>
      <point x="62" y="45"/>
      <point x="216" y="-19"/>
    </contour>
  </outline>
</glyph>
<glyph name="four" format="1">
  <advance width="1229"/>
  <unicode hex="0034"/>
  <outline>
    <contour>
      <point x="735" y="0" type="line"/>
      <point x="1005" y="0" type="line"/>
      <point x="1005" y="325" type="line"/>
      <point x="1174" y="325" type="line"/>
      <point x="1198" y="573" type="line"/>
      <point x="1005" y="573" type="line"/>
      <point x="1005" y="1522" type="line"/>
      <point x="740" y="1522" type="line"/>
      <point x="50" y="539" type="line"/>
      <point x="50" y="325" type="line"/>
      <point x="735" y="325" type="line"/>
    </contour>
    <contour>
      <point x="374" y="573" type="line"/>
      <point x="735" y="1122" type="line"/>
      <point x="735" y="573" type="line"/>
    </contour>
  </outline>
</glyph>
<glyph name="five" format="1">
  <advance width="995"/>
  <unicode hex="0035"/>
  <outline>
    <contour>
      <point x="420" y="-20" type="curve" smooth="yes"/>
      <point x="787" y="-20"/>
      <point x="1017" y="196"/>
      <point x="1017" y="511" type="curve" smooth="yes"/>
      <point x="1017" y="779"/>
      <point x="845" y="1000"/>
      <point x="507" y="1000" type="curve" smooth="yes"/>
      <point x="440" y="1000"/>
      <point x="377" y="987"/>
      <point x="312" y="960" type="curve"/>
      <point x="315" y="1055"/>
      <point x="318" y="1160"/>
      <point x="322" y="1253" type="curve"/>
      <point x="940" y="1253" type="line"/>
      <point x="964" y="1521" type="line"/>
      <point x="83" y="1521" type="line"/>
      <point x="36" y="666" type="line"/>
      <point x="250" y="636" type="line"/>
      <point x="269" y="656" type="line" smooth="yes"/>
      <point x="323" y="715"/>
      <point x="386" y="738"/>
      <point x="473" y="738" type="curve" smooth="yes"/>
      <point x="651" y="738"/>
      <point x="732" y="645"/>
      <point x="732" y="510" type="curve" smooth="yes"/>
      <point x="732" y="355"/>
      <point x="624" y="246"/>
      <point x="427" y="246" type="curve" smooth="yes"/>
      <point x="275" y="246"/>
      <point x="172" y="309"/>
      <point x="111" y="355" type="curve" smooth="yes"/>
      <point x="60" y="393" type="line"/>
      <point x="-49" y="158" type="line"/>
      <point x="-21" y="132" type="line" smooth="yes"/>
      <point x="80" y="40"/>
      <point x="233" y="-20"/>
    </contour>
  </outline>
</glyph>
<glyph name="six" format="1">
  <advance width="1214"/>
  <unicode hex="0036"/>
  <outline>
    <contour>
      <point x="609" y="-20" type="curve" smooth="yes"/>
      <point x="946" y="-20"/>
      <point x="1167" y="200"/>
      <point x="1167" y="484" type="curve" smooth="yes"/>
      <point x="1167" y="777"/>
      <point x="923" y="987"/>
      <point x="641" y="987" type="curve" smooth="yes"/>
      <point x="616" y="987"/>
      <point x="591" y="985"/>
      <point x="566" y="981" type="curve"/>
      <point x="1060" y="1521" type="line"/>
      <point x="692" y="1521" type="line"/>
      <point x="676" y="1502" type="line" smooth="yes"/>
      <point x="670" y="1496"/>
      <point x="423" y="1215"/>
      <point x="337" y="1113" type="curve" smooth="yes"/>
      <point x="133" y="873"/>
      <point x="47" y="725"/>
      <point x="47" y="498" type="curve" smooth="yes"/>
      <point x="47" y="217"/>
      <point x="259" y="-20"/>
    </contour>
    <contour>
      <point x="604" y="237" type="curve" smooth="yes"/>
      <point x="425" y="237"/>
      <point x="341" y="350"/>
      <point x="341" y="488" type="curve" smooth="yes"/>
      <point x="341" y="628"/>
      <point x="410" y="731"/>
      <point x="604" y="731" type="curve" smooth="yes"/>
      <point x="779" y="731"/>
      <point x="872" y="631"/>
      <point x="872" y="483" type="curve" smooth="yes"/>
      <point x="872" y="344"/>
      <point x="781" y="237"/>
    </contour>
  </outline>
</glyph>
<glyph name="seven" format="1">
  <advance width="1084"/>
  <unicode hex="0037"/>
  <outline>
    <contour>
      <point x="186" y="0" type="line"/>
      <point x="480" y="0" type="line"/>
      <point x="1037" y="1323" type="line"/>
      <point x="1037" y="1522" type="line"/>
      <point x="61" y="1522" type="line"/>
      <point x="41" y="1263" type="line"/>
      <point x="706" y="1263" type="line"/>
    </contour>
  </outline>
</glyph>
<glyph name="eight" format="1">
  <advance width="1176"/>
  <unicode hex="0038"/>
  <outline>
    <contour>
      <point x="596" y="-19" type="curve" smooth="yes"/>
      <point x="848" y="-19"/>
      <point x="1131" y="105"/>
      <point x="1131" y="371" type="curve" smooth="yes"/>
      <point x="1131" y="513"/>
      <point x="1052" y="658"/>
      <point x="885" y="772" type="curve"/>
      <point x="1029" y="867"/>
      <point x="1101" y="996"/>
      <point x="1101" y="1128" type="curve" smooth="yes"/>
      <point x="1101" y="1179" type="line"/>
      <point x="1095" y="1179" type="line"/>
      <point x="1065" y="1375"/>
      <point x="873" y="1535"/>
      <point x="588" y="1535" type="curve" smooth="yes"/>
      <point x="277" y="1535"/>
      <point x="81" y="1345"/>
      <point x="81" y="1122" type="curve" smooth="yes"/>
      <point x="81" y="991"/>
      <point x="154" y="860"/>
      <point x="302" y="772" type="curve"/>
      <point x="131" y="669"/>
      <point x="50" y="520"/>
      <point x="50" y="370" type="curve" smooth="yes"/>
      <point x="50" y="104"/>
      <point x="345" y="-19"/>
    </contour>
    <contour>
      <point x="589" y="860" type="curve"/>
      <point x="445" y="897"/>
      <point x="362" y="1007"/>
      <point x="352" y="1103" type="curve"/>
      <point x="352" y="1122" type="line" smooth="yes"/>
      <point x="352" y="1222"/>
      <point x="455" y="1286"/>
      <point x="589" y="1286" type="curve" smooth="yes"/>
      <point x="723" y="1286"/>
      <point x="826" y="1222"/>
      <point x="826" y="1122" type="curve" smooth="yes"/>
      <point x="826" y="1024"/>
      <point x="742" y="900"/>
    </contour>
    <contour>
      <point x="589" y="230" type="curve" smooth="yes"/>
      <point x="443" y="230"/>
      <point x="334" y="299"/>
      <point x="334" y="426" type="curve" smooth="yes"/>
      <point x="334" y="540"/>
      <point x="410" y="655"/>
      <point x="591" y="719" type="curve"/>
      <point x="748" y="674"/>
      <point x="851" y="536"/>
      <point x="851" y="431" type="curve" smooth="yes"/>
      <point x="851" y="293"/>
      <point x="736" y="230"/>
    </contour>
  </outline>
</glyph>
<glyph name="nine" format="1">
  <advance width="1212"/>
  <unicode hex="0039"/>
  <outline>
    <contour>
      <point x="155" y="0" type="line"/>
      <point x="510" y="0" type="line"/>
      <point x="526" y="19" type="line" smooth="yes"/>
      <point x="528" y="22"/>
      <point x="835" y="374"/>
      <point x="935" y="499" type="curve" smooth="yes"/>
      <point x="1094" y="696"/>
      <point x="1164" y="835"/>
      <point x="1164" y="1032" type="curve" smooth="yes"/>
      <point x="1164" y="1312"/>
      <point x="960" y="1534"/>
      <point x="608" y="1534" type="curve" smooth="yes"/>
      <point x="275" y="1534"/>
      <point x="47" y="1318"/>
      <point x="47" y="1035" type="curve" smooth="yes"/>
      <point x="47" y="743"/>
      <point x="295" y="555"/>
      <point x="574" y="555" type="curve" smooth="yes"/>
      <point x="600" y="555"/>
      <point x="625" y="558"/>
      <point x="651" y="562" type="curve"/>
    </contour>
    <contour>
      <point x="608" y="807" type="curve" smooth="yes"/>
      <point x="429" y="807"/>
      <point x="339" y="895"/>
      <point x="339" y="1038" type="curve" smooth="yes"/>
      <point x="339" y="1172"/>
      <point x="435" y="1278"/>
      <point x="616" y="1278" type="curve" smooth="yes"/>
      <point x="795" y="1278"/>
      <point x="871" y="1179"/>
      <point x="871" y="1043" type="curve" smooth="yes"/>
      <point x="871" y="907"/>
      <point x="803" y="807"/>
    </contour>
  </outline>
</glyph>
<glyph name="colon" format="1">
  <advance width="640"/>
  <unicode hex="003A"/>
  <outline>
    <contour>
      <point x="320" y="59" type="curve" smooth="yes"/>
      <point x="404" y="59"/>
      <point x="501" y="118"/>
      <point x="501" y="236" type="curve" smooth="yes"/>
      <point x="501" y="356"/>
      <point x="407" y="420"/>
      <point x="320" y="420" type="curve" smooth="yes"/>
      <point x="232" y="420"/>
      <point x="139" y="357"/>
      <point x="139" y="236" type="curve" smooth="yes"/>
      <point x="139" y="118"/>
      <point x="235" y="59"/>
    </contour>
    <contour>
      <point x="320" y="576" type="curve" smooth="yes"/>
      <point x="404" y="576"/>
      <point x="501" y="634"/>
      <point x="501" y="752" type="curve" smooth="yes"/>
      <point x="501" y="872"/>
      <point x="408" y="937"/>
      <point x="320" y="937" type="curve" smooth="yes"/>
      <point x="232" y="937"/>
      <point x="139" y="873"/>
      <point x="139" y="752" type="curve" smooth="yes"/>
      <point x="139" y="635"/>
      <point x="235" y="576"/>
    </contour>
  </outline>
</glyph>
<glyph name="semicolon" format="1">
  <advance width="641"/>
  <unicode hex="003B"/>
  <outline>
    <contour>
      <point x="203" y="-101" type="line"/>
      <point x="226" y="-101" type="line" smooth="yes"/>
      <point x="380" y="-101"/>
      <point x="515" y="124"/>
      <point x="515" y="276" type="curve" smooth="yes"/>
      <point x="515" y="406"/>
      <point x="413" y="473"/>
      <point x="321" y="473" type="curve" smooth="yes"/>
      <point x="229" y="473"/>
      <point x="139" y="403"/>
      <point x="139" y="285" type="curve" smooth="yes"/>
      <point x="139" y="225"/>
      <point x="170" y="163"/>
      <point x="237" y="129" type="curve"/>
      <point x="231" y="85"/>
      <point x="214" y="55"/>
      <point x="169" y="14" type="curve" smooth="yes"/>
      <point x="131" y="-20" type="line"/>
    </contour>
    <contour>
      <point x="311" y="576" type="curve" smooth="yes"/>
      <point x="397" y="576"/>
      <point x="492" y="637"/>
      <point x="492" y="754" type="curve" smooth="yes"/>
      <point x="492" y="872"/>
      <point x="399" y="938"/>
      <point x="311" y="938" type="curve" smooth="yes"/>
      <point x="224" y="938"/>
      <point x="130" y="874"/>
      <point x="130" y="754" type="curve" smooth="yes"/>
      <point x="130" y="636"/>
      <point x="226" y="576"/>
    </contour>
  </outline>
</glyph>
<glyph name="equal" format="1">
  <advance width="1255"/>
  <unicode hex="003D"/>
  <outline>
    <contour>
      <point x="148" y="787" type="line"/>
      <point x="1105" y="787" type="line"/>
      <point x="1105" y="996" type="line"/>
      <point x="148" y="996" type="line"/>
    </contour>
    <contour>
      <point x="148" y="410" type="line"/>
      <point x="1105" y="410" type="line"/>
      <point x="1105" y="619" type="line"/>
      <point x="148" y="619" type="line"/>
    </contour>
  </outline>
</glyph>
<glyph name="question" format="1">
  <advance width="997"/>
  <unicode hex="003F"/>
  <outline>
    <contour>
      <point x="395" y="277" type="curve" smooth="yes"/>
      <point x="456" y="277"/>
      <point x="479" y="334"/>
      <point x="488" y="371" type="curve" smooth="yes"/>
      <point x="546" y="635"/>
      <point x="921" y="765"/>
      <point x="921" y="1113" type="curve" smooth="yes"/>
      <point x="921" y="1405"/>
      <point x="692" y="1542"/>
      <point x="467" y="1542" type="curve" smooth="yes"/>
      <point x="327" y="1542"/>
      <point x="188" y="1498"/>
      <point x="81" y="1413" type="curve" smooth="yes"/>
      <point x="52" y="1390" type="line"/>
      <point x="149" y="1135" type="line"/>
      <point x="204" y="1185" type="line" smooth="yes"/>
      <point x="264" y="1240"/>
      <point x="362" y="1277"/>
      <point x="452" y="1277" type="curve" smooth="yes"/>
      <point x="541" y="1277"/>
      <point x="624" y="1212"/>
      <point x="624" y="1111" type="curve" smooth="yes"/>
      <point x="624" y="897"/>
      <point x="306" y="780"/>
      <point x="306" y="384" type="curve" smooth="yes"/>
      <point x="306" y="336"/>
      <point x="334" y="277"/>
    </contour>
    <contour>
      <point x="416" y="-17" type="curve" smooth="yes"/>
      <point x="501" y="-17"/>
      <point x="596" y="43"/>
      <point x="596" y="161" type="curve" smooth="yes"/>
      <point x="596" y="278"/>
      <point x="504" y="345"/>
      <point x="416" y="345" type="curve" smooth="yes"/>
      <point x="326" y="345"/>
      <point x="235" y="279"/>
      <point x="235" y="161" type="curve" smooth="yes"/>
      <point x="235" y="43"/>
      <point x="329" y="-17"/>
    </contour>
  </outline>
</glyph>
<glyph name="A" format="1">
  <advance width="1527"/>
  <unicode hex="0041"/>
  <outline>
    <contour>
      <point x="-16" y="0" type="line"/>
      <point x="292" y="0" type="line"/>
      <point x="494" y="436" type="line"/>
      <point x="1031" y="436" type="line"/>
      <point x="1244" y="0" type="line"/>
      <point x="1544" y="0" type="line"/>
      <point x="1544" y="0"/>
      <point x="851.0" y="1516.0"/>
      <point x="851" y="1516" type="curve"/>
      <point x="640" y="1516" type="line"/>
    </contour>
    <contour>
      <point x="606" y="713" type="line"/>
      <point x="753" y="1121" type="line"/>
      <point x="913" y="713" type="line"/>
    </contour>
  </outline>
</glyph>
<glyph name="B" format="1">
  <advance width="1192"/>
  <unicode hex="0042"/>
  <outline>
    <contour>
      <point x="550" y="0" type="line" smooth="yes"/>
      <point x="926" y="0"/>
      <point x="1134" y="151"/>
      <point x="1134" y="449" type="curve" smooth="yes"/>
      <point x="1134" y="558"/>
      <point x="1080" y="739"/>
      <point x="862" y="813" type="curve"/>
      <point x="983" y="871"/>
      <point x="1064" y="999"/>
      <point x="1064" y="1113" type="curve" smooth="yes"/>
      <point x="1064" y="1326"/>
      <point x="918" y="1516"/>
      <point x="589" y="1516" type="curve" smooth="yes"/>
      <point x="78" y="1516" type="line"/>
      <point x="78" y="0" type="line"/>
    </contour>
    <contour>
      <point x="370" y="911" type="line"/>
      <point x="370" y="1265" type="line"/>
      <point x="580" y="1265" type="line" smooth="yes"/>
      <point x="723" y="1265"/>
      <point x="781" y="1168"/>
      <point x="781" y="1087" type="curve" smooth="yes"/>
      <point x="781" y="996"/>
      <point x="714" y="911"/>
      <point x="602" y="911" type="curve" smooth="yes"/>
    </contour>
    <contour>
      <point x="370" y="255" type="line"/>
      <point x="370" y="654" type="line"/>
      <point x="632" y="654" type="line" smooth="yes"/>
      <point x="777" y="654"/>
      <point x="832" y="548"/>
      <point x="832" y="455" type="curve" smooth="yes"/>
      <point x="832" y="296"/>
      <point x="692" y="255"/>
      <point x="537" y="255" type="curve" smooth="yes"/>
    </contour>
  </outline>
</glyph>
<glyph name="C" format="1">
  <advance width="1511"/>
  <unicode hex="0043"/>
  <outline>
    <contour>
      <point x="899" y="-19" type="curve" smooth="yes"/>
      <point x="1202" y="-19"/>
      <point x="1442" y="135"/>
      <point x="1442" y="135" type="curve"/>
      <point x="1442" y="460" type="line"/>
      <point x="1442" y="460"/>
      <point x="1220" y="261"/>
      <point x="910" y="261" type="curve" smooth="yes"/>
      <point x="624" y="261"/>
      <point x="382" y="419"/>
      <point x="382" y="756" type="curve" smooth="yes"/>
      <point x="382" y="1060"/>
      <point x="592" y="1258"/>
      <point x="900" y="1258" type="curve" smooth="yes"/>
      <point x="1208" y="1258"/>
      <point x="1442" y="1113"/>
      <point x="1442" y="1113" type="curve"/>
      <point x="1442" y="1416" type="line"/>
      <point x="1442" y="1416"/>
      <point x="1168" y="1536"/>
      <point x="897" y="1536" type="curve" smooth="yes"/>
      <point x="435" y="1536"/>
      <point x="55" y="1239"/>
      <point x="55" y="759" type="curve" smooth="yes"/>
      <point x="55" y="314"/>
      <point x="398" y="-19"/>
    </contour>
  </outline>
</glyph>
<glyph name="D" format="1">
  <advance width="1745"/>
  <unicode hex="0044"/>
  <outline>
    <contour>
      <point x="483" y="279" type="line"/>
      <point x="483" y="1235" type="line"/>
      <point x="825" y="1235" type="line" smooth="yes"/>
      <point x="1098" y="1235"/>
      <point x="1303" y="1132"/>
      <point x="1303" y="760" type="curve" smooth="yes"/>
      <point x="1303" y="435"/>
      <point x="1095" y="279"/>
      <point x="776" y="279" type="curve" smooth="yes"/>
    </contour>
    <contour>
      <point x="189" y="0" type="line"/>
      <point x="818" y="0" type="line" smooth="yes"/>
      <point x="1326" y="0"/>
      <point x="1615" y="361"/>
      <point x="1615" y="763" type="curve" smooth="yes"/>
      <point x="1615" y="1199"/>
      <point x="1346" y="1516"/>
      <point x="851" y="1516" type="curve" smooth="yes"/>
      <point x="189" y="1516" type="line"/>
    </contour>
    <contour>
      <point x="891" y="1516" type="move"/>
    </contour>
    <contour>
      <point x="891" y="758" type="move"/>
    </contour>
  </outline>
</glyph>
<glyph name="E" format="1">
  <advance width="1320"/>
  <unicode hex="0045"/>
  <outline>
    <contour>
      <point x="189" y="0" type="line"/>
      <point x="1136" y="0" type="line"/>
      <point x="1136" y="266" type="line"/>
      <point x="482" y="266" type="line"/>
      <point x="482" y="655" type="line"/>
      <point x="1109" y="655" type="line"/>
      <point x="1109" y="916" type="line"/>
      <point x="482" y="916" type="line"/>
      <point x="482" y="1250" type="line"/>
      <point x="1123" y="1250" type="line"/>
      <point x="1123" y="1516" type="line"/>
      <point x="189" y="1516" type="line"/>
    </contour>
    <contour>
      <point x="642" y="1516" type="move"/>
    </contour>
    <contour>
      <point x="642" y="0" type="move"/>
    </contour>
    <contour>
      <point x="1066" y="10" type="move"/>
    </contour>
  </outline>
</glyph>
<glyph name="F" format="1">
  <advance width="1045"/>
  <unicode hex="0046"/>
  <outline>
    <contour>
      <point x="77" y="0" type="line"/>
      <point x="370" y="0" type="line"/>
      <point x="370" y="622" type="line"/>
      <point x="993" y="622" type="line"/>
      <point x="993" y="898" type="line"/>
      <point x="370" y="898" type="line"/>
      <point x="370" y="1237" type="line"/>
      <point x="1012" y="1237" type="line"/>
      <point x="1012" y="1516" type="line"/>
      <point x="77" y="1516" type="line"/>
    </contour>
  </outline>
</glyph>
<glyph name="G" format="1">
  <advance width="1543"/>
  <unicode hex="0047"/>
  <outline>
    <contour>
      <point x="890" y="-19" type="curve" smooth="yes"/>
      <point x="1204" y="-19"/>
      <point x="1472" y="115"/>
      <point x="1472" y="115" type="curve"/>
      <point x="1472" y="798" type="line"/>
      <point x="902" y="798" type="line"/>
      <point x="902" y="576" type="line"/>
      <point x="1177" y="576" type="line"/>
      <point x="1177" y="309" type="line"/>
      <point x="1073" y="276"/>
      <point x="973" y="261"/>
      <point x="886" y="261" type="curve" smooth="yes"/>
      <point x="560" y="261"/>
      <point x="382" y="477"/>
      <point x="382" y="745" type="curve" smooth="yes"/>
      <point x="382" y="1086"/>
      <point x="601" y="1262"/>
      <point x="920" y="1262" type="curve" smooth="yes"/>
      <point x="1196" y="1262"/>
      <point x="1437" y="1088"/>
      <point x="1437" y="1088" type="curve"/>
      <point x="1437" y="1387" type="line"/>
      <point x="1437" y="1387"/>
      <point x="1215" y="1536"/>
      <point x="921" y="1536" type="curve" smooth="yes"/>
      <point x="412" y="1536"/>
      <point x="55" y="1206"/>
      <point x="55" y="735" type="curve" smooth="yes"/>
      <point x="55" y="394"/>
      <point x="334" y="-19"/>
    </contour>
  </outline>
</glyph>
<glyph name="H" format="1">
  <advance width="1708"/>
  <unicode hex="0048"/>
  <outline>
    <contour>
      <point x="187" y="0" type="line"/>
      <point x="481" y="0" type="line"/>
      <point x="481" y="645" type="line"/>
      <point x="1227" y="645" type="line"/>
      <point x="1227" y="0" type="line"/>
      <point x="1521" y="0" type="line"/>
      <point x="1521" y="1516" type="line"/>
      <point x="1227" y="1516" type="line"/>
      <point x="1227" y="898" type="line"/>
      <point x="481" y="898" type="line"/>
      <point x="481" y="1516" type="line"/>
      <point x="187" y="1516" type="line"/>
    </contour>
  </outline>
</glyph>
<glyph name="I" format="1">
  <advance width="428"/>
  <unicode hex="0049"/>
  <outline>
    <contour>
      <point x="69" y="0" type="line"/>
      <point x="361" y="0" type="line"/>
      <point x="361" y="1516" type="line"/>
      <point x="69" y="1516" type="line"/>
    </contour>
  </outline>
</glyph>
<glyph name="J" format="1">
  <advance width="607"/>
  <unicode hex="004A"/>
  <outline>
    <contour>
      <point x="-44" y="-394" type="line"/>
      <point x="379" y="-393"/>
      <point x="514" y="-271"/>
      <point x="514" y="7" type="curve" smooth="yes"/>
      <point x="514" y="1514" type="line"/>
      <point x="221" y="1514" type="line"/>
      <point x="221" y="62" type="line" smooth="yes"/>
      <point x="221" y="-102"/>
      <point x="187" y="-138"/>
      <point x="-44" y="-138" type="curve"/>
    </contour>
  </outline>
</glyph>
<glyph name="K" format="1">
  <advance width="1326"/>
  <unicode hex="004B"/>
  <outline>
    <contour>
      <point x="77" y="0" type="line"/>
      <point x="371" y="0" type="line"/>
      <point x="371" y="662" type="line"/>
      <point x="979" y="0" type="line"/>
      <point x="1311" y="0" type="line"/>
      <point x="1311" y="74" type="line"/>
      <point x="614" y="788" type="line"/>
      <point x="1219" y="1441" type="line"/>
      <point x="1219" y="1516" type="line"/>
      <point x="910" y="1516" type="line"/>
      <point x="371" y="907" type="line"/>
      <point x="371" y="1516" type="line"/>
      <point x="77" y="1516" type="line"/>
    </contour>
  </outline>
</glyph>
<glyph name="L" format="1">
  <advance width="1027"/>
  <unicode hex="004C"/>
  <outline>
    <contour>
      <point x="77" y="0" type="line"/>
      <point x="997" y="0" type="line"/>
      <point x="997" y="281" type="line"/>
      <point x="371" y="281" type="line"/>
      <point x="371" y="1516" type="line"/>
      <point x="77" y="1516" type="line"/>
    </contour>
  </outline>
</glyph>
<glyph name="M" format="1">
  <advance width="1613"/>
  <unicode hex="004D"/>
  <outline>
    <contour>
      <point x="77" y="0" type="line"/>
      <point x="370" y="0" type="line"/>
      <point x="370" y="1108" type="line"/>
      <point x="767" y="605" type="line"/>
      <point x="850" y="605" type="line"/>
      <point x="1243" y="1095" type="line"/>
      <point x="1243" y="0" type="line"/>
      <point x="1536" y="0" type="line"/>
      <point x="1536" y="1516" type="line"/>
      <point x="1283" y="1516" type="line"/>
      <point x="809" y="908" type="line"/>
      <point x="327" y="1516" type="line"/>
      <point x="77" y="1516" type="line"/>
    </contour>
  </outline>
</glyph>
<glyph name="N" format="1">
  <advance width="1595"/>
  <unicode hex="004E"/>
  <outline>
    <contour>
      <point x="75" y="0" type="line"/>
      <point x="359" y="0" type="line"/>
      <point x="359" y="1103" type="line"/>
      <point x="1281" y="0" type="line"/>
      <point x="1520" y="0" type="line"/>
      <point x="1520" y="1516" type="line"/>
      <point x="1233" y="1516" type="line"/>
      <point x="1233" y="401" type="line"/>
      <point x="304" y="1516" type="line"/>
      <point x="75" y="1516" type="line"/>
    </contour>
  </outline>
</glyph>
<glyph name="O" format="1">
  <advance width="1757"/>
  <unicode hex="004F"/>
  <outline>
    <contour>
      <point x="877" y="261" type="curve" smooth="yes"/>
      <point x="572" y="261"/>
      <point x="382" y="485"/>
      <point x="382" y="759" type="curve" smooth="yes"/>
      <point x="382" y="1033"/>
      <point x="572" y="1258"/>
      <point x="877" y="1258" type="curve" smooth="yes"/>
      <point x="1182" y="1258"/>
      <point x="1374" y="1033"/>
      <point x="1374" y="759" type="curve" smooth="yes"/>
      <point x="1374" y="485"/>
      <point x="1182" y="261"/>
    </contour>
    <contour>
      <point x="877" y="-19" type="curve" smooth="yes"/>
      <point x="1339" y="-19"/>
      <point x="1701" y="331"/>
      <point x="1701" y="759" type="curve" smooth="yes"/>
      <point x="1701" y="1189"/>
      <point x="1339" y="1536"/>
      <point x="877" y="1536" type="curve" smooth="yes"/>
      <point x="414" y="1536"/>
      <point x="54" y="1189"/>
      <point x="54" y="759" type="curve" smooth="yes"/>
      <point x="54" y="331"/>
      <point x="413" y="-19"/>
    </contour>
  </outline>
</glyph>
<glyph name="P" format="1">
  <advance width="1146"/>
  <unicode hex="0050"/>
  <outline>
    <contour>
      <point x="173" y="0" type="line"/>
      <point x="467" y="0" type="line"/>
      <point x="467" y="639" type="line"/>
      <point x="518" y="639" type="line" smooth="yes"/>
      <point x="923" y="639"/>
      <point x="1109" y="827"/>
      <point x="1109" y="1092" type="curve" smooth="yes"/>
      <point x="1109" y="1395"/>
      <point x="856" y="1516"/>
      <point x="566" y="1516" type="curve" smooth="yes"/>
      <point x="173" y="1516" type="line"/>
    </contour>
    <contour>
      <point x="467" y="856" type="curve"/>
      <point x="467" y="1280" type="line"/>
      <point x="525" y="1280" type="line" smooth="yes"/>
      <point x="765" y="1280"/>
      <point x="805" y="1188"/>
      <point x="805" y="1086" type="curve" smooth="yes"/>
      <point x="805" y="922"/>
      <point x="691" y="860"/>
      <point x="476" y="856" type="curve" smooth="yes"/>
      <point x="473" y="856"/>
      <point x="470" y="856"/>
    </contour>
  </outline>
</glyph>
<glyph name="Q" format="1">
  <advance width="1757"/>
  <unicode hex="0051"/>
  <outline>
    <contour>
      <point x="1204" y="-433" type="curve" smooth="yes"/>
      <point x="1204" y="-433"/>
      <point x="1458.0" y="-303.0"/>
      <point x="1458" y="-303" type="curve"/>
      <point x="1458" y="-196" type="line"/>
      <point x="1402" y="-196" type="line" smooth="yes"/>
      <point x="1270" y="-196"/>
      <point x="1163" y="-92"/>
      <point x="1093" y="7" type="curve"/>
      <point x="1443" y="96"/>
      <point x="1701" y="396"/>
      <point x="1701" y="754" type="curve" smooth="yes"/>
      <point x="1701" y="1182"/>
      <point x="1341" y="1536"/>
      <point x="877" y="1536" type="curve" smooth="yes"/>
      <point x="409" y="1536"/>
      <point x="54" y="1181"/>
      <point x="54" y="753" type="curve" smooth="yes"/>
      <point x="54" y="350"/>
      <point x="378" y="24"/>
      <point x="794" y="-16" type="curve"/>
      <point x="862" y="-165"/>
      <point x="1007" y="-372"/>
    </contour>
    <contour>
      <point x="877" y="261" type="curve" smooth="yes"/>
      <point x="592" y="261"/>
      <point x="382" y="464"/>
      <point x="382" y="764" type="curve" smooth="yes"/>
      <point x="382" y="1056"/>
      <point x="592" y="1258"/>
      <point x="877" y="1258" type="curve" smooth="yes"/>
      <point x="1162" y="1258"/>
      <point x="1374" y="1065"/>
      <point x="1374" y="764" type="curve" smooth="yes"/>
      <point x="1374" y="464"/>
      <point x="1162" y="261"/>
    </contour>
  </outline>
</glyph>
<glyph name="R" format="1">
  <advance width="1096"/>
  <unicode hex="0052"/>
  <outline>
    <contour>
      <point x="79" y="0" type="line"/>
      <point x="371" y="0" type="line"/>
      <point x="371" y="644" type="line"/>
      <point x="421" y="644" type="line" smooth="yes"/>
      <point x="445" y="644" type="line"/>
      <point x="583" y="308"/>
      <point x="780" y="0"/>
      <point x="780" y="0" type="curve"/>
      <point x="1054" y="0" type="line"/>
      <point x="1054" y="108" type="line"/>
      <point x="941" y="284"/>
      <point x="803" y="478"/>
      <point x="712" y="688" type="curve"/>
      <point x="902" y="761"/>
      <point x="1007" y="918"/>
      <point x="1007" y="1095" type="curve" smooth="yes"/>
      <point x="1007" y="1395"/>
      <point x="753" y="1516"/>
      <point x="469" y="1516" type="curve" smooth="yes"/>
      <point x="79" y="1516" type="line"/>
    </contour>
    <contour>
      <point x="371.0" y="856.0" type="curve"/>
      <point x="371.0" y="1250.0" type="line"/>
      <point x="448.0" y="1250.0" type="line" smooth="yes"/>
      <point x="684.0" y="1250.0"/>
      <point x="704.0" y="1159.0"/>
      <point x="704.0" y="1056.0" type="curve" smooth="yes"/>
      <point x="704.0" y="883.0"/>
      <point x="595.0" y="858.0"/>
      <point x="394.0" y="856.0" type="curve" smooth="yes"/>
      <point x="387.0" y="856.0"/>
      <point x="379.0" y="856.0"/>
    </contour>
  </outline>
</glyph>
<glyph name="S" format="1">
  <advance width="990"/>
  <unicode hex="0053"/>
  <outline>
    <contour>
      <point x="512" y="-14" type="curve" smooth="yes"/>
      <point x="751" y="-14"/>
      <point x="961" y="133"/>
      <point x="961" y="407" type="curve" smooth="yes"/>
      <point x="961" y="555"/>
      <point x="897" y="687"/>
      <point x="711" y="812" type="curve"/>
      <point x="454" y="977" type="line" smooth="yes"/>
      <point x="370" y="1031"/>
      <point x="331" y="1093"/>
      <point x="331" y="1143" type="curve" smooth="yes"/>
      <point x="331" y="1206"/>
      <point x="369" y="1271"/>
      <point x="521" y="1271" type="curve" smooth="yes"/>
      <point x="702" y="1271"/>
      <point x="904" y="1109"/>
      <point x="904" y="1109" type="curve"/>
      <point x="904" y="1411" type="line"/>
      <point x="904" y="1411"/>
      <point x="747" y="1537"/>
      <point x="482" y="1537" type="curve" smooth="yes"/>
      <point x="171" y="1537"/>
      <point x="21" y="1340"/>
      <point x="21" y="1131" type="curve" smooth="yes"/>
      <point x="21" y="1010"/>
      <point x="84" y="865"/>
      <point x="215" y="778" type="curve" smooth="yes"/>
      <point x="530" y="569" type="line" smooth="yes"/>
      <point x="663" y="481"/>
      <point x="668" y="444"/>
      <point x="668" y="395" type="curve" smooth="yes"/>
      <point x="668" y="301"/>
      <point x="593" y="249"/>
      <point x="477" y="249" type="curve" smooth="yes"/>
      <point x="279" y="249"/>
      <point x="52" y="480"/>
      <point x="52" y="480" type="curve"/>
      <point x="52" y="152" type="line"/>
      <point x="52" y="152"/>
      <point x="199" y="-14"/>
    </contour>
  </outline>
</glyph>
<glyph name="T" format="1">
  <advance width="1312"/>
  <unicode hex="0054"/>
  <outline>
    <contour>
      <point x="508" y="0" type="line"/>
      <point x="802" y="0" type="line"/>
      <point x="802" y="1238" type="line"/>
      <point x="1324" y="1238" type="line"/>
      <point x="1324" y="1516" type="line"/>
      <point x="-12" y="1516" type="line"/>
      <point x="-12" y="1238" type="line"/>
      <point x="508" y="1238" type="line"/>
    </contour>
  </outline>
</glyph>
<glyph name="U" format="1">
  <advance width="1653"/>
  <unicode hex="0055"/>
  <outline>
    <contour>
      <point x="828" y="-18" type="curve" smooth="yes"/>
      <point x="1155" y="-18"/>
      <point x="1491" y="187"/>
      <point x="1491" y="598" type="curve" smooth="yes"/>
      <point x="1491" y="1516" type="line"/>
      <point x="1197" y="1516" type="line"/>
      <point x="1197" y="614" type="line" smooth="yes"/>
      <point x="1197" y="373"/>
      <point x="1013" y="257"/>
      <point x="825" y="257" type="curve" smooth="yes"/>
      <point x="637" y="257"/>
      <point x="456" y="372"/>
      <point x="456" y="614" type="curve" smooth="yes"/>
      <point x="456" y="1516" type="line"/>
      <point x="162" y="1516" type="line"/>
      <point x="162" y="597" type="line" smooth="yes"/>
      <point x="162" y="187"/>
      <point x="501" y="-18"/>
    </contour>
    <contour>
      <point x="827" y="1517" type="move"/>
    </contour>
    <contour>
      <point x="1421" y="10" type="move"/>
    </contour>
  </outline>
</glyph>
<glyph name="V" format="1">
  <advance width="1281"/>
  <unicode hex="0056"/>
  <outline>
    <contour>
      <point x="587" y="-13" type="line"/>
      <point x="712" y="-13" type="line"/>
      <point x="1360" y="1515" type="line"/>
      <point x="1051" y="1515" type="line"/>
      <point x="649" y="456" type="line"/>
      <point x="227" y="1515" type="line"/>
      <point x="-84" y="1515" type="line"/>
    </contour>
  </outline>
</glyph>
<glyph name="W" format="1">
  <advance width="2193"/>
  <unicode hex="0057"/>
  <outline>
    <contour>
      <point x="1521" y="-25" type="line"/>
      <point x="1648" y="-25" type="line"/>
      <point x="2245" y="1516" type="line"/>
      <point x="1934" y="1516" type="line"/>
      <point x="1584" y="552" type="line"/>
      <point x="1228" y="1516" type="line"/>
      <point x="967" y="1516" type="line"/>
      <point x="599" y="560" type="line"/>
      <point x="267" y="1516" type="line"/>
      <point x="-55" y="1516" type="line"/>
      <point x="539" y="-22" type="line"/>
      <point x="658" y="-22" type="line"/>
      <point x="1094" y="1070" type="line"/>
    </contour>
  </outline>
</glyph>
<glyph name="X" format="1">
  <advance width="1518"/>
  <unicode hex="0058"/>
  <outline>
    <contour>
      <point x="-101" y="0" type="line"/>
      <point x="262" y="0" type="line"/>
      <point x="755" y="599" type="line"/>
      <point x="1238" y="0" type="line"/>
      <point x="1614" y="0" type="line"/>
      <point x="943" y="783" type="line"/>
      <point x="1582" y="1516" type="line"/>
      <point x="1195" y="1516" type="line"/>
      <point x="755" y="966" type="line"/>
      <point x="319" y="1516" type="line"/>
      <point x="-67" y="1516" type="line"/>
      <point x="558" y="785" type="line"/>
    </contour>
  </outline>
</glyph>
<glyph name="Y" format="1">
  <advance width="1266"/>
  <unicode hex="0059"/>
  <outline>
    <contour>
      <point x="478" y="0" type="line"/>
      <point x="788" y="0" type="line"/>
      <point x="788" y="781" type="line"/>
      <point x="1359" y="1516" type="line"/>
      <point x="1012" y="1516" type="line"/>
      <point x="631" y="994" type="line"/>
      <point x="266" y="1516" type="line"/>
      <point x="-98" y="1516" type="line"/>
      <point x="478" y="786" type="line"/>
    </contour>
  </outline>
</glyph>
<glyph name="Z" format="1">
  <advance width="1638"/>
  <unicode hex="005A"/>
  <outline>
    <contour>
      <point x="166" y="0" type="line"/>
      <point x="1475" y="0" type="line"/>
      <point x="1475" y="266" type="line"/>
      <point x="646" y="266" type="line"/>
      <point x="1461" y="1418" type="line"/>
      <point x="1436" y="1516" type="line"/>
      <point x="205" y="1516" type="line"/>
      <point x="205" y="1250" type="line"/>
      <point x="983" y="1250" type="line"/>
      <point x="152" y="66" type="line"/>
    </contour>
    <contour>
      <point x="806" y="1516" type="move"/>
    </contour>
  </outline>
</glyph>
<glyph name="asciicircum" format="1">
  <advance width="1304"/>
  <unicode hex="005E"/>
  <outline>
    <contour>
      <point x="80" y="830" type="line"/>
      <point x="396" y="830" type="line"/>
      <point x="647" y="1236" type="line"/>
      <point x="892" y="830" type="line"/>
      <point x="1227" y="830" type="line"/>
      <point x="749" y="1515" type="line"/>
      <point x="538" y="1515" type="line"/>
    </contour>
  </outline>
</glyph>
<glyph name="a" format="1">
  <advance width="1033"/>
  <unicode hex="0061"/>
  <outline>
    <contour>
      <point x="369" y="-19" type="curve" smooth="yes"/>
      <point x="462" y="-19"/>
      <point x="556.870005582" y="18.6865914929"/>
      <point x="651" y="122" type="curve"/>
      <point x="717" y="26"/>
      <point x="880" y="-27"/>
      <point x="880" y="-27" type="curve"/>
      <point x="1025" y="193" type="line"/>
      <point x="1025" y="193"/>
      <point x="881" y="231"/>
      <point x="881" y="343" type="curve" smooth="yes"/>
      <point x="881" y="686" type="line" smooth="yes"/>
      <point x="881" y="931"/>
      <point x="674" y="1017"/>
      <point x="494" y="1017" type="curve" smooth="yes"/>
      <point x="265" y="1017"/>
      <point x="94" y="886"/>
      <point x="94" y="886" type="curve"/>
      <point x="170" y="673" type="line"/>
      <point x="170" y="673"/>
      <point x="322" y="772"/>
      <point x="479" y="772" type="curve" smooth="yes"/>
      <point x="553" y="772"/>
      <point x="602" y="729"/>
      <point x="602" y="627" type="curve" smooth="yes"/>
      <point x="602" y="592" type="line"/>
      <point x="475" y="563" type="line" smooth="yes"/>
      <point x="212" y="502"/>
      <point x="85" y="386"/>
      <point x="85" y="259" type="curve" smooth="yes"/>
      <point x="85" y="81"/>
      <point x="221" y="-19"/>
    </contour>
    <contour>
      <point x="452" y="177" type="curve" smooth="yes"/>
      <point x="405" y="177"/>
      <point x="371" y="212"/>
      <point x="371" y="258" type="curve" smooth="yes"/>
      <point x="371" y="323"/>
      <point x="428" y="381"/>
      <point x="601" y="434" type="curve"/>
      <point x="601" y="251" type="line"/>
      <point x="566" y="210"/>
      <point x="497" y="177"/>
    </contour>
  </outline>
</glyph>
<glyph name="b" format="1">
  <advance width="1063"/>
  <unicode hex="0062"/>
  <outline>
    <contour>
      <point x="420" y="-18" type="curve" smooth="yes"/>
      <point x="805" y="-18"/>
      <point x="1033" y="216"/>
      <point x="1033" y="541" type="curve" smooth="yes"/>
      <point x="1033" y="835"/>
      <point x="817" y="1017"/>
      <point x="564" y="1017" type="curve" smooth="yes"/>
      <point x="489" y="1017"/>
      <point x="414" y="1002"/>
      <point x="337" y="965" type="curve"/>
      <point x="337" y="1490" type="line"/>
      <point x="56" y="1490" type="line"/>
      <point x="56" y="63" type="line"/>
      <point x="56" y="63"/>
      <point x="232.0" y="-18.0"/>
    </contour>
    <contour>
      <point x="426" y="217" type="curve" smooth="yes"/>
      <point x="394" y="217"/>
      <point x="364" y="217"/>
      <point x="337" y="222" type="curve"/>
      <point x="337" y="704" type="line"/>
      <point x="367" y="724"/>
      <point x="444" y="767"/>
      <point x="556" y="767" type="curve" smooth="yes"/>
      <point x="666" y="767"/>
      <point x="744" y="686"/>
      <point x="744" y="526" type="curve" smooth="yes"/>
      <point x="744" y="346"/>
      <point x="619" y="217"/>
    </contour>
  </outline>
</glyph>
<glyph name="c" format="1">
  <advance width="1129"/>
  <unicode hex="0063"/>
  <outline>
    <contour>
      <point x="559" y="996" type="move"/>
    </contour>
    <contour>
      <point x="559" y="0" type="move"/>
    </contour>
    <contour>
      <point x="679.0" y="-19.0" type="curve" smooth="yes"/>
      <point x="857.0" y="-19.0"/>
      <point x="978.0" y="67.0"/>
      <point x="978.0" y="67.0" type="curve"/>
      <point x="978.0" y="313.0" type="line"/>
      <point x="966.0" y="313.0" type="line"/>
      <point x="898.0" y="272.0"/>
      <point x="831.0" y="224.0"/>
      <point x="701.0" y="224.0" type="curve" smooth="yes"/>
      <point x="508.0" y="224.0"/>
      <point x="398.0" y="345.0"/>
      <point x="398.0" y="501.0" type="curve" smooth="yes"/>
      <point x="398.0" y="658.0"/>
      <point x="515.0" y="771.0"/>
      <point x="697.0" y="771.0" type="curve" smooth="yes"/>
      <point x="816.0" y="771.0"/>
      <point x="915.0" y="714.0"/>
      <point x="957.0" y="685.0" type="curve"/>
      <point x="978.0" y="685.0" type="line"/>
      <point x="978.0" y="938.0" type="line"/>
      <point x="978.0" y="938.0"/>
      <point x="889.0" y="1017.0"/>
      <point x="672.0" y="1017.0" type="curve" smooth="yes"/>
      <point x="353.0" y="1017.0"/>
      <point x="117.0" y="809.0"/>
      <point x="117.0" y="500.0" type="curve" smooth="yes"/>
      <point x="117.0" y="198.0"/>
      <point x="340.0" y="-19.0"/>
    </contour>
  </outline>
</glyph>
<glyph name="d" format="1">
  <advance width="1135"/>
  <unicode hex="0064"/>
  <outline>
    <contour>
      <point x="668" y="-18" type="curve" smooth="yes"/>
      <point x="853" y="-18"/>
      <point x="1035" y="62"/>
      <point x="1035" y="62" type="curve"/>
      <point x="1035" y="1490" type="line"/>
      <point x="754" y="1490" type="line"/>
      <point x="754" y="984" type="line"/>
      <point x="696" y="1006"/>
      <point x="628" y="1017"/>
      <point x="566" y="1017" type="curve" smooth="yes"/>
      <point x="231" y="1017"/>
      <point x="59" y="762"/>
      <point x="59" y="514" type="curve" smooth="yes"/>
      <point x="59" y="252"/>
      <point x="255" y="-18"/>
    </contour>
    <contour>
      <point x="681" y="216" type="curve" smooth="yes"/>
      <point x="455" y="216"/>
      <point x="341" y="354"/>
      <point x="341" y="503" type="curve" smooth="yes"/>
      <point x="341" y="652"/>
      <point x="439.695991623" y="772.0"/>
      <point x="598" y="772" type="curve" smooth="yes"/>
      <point x="686" y="772"/>
      <point x="754" y="743"/>
      <point x="754" y="743" type="curve"/>
      <point x="754" y="223" type="line"/>
      <point x="754" y="223"/>
      <point x="707" y="216"/>
    </contour>
  </outline>
</glyph>
<glyph name="e" format="1">
  <advance width="1094"/>
  <unicode hex="0065"/>
  <outline>
    <contour>
      <point x="626" y="-19" type="curve" smooth="yes"/>
      <point x="849" y="-19"/>
      <point x="1009" y="76"/>
      <point x="1009" y="76" type="curve"/>
      <point x="1009" y="325" type="line"/>
      <point x="1009" y="325"/>
      <point x="834" y="212"/>
      <point x="631" y="212" type="curve" smooth="yes"/>
      <point x="464" y="212"/>
      <point x="360" y="325"/>
      <point x="340" y="457" type="curve"/>
      <point x="1027" y="457" type="line"/>
      <point x="1027" y="519" type="line" smooth="yes"/>
      <point x="1027" y="797"/>
      <point x="877" y="1016"/>
      <point x="562" y="1016" type="curve" smooth="yes"/>
      <point x="266" y="1016"/>
      <point x="59" y="783"/>
      <point x="59" y="514" type="curve" smooth="yes"/>
      <point x="59" y="202"/>
      <point x="276" y="-19"/>
    </contour>
    <contour>
      <point x="359" y="629" type="line"/>
      <point x="381" y="720"/>
      <point x="474.909081641" y="806.0"/>
      <point x="575" y="806" type="curve" smooth="yes"/>
      <point x="678" y="806"/>
      <point x="765" y="734"/>
      <point x="786" y="629" type="curve"/>
    </contour>
  </outline>
</glyph>
<glyph name="f" format="1">
  <advance width="619"/>
  <unicode hex="0066"/>
  <outline>
    <contour>
      <point x="122" y="0" type="line"/>
      <point x="403" y="0" type="line"/>
      <point x="403" y="750" type="line"/>
      <point x="581" y="750" type="line"/>
      <point x="581" y="996" type="line"/>
      <point x="403" y="996" type="line"/>
      <point x="403" y="1021" type="line" smooth="yes"/>
      <point x="403" y="1148"/>
      <point x="435" y="1173"/>
      <point x="513" y="1173" type="curve" smooth="yes"/>
      <point x="539" y="1173"/>
      <point x="573" y="1166"/>
      <point x="621" y="1146" type="curve" smooth="yes"/>
      <point x="692" y="1116" type="line"/>
      <point x="692" y="1390" type="line"/>
      <point x="657" y="1402" type="line" smooth="yes"/>
      <point x="591" y="1423"/>
      <point x="531" y="1433"/>
      <point x="475" y="1433" type="curve" smooth="yes"/>
      <point x="237" y="1433"/>
      <point x="118" y="1255"/>
      <point x="118" y="1021" type="curve" smooth="yes"/>
      <point x="118" y="996" type="line"/>
      <point x="-12" y="996" type="line"/>
      <point x="-12" y="778" type="line"/>
      <point x="122" y="778" type="line"/>
    </contour>
  </outline>
</glyph>
<glyph name="g" format="1">
  <advance width="1069"/>
  <unicode hex="0067"/>
  <outline>
    <contour>
      <point x="551" y="-437" type="curve" smooth="yes"/>
      <point x="771" y="-437"/>
      <point x="1009" y="-328"/>
      <point x="1009" y="-2" type="curve" smooth="yes"/>
      <point x="1009" y="997" type="line"/>
      <point x="732" y="997" type="line"/>
      <point x="732" y="943" type="line"/>
      <point x="663" y="991"/>
      <point x="588" y="1015"/>
      <point x="516" y="1015" type="curve" smooth="yes"/>
      <point x="266" y="1015"/>
      <point x="29" y="802"/>
      <point x="29" y="524" type="curve" smooth="yes"/>
      <point x="29" y="275"/>
      <point x="192" y="0"/>
      <point x="538" y="0" type="curve" smooth="yes"/>
      <point x="626" y="0"/>
      <point x="697" y="28"/>
      <point x="746" y="55" type="curve"/>
      <point x="750" y="32"/>
      <point x="752" y="11"/>
      <point x="752" y="-8" type="curve" smooth="yes"/>
      <point x="752" y="-147"/>
      <point x="679" y="-189"/>
      <point x="559" y="-189" type="curve" smooth="yes"/>
      <point x="477" y="-189"/>
      <point x="376" y="-164"/>
      <point x="283" y="-125" type="curve" smooth="yes"/>
      <point x="212" y="-95" type="line"/>
      <point x="212" y="-362" type="line"/>
      <point x="243" y="-375" type="line" smooth="yes"/>
      <point x="331" y="-413"/>
      <point x="440" y="-437"/>
    </contour>
    <contour>
      <point x="571" y="254" type="curve" smooth="yes"/>
      <point x="418" y="254"/>
      <point x="315" y="340"/>
      <point x="315" y="515" type="curve" smooth="yes"/>
      <point x="315" y="676"/>
      <point x="439" y="760"/>
      <point x="557" y="760" type="curve" smooth="yes"/>
      <point x="608" y="760"/>
      <point x="666" y="746"/>
      <point x="729" y="708" type="curve"/>
      <point x="729" y="281" type="line"/>
      <point x="671" y="262"/>
      <point x="616" y="254"/>
    </contour>
  </outline>
</glyph>
<glyph name="h" format="1">
  <advance width="1031"/>
  <unicode hex="0068"/>
  <outline>
    <contour>
      <point x="55" y="0" type="line"/>
      <point x="336" y="0" type="line"/>
      <point x="336" y="671" type="line"/>
      <point x="389" y="716"/>
      <point x="529" y="760"/>
      <point x="576" y="760" type="curve" smooth="yes"/>
      <point x="665" y="760"/>
      <point x="701" y="732"/>
      <point x="701" y="574" type="curve" smooth="yes"/>
      <point x="701" y="0" type="line"/>
      <point x="982" y="0" type="line"/>
      <point x="982" y="647" type="line" smooth="yes"/>
      <point x="982" y="895"/>
      <point x="797" y="1017"/>
      <point x="599" y="1017" type="curve" smooth="yes"/>
      <point x="509" y="1017"/>
      <point x="418" y="991"/>
      <point x="336" y="941" type="curve"/>
      <point x="336" y="1491" type="line"/>
      <point x="55" y="1491" type="line"/>
    </contour>
  </outline>
</glyph>
<glyph name="i" format="1">
  <advance width="465"/>
  <unicode hex="0069"/>
  <outline>
    <contour>
      <point x="93" y="0" type="line"/>
      <point x="372" y="0" type="line"/>
      <point x="372" y="996" type="line"/>
      <point x="93" y="996" type="line"/>
    </contour>
    <contour>
      <point x="233" y="1115" type="curve" smooth="yes"/>
      <point x="344" y="1115"/>
      <point x="408" y="1200"/>
      <point x="408" y="1286" type="curve" smooth="yes"/>
      <point x="408" y="1369"/>
      <point x="346" y="1458"/>
      <point x="233" y="1458" type="curve" smooth="yes"/>
      <point x="121" y="1458"/>
      <point x="57" y="1370"/>
      <point x="57" y="1286" type="curve" smooth="yes"/>
      <point x="57" y="1199"/>
      <point x="122" y="1115"/>
    </contour>
  </outline>
</glyph>
<glyph name="j" format="1">
  <advance width="475"/>
  <unicode hex="006A"/>
  <outline>
    <contour>
      <point x="-24.0" y="-384.0" type="line"/>
      <point x="352" y="-384"/>
      <point x="410" y="-168"/>
      <point x="410.0" y="-28.0" type="curve" smooth="yes"/>
      <point x="410" y="996" type="line"/>
      <point x="127" y="996" type="line"/>
      <point x="127" y="996"/>
      <point x="127" y="10"/>
      <point x="127.0" y="10.0" type="curve" smooth="yes"/>
      <point x="127" y="-110"/>
      <point x="105" y="-141"/>
      <point x="-74" y="-141" type="curve"/>
    </contour>
    <contour>
      <point x="268" y="1113" type="curve" smooth="yes"/>
      <point x="379" y="1113"/>
      <point x="444" y="1198"/>
      <point x="444" y="1285" type="curve" smooth="yes"/>
      <point x="444" y="1371"/>
      <point x="379" y="1455"/>
      <point x="268" y="1455" type="curve" smooth="yes"/>
      <point x="160" y="1455"/>
      <point x="91" y="1372"/>
      <point x="91" y="1285" type="curve" smooth="yes"/>
      <point x="91" y="1196"/>
      <point x="159" y="1113"/>
    </contour>
  </outline>
</glyph>
<glyph name="k" format="1">
  <advance width="1001"/>
  <unicode hex="006B"/>
  <outline>
    <contour>
      <point x="57" y="0" type="line"/>
      <point x="337" y="0" type="line"/>
      <point x="337" y="426" type="line"/>
      <point x="743" y="0" type="line"/>
      <point x="1123" y="0" type="line"/>
      <point x="564" y="524" type="line"/>
      <point x="1067" y="996" type="line"/>
      <point x="695" y="996" type="line"/>
      <point x="337" y="616" type="line"/>
      <point x="337" y="1491" type="line"/>
      <point x="57" y="1491" type="line"/>
    </contour>
  </outline>
</glyph>
<glyph name="l" format="1">
  <advance width="618"/>
  <unicode hex="006C"/>
  <outline>
    <contour>
      <point x="394" y="-18" type="curve" smooth="yes"/>
      <point x="537" y="-18"/>
      <point x="638" y="49"/>
      <point x="638" y="49" type="curve"/>
      <point x="638" y="284" type="line"/>
      <point x="638" y="284"/>
      <point x="541" y="232"/>
      <point x="457" y="230" type="curve" smooth="yes"/>
      <point x="404" y="230"/>
      <point x="354" y="249"/>
      <point x="354" y="345" type="curve" smooth="yes"/>
      <point x="354" y="1490" type="line"/>
      <point x="74" y="1490" type="line"/>
      <point x="74" y="303" type="line" smooth="yes"/>
      <point x="74" y="89"/>
      <point x="229" y="-18"/>
    </contour>
  </outline>
</glyph>
<glyph name="m" format="1">
  <advance width="1664"/>
  <unicode hex="006D"/>
  <outline>
    <contour>
      <point x="52" y="0" type="line"/>
      <point x="333" y="0" type="line"/>
      <point x="333" y="670" type="line"/>
      <point x="397" y="759"/>
      <point x="479" y="795"/>
      <point x="561" y="795" type="curve" smooth="yes"/>
      <point x="620" y="795"/>
      <point x="687" y="759"/>
      <point x="687" y="640" type="curve" smooth="yes"/>
      <point x="687" y="0" type="line"/>
      <point x="967" y="0" type="line"/>
      <point x="967" y="675" type="line"/>
      <point x="1022" y="739"/>
      <point x="1120" y="795"/>
      <point x="1210" y="795" type="curve" smooth="yes"/>
      <point x="1298" y="795"/>
      <point x="1332" y="710"/>
      <point x="1332" y="627" type="curve" smooth="yes"/>
      <point x="1332" y="0" type="line"/>
      <point x="1612" y="0" type="line"/>
      <point x="1612" y="647" type="line" smooth="yes"/>
      <point x="1612" y="904"/>
      <point x="1443" y="1016"/>
      <point x="1253" y="1016" type="curve" smooth="yes"/>
      <point x="1206.95654227" y="1016.0"/>
      <point x="1049" y="1009"/>
      <point x="910" y="856" type="curve"/>
      <point x="855" y="947"/>
      <point x="785" y="1015"/>
      <point x="651" y="1015" type="curve" smooth="yes"/>
      <point x="588" y="1015"/>
      <point x="427" y="1007"/>
      <point x="329" y="850" type="curve"/>
      <point x="329" y="996" type="line"/>
      <point x="52" y="996" type="line"/>
    </contour>
  </outline>
</glyph>
<glyph name="n" format="1">
  <advance width="1015"/>
  <unicode hex="006E"/>
  <outline>
    <contour>
      <point x="52" y="0" type="line"/>
      <point x="333" y="0" type="line"/>
      <point x="333" y="670" type="line"/>
      <point x="376" y="730"/>
      <point x="448" y="794"/>
      <point x="559" y="795" type="curve" smooth="yes"/>
      <point x="627" y="795"/>
      <point x="687" y="754"/>
      <point x="687" y="641" type="curve" smooth="yes"/>
      <point x="687" y="0" type="line"/>
      <point x="967" y="0" type="line"/>
      <point x="967" y="663" type="line" smooth="yes"/>
      <point x="967" y="866"/>
      <point x="842" y="1015"/>
      <point x="626" y="1015" type="curve" smooth="yes"/>
      <point x="558" y="1015"/>
      <point x="412" y="988"/>
      <point x="329" y="849" type="curve"/>
      <point x="329" y="996" type="line"/>
      <point x="52" y="996" type="line"/>
    </contour>
  </outline>
</glyph>
<glyph name="o" format="1">
  <advance width="1345"/>
  <unicode hex="006F"/>
  <outline>
    <contour>
      <point x="672" y="224" type="curve" smooth="yes"/>
      <point x="512" y="224"/>
      <point x="414" y="350"/>
      <point x="414" y="498" type="curve" smooth="yes"/>
      <point x="414" y="649"/>
      <point x="512" y="772"/>
      <point x="672" y="772" type="curve" smooth="yes"/>
      <point x="833" y="772"/>
      <point x="932" y="648"/>
      <point x="932" y="498" type="curve" smooth="yes"/>
      <point x="932" y="350"/>
      <point x="832" y="224"/>
    </contour>
    <contour>
      <point x="672" y="-19" type="curve" smooth="yes"/>
      <point x="981" y="-19"/>
      <point x="1213" y="188"/>
      <point x="1213" y="500" type="curve" smooth="yes"/>
      <point x="1213" y="811"/>
      <point x="980" y="1017"/>
      <point x="672" y="1017" type="curve" smooth="yes"/>
      <point x="363" y="1017"/>
      <point x="133" y="810"/>
      <point x="133" y="500" type="curve" smooth="yes"/>
      <point x="133" y="188"/>
      <point x="363" y="-19"/>
    </contour>
    <contour>
      <point x="673" y="996" type="move"/>
    </contour>
  </outline>
</glyph>
<glyph name="p" format="1">
  <advance width="1285"/>
  <unicode hex="0070"/>
  <outline>
    <contour>
      <point x="178" y="-405" type="line"/>
      <point x="460" y="-405" type="line"/>
      <point x="460" y="30" type="line"/>
      <point x="504" y="2"/>
      <point x="582" y="-21"/>
      <point x="659" y="-21" type="curve" smooth="yes"/>
      <point x="998" y="-21"/>
      <point x="1167" y="257"/>
      <point x="1167" y="513" type="curve" smooth="yes"/>
      <point x="1167" y="788"/>
      <point x="1006" y="1020"/>
      <point x="734" y="1020" type="curve" smooth="yes"/>
      <point x="564" y="1020"/>
      <point x="460" y="875"/>
      <point x="460" y="875" type="curve"/>
      <point x="460" y="996" type="line"/>
      <point x="178" y="996" type="line"/>
    </contour>
    <contour>
      <point x="624" y="214" type="curve" smooth="yes"/>
      <point x="544" y="214"/>
      <point x="487" y="239"/>
      <point x="460" y="254" type="curve"/>
      <point x="460" y="701" type="line"/>
      <point x="491" y="719"/>
      <point x="575" y="764"/>
      <point x="661" y="764" type="curve" smooth="yes"/>
      <point x="812" y="764"/>
      <point x="871" y="648"/>
      <point x="871" y="519" type="curve" smooth="yes"/>
      <point x="871" y="367"/>
      <point x="786" y="214"/>
    </contour>
  </outline>
</glyph>
<glyph name="q" format="1">
  <advance width="1064"/>
  <unicode hex="0071"/>
  <outline>
    <contour>
      <point x="727" y="-405" type="line"/>
      <point x="1007" y="-405" type="line"/>
      <point x="1007" y="996" type="line"/>
      <point x="727" y="996" type="line"/>
      <point x="727" y="950" type="line"/>
      <point x="659" y="993"/>
      <point x="586" y="1015"/>
      <point x="515" y="1015" type="curve" smooth="yes"/>
      <point x="254" y="1015"/>
      <point x="30" y="802"/>
      <point x="30" y="516" type="curve" smooth="yes"/>
      <point x="30" y="255"/>
      <point x="225" y="-21"/>
      <point x="587" y="-21" type="curve" smooth="yes"/>
      <point x="643" y="-21"/>
      <point x="690" y="-8"/>
      <point x="727" y="8" type="curve"/>
    </contour>
    <contour>
      <point x="601" y="240" type="curve" smooth="yes"/>
      <point x="432" y="240"/>
      <point x="324" y="374"/>
      <point x="324" y="506" type="curve" smooth="yes"/>
      <point x="324" y="671"/>
      <point x="437" y="760"/>
      <point x="556" y="760" type="curve" smooth="yes"/>
      <point x="607" y="760"/>
      <point x="666" y="747"/>
      <point x="727" y="715" type="curve"/>
      <point x="727" y="263" type="line"/>
      <point x="707" y="254"/>
      <point x="665" y="240"/>
    </contour>
  </outline>
</glyph>
<glyph name="r" format="1">
  <advance width="823"/>
  <unicode hex="0072"/>
  <outline>
    <contour>
      <point x="57" y="0" type="line"/>
      <point x="335" y="0" type="line"/>
      <point x="335" y="405" type="line" smooth="yes"/>
      <point x="335" y="486"/>
      <point x="348" y="546"/>
      <point x="367" y="592" type="curve" smooth="yes"/>
      <point x="411" y="700"/>
      <point x="486" y="723"/>
      <point x="517" y="723" type="curve" smooth="yes"/>
      <point x="547" y="723"/>
      <point x="587" y="693"/>
      <point x="615" y="657" type="curve" smooth="yes"/>
      <point x="657" y="605" type="line"/>
      <point x="838" y="851" type="line"/>
      <point x="810" y="882" type="line" smooth="yes"/>
      <point x="725" y="977"/>
      <point x="629" y="1015"/>
      <point x="561" y="1015" type="curve" smooth="yes"/>
      <point x="465" y="1015"/>
      <point x="389" y="964"/>
      <point x="335" y="900" type="curve"/>
      <point x="335" y="996" type="line"/>
      <point x="57" y="996" type="line"/>
    </contour>
  </outline>
</glyph>
<glyph name="s" format="1">
  <advance width="855"/>
  <unicode hex="0073"/>
  <outline>
    <contour>
      <point x="475" y="-19" type="curve" smooth="yes"/>
      <point x="700" y="-19"/>
      <point x="804" y="99"/>
      <point x="804" y="281" type="curve" smooth="yes"/>
      <point x="804" y="371"/>
      <point x="765" y="469"/>
      <point x="625" y="549" type="curve" smooth="yes"/>
      <point x="415" y="669" type="line" smooth="yes"/>
      <point x="375" y="692"/>
      <point x="346" y="708"/>
      <point x="346" y="741" type="curve" smooth="yes"/>
      <point x="346" y="784"/>
      <point x="376" y="806"/>
      <point x="446" y="806" type="curve" smooth="yes"/>
      <point x="552" y="806"/>
      <point x="727" y="722"/>
      <point x="727" y="722" type="curve"/>
      <point x="779" y="921" type="line"/>
      <point x="779" y="921"/>
      <point x="631" y="1017"/>
      <point x="437" y="1017" type="curve" smooth="yes"/>
      <point x="188" y="1017"/>
      <point x="68" y="882"/>
      <point x="68" y="724" type="curve" smooth="yes"/>
      <point x="68" y="628"/>
      <point x="108" y="547"/>
      <point x="251" y="467" type="curve"/>
      <point x="489" y="334" type="line" smooth="yes"/>
      <point x="535" y="308"/>
      <point x="546" y="282"/>
      <point x="546" y="264" type="curve" smooth="yes"/>
      <point x="546.0" y="224.94875162"/>
      <point x="518.813343923" y="204.0"/>
      <point x="448" y="204" type="curve" smooth="yes"/>
      <point x="299" y="204"/>
      <point x="89" y="318"/>
      <point x="89" y="318" type="curve"/>
      <point x="62" y="100" type="line"/>
      <point x="62" y="100"/>
      <point x="221" y="-19"/>
    </contour>
  </outline>
</glyph>
<glyph name="t" format="1">
  <advance width="973"/>
  <unicode hex="0074"/>
  <outline>
    <contour>
      <point x="756" y="-21"/>
      <point x="867" y="75"/>
      <point x="867" y="75" type="curve"/>
      <point x="867" y="281" type="line"/>
      <point x="752" y="218"/>
      <point x="672" y="216"/>
      <point x="618" y="216" type="curve" smooth="yes"/>
      <point x="530" y="216"/>
      <point x="508" y="274"/>
      <point x="508" y="311" type="curve" smooth="yes"/>
      <point x="508" y="770" type="line"/>
      <point x="816" y="770" type="line"/>
      <point x="816" y="996" type="line"/>
      <point x="508" y="996" type="line"/>
      <point x="508" y="1238" type="line"/>
      <point x="457" y="1238" type="line"/>
      <point x="91" y="856" type="line"/>
      <point x="77" y="838"/>
      <point x="71" y="823"/>
      <point x="71" y="810" type="curve" smooth="yes"/>
      <point x="71" y="785"/>
      <point x="93" y="770"/>
      <point x="128" y="770" type="curve" smooth="yes"/>
      <point x="228" y="770" type="line"/>
      <point x="228" y="250" type="line" smooth="yes"/>
      <point x="228" y="76"/>
      <point x="393" y="-21"/>
      <point x="565" y="-21" type="curve" smooth="yes"/>
    </contour>
    <contour>
      <point x="488" y="498" type="move"/>
    </contour>
    <contour>
      <point x="488" y="0" type="move"/>
    </contour>
  </outline>
</glyph>
<glyph name="u" format="1">
  <advance width="1003"/>
  <unicode hex="0075"/>
  <outline>
    <contour>
      <point x="418" y="-18" type="curve" smooth="yes"/>
      <point x="504" y="-18"/>
      <point x="591" y="10"/>
      <point x="669" y="65" type="curve"/>
      <point x="669" y="0" type="line"/>
      <point x="946" y="0" type="line"/>
      <point x="946" y="996" type="line"/>
      <point x="667" y="996" type="line"/>
      <point x="667" y="326" type="line"/>
      <point x="619" y="270"/>
      <point x="528" y="229"/>
      <point x="452" y="229" type="curve" smooth="yes"/>
      <point x="384" y="229"/>
      <point x="330" y="255"/>
      <point x="330" y="359" type="curve" smooth="yes"/>
      <point x="330" y="996" type="line"/>
      <point x="49" y="996" type="line"/>
      <point x="49" y="348" type="line" smooth="yes"/>
      <point x="49" y="112"/>
      <point x="225" y="-18"/>
    </contour>
  </outline>
</glyph>
<glyph name="v" format="1">
  <advance width="1227"/>
  <unicode hex="0076"/>
  <outline>
    <contour>
      <point x="564" y="0" type="line"/>
      <point x="660" y="0" type="line"/>
      <point x="1160" y="996" type="line"/>
      <point x="844" y="996" type="line"/>
      <point x="614" y="426" type="line"/>
      <point x="381" y="996" type="line"/>
      <point x="68" y="996" type="line"/>
    </contour>
  </outline>
</glyph>
<glyph name="w" format="1">
  <advance width="1375"/>
  <unicode hex="0077"/>
  <outline>
    <contour>
      <point x="328" y="0" type="line"/>
      <point x="443" y="0" type="line"/>
      <point x="692" y="665" type="line"/>
      <point x="937" y="0" type="line"/>
      <point x="1047" y="0" type="line"/>
      <point x="1404" y="996" type="line"/>
      <point x="1110" y="996" type="line"/>
      <point x="977" y="512" type="line"/>
      <point x="805" y="996" type="line"/>
      <point x="568" y="996" type="line"/>
      <point x="404" y="524" type="line"/>
      <point x="281" y="996" type="line"/>
      <point x="-29" y="996" type="line"/>
    </contour>
  </outline>
</glyph>
<glyph name="x" format="1">
  <advance width="1066"/>
  <unicode hex="0078"/>
  <outline>
    <contour>
      <point x="-75" y="0" type="line"/>
      <point x="282" y="0" type="line"/>
      <point x="539" y="336" type="line"/>
      <point x="809" y="0" type="line"/>
      <point x="1143" y="0" type="line"/>
      <point x="705" y="500" type="line"/>
      <point x="1126" y="996" type="line"/>
      <point x="775" y="996" type="line"/>
      <point x="527" y="675" type="line"/>
      <point x="271" y="996" type="line"/>
      <point x="-65" y="996" type="line"/>
      <point x="361" y="511" type="line"/>
    </contour>
  </outline>
</glyph>
<glyph name="y" format="1">
  <advance width="1003"/>
  <unicode hex="0079"/>
  <outline>
    <contour>
      <point x="124" y="-268" type="line"/>
      <point x="432" y="-268" type="line"/>
      <point x="1073" y="997" type="line"/>
      <point x="767" y="997" type="line"/>
      <point x="534" y="529" type="line"/>
      <point x="296" y="997" type="line"/>
      <point x="-39" y="997" type="line"/>
      <point x="377" y="268" type="line"/>
    </contour>
  </outline>
</glyph>
<glyph name="z" format="1">
  <advance width="1215"/>
  <unicode hex="007A"/>
  <outline>
    <contour>
      <point x="192" y="0" type="line"/>
      <point x="1022" y="0" type="line"/>
      <point x="1022" y="242" type="line"/>
      <point x="575" y="242" type="line"/>
      <point x="1042" y="905" type="line"/>
      <point x="1002" y="996" type="line"/>
      <point x="208" y="996" type="line"/>
      <point x="208" y="755" type="line"/>
      <point x="631" y="755" type="line"/>
      <point x="165" y="82" type="line"/>
    </contour>
    <contour>
      <point x="607" y="996" type="move"/>
    </contour>
  </outline>
</glyph>
<glyph name="braceleft" format="1">
  <advance width="740"/>
  <unicode hex="007B"/>
  <outline>
    <contour>
      <point x="650" y="-266" type="curve" smooth="yes"/>
      <point x="701" y="-266" type="line"/>
      <point x="701" y="3" type="line"/>
      <point x="650" y="3" type="line" smooth="yes"/>
      <point x="566" y="3"/>
      <point x="506" y="32"/>
      <point x="506" y="154" type="curve" smooth="yes"/>
      <point x="506" y="519" type="line" smooth="yes"/>
      <point x="506" y="609"/>
      <point x="456" y="680"/>
      <point x="382" y="730" type="curve"/>
      <point x="455" y="780"/>
      <point x="506" y="852"/>
      <point x="506" y="942" type="curve" smooth="yes"/>
      <point x="506" y="1306" type="line" smooth="yes"/>
      <point x="506" y="1437"/>
      <point x="565" y="1468"/>
      <point x="650" y="1468" type="curve" smooth="yes"/>
      <point x="701" y="1468" type="line"/>
      <point x="701" y="1737" type="line"/>
      <point x="650" y="1737" type="line" smooth="yes"/>
      <point x="451" y="1737"/>
      <point x="226" y="1639"/>
      <point x="227" y="1374" type="curve"/>
      <point x="227" y="1016" type="line" smooth="yes"/>
      <point x="227" y="897"/>
      <point x="171" y="869"/>
      <point x="82" y="869" type="curve" smooth="yes"/>
      <point x="31" y="869" type="line"/>
      <point x="31" y="602" type="line"/>
      <point x="82" y="602" type="line" smooth="yes"/>
      <point x="171" y="602"/>
      <point x="227" y="573"/>
      <point x="227" y="451" type="curve" smooth="yes"/>
      <point x="227" y="78" type="line" smooth="yes"/>
      <point x="227" y="-170"/>
      <point x="450" y="-266"/>
    </contour>
  </outline>
</glyph>
<glyph name="exclamdown" format="1">
  <advance width="609"/>
  <unicode hex="00A1"/>
  <outline>
    <contour>
      <point x="294" y="-18" type="curve" smooth="yes"/>
      <point x="369" y="-18"/>
      <point x="458" y="29"/>
      <point x="458" y="126" type="curve" smooth="yes"/>
      <point x="458" y="134" type="line"/>
      <point x="386" y="1108" type="line" smooth="yes"/>
      <point x="384" y="1144"/>
      <point x="369" y="1206"/>
      <point x="305" y="1206" type="curve" smooth="yes"/>
      <point x="244" y="1206"/>
      <point x="225" y="1150"/>
      <point x="222" y="1112" type="curve" smooth="yes"/>
      <point x="135" y="134" type="line"/>
      <point x="135" y="122" type="line" smooth="yes"/>
      <point x="135" y="28"/>
      <point x="220" y="-18"/>
    </contour>
    <contour>
      <point x="307" y="1265" type="curve" smooth="yes"/>
      <point x="394" y="1265"/>
      <point x="488" y="1329"/>
      <point x="488" y="1449" type="curve" smooth="yes"/>
      <point x="488" y="1567"/>
      <point x="392" y="1627"/>
      <point x="307" y="1627" type="curve" smooth="yes"/>
      <point x="221" y="1627"/>
      <point x="126" y="1566"/>
      <point x="126" y="1449" type="curve" smooth="yes"/>
      <point x="126" y="1331"/>
      <point x="219" y="1265"/>
    </contour>
  </outline>
</glyph>
<glyph name="cent" format="1">
  <advance width="992"/>
  <unicode hex="00A2"/>
  <outline>
    <contour>
      <point x="510" y="-317" type="line"/>
      <point x="698" y="-317" type="line"/>
      <point x="698" y="-95" type="line"/>
      <point x="759" y="-88"/>
      <point x="847" y="-73"/>
      <point x="916" y="-32" type="curve" smooth="yes"/>
      <point x="941" y="-17" type="line"/>
      <point x="941" y="231" type="line"/>
      <point x="859" y="231" type="line"/>
      <point x="810" y="202"/>
      <point x="754" y="174"/>
      <point x="698" y="161" type="curve"/>
      <point x="698" y="742" type="line"/>
      <point x="745" y="735"/>
      <point x="780" y="719"/>
      <point x="840" y="686" type="curve" smooth="yes"/>
      <point x="916" y="645" type="line"/>
      <point x="916" y="923" type="line"/>
      <point x="893" y="938" type="line" smooth="yes"/>
      <point x="841" y="971"/>
      <point x="770" y="987"/>
      <point x="698" y="996" type="curve"/>
      <point x="698" y="1253" type="line"/>
      <point x="510" y="1256" type="line"/>
      <point x="510" y="991" type="line"/>
      <point x="261" y="947"/>
      <point x="57" y="737"/>
      <point x="57" y="445" type="curve" smooth="yes"/>
      <point x="57" y="161"/>
      <point x="248" y="-48"/>
      <point x="510" y="-94" type="curve"/>
    </contour>
    <contour>
      <point x="510" y="223" type="line"/>
      <point x="400" y="271"/>
      <point x="342" y="387"/>
      <point x="342" y="497" type="curve" smooth="yes"/>
      <point x="342" y="610"/>
      <point x="402" y="725"/>
      <point x="510" y="771" type="curve"/>
    </contour>
  </outline>
</glyph>
<glyph name="sterling" format="1">
  <advance width="1195"/>
  <unicode hex="00A3"/>
  <outline>
    <contour>
      <point x="180" y="0" type="line"/>
      <point x="1151" y="0" type="line"/>
      <point x="1151" y="266" type="line"/>
      <point x="475" y="266" type="line"/>
      <point x="475" y="597" type="line"/>
      <point x="801" y="597" type="line"/>
      <point x="801" y="827" type="line"/>
      <point x="479" y="827" type="line"/>
      <point x="503" y="1130"/>
      <point x="634" y="1274"/>
      <point x="799" y="1274" type="curve" smooth="yes"/>
      <point x="872" y="1274"/>
      <point x="963" y="1243"/>
      <point x="1066" y="1170" type="curve" smooth="yes"/>
      <point x="1146" y="1114" type="line"/>
      <point x="1146" y="1410" type="line"/>
      <point x="1123" y="1425" type="line" smooth="yes"/>
      <point x="1003" y="1503"/>
      <point x="884" y="1541"/>
      <point x="774" y="1541" type="curve" smooth="yes"/>
      <point x="438" y="1541"/>
      <point x="215" y="1235"/>
      <point x="184" y="827" type="curve"/>
      <point x="35" y="827" type="line"/>
      <point x="35" y="597" type="line"/>
      <point x="180" y="597" type="line"/>
    </contour>
  </outline>
</glyph>
<glyph name="yen" format="1">
  <advance width="1266"/>
  <unicode hex="00A5"/>
  <outline>
    <contour>
      <point x="478" y="0" type="line"/>
      <point x="788" y="0" type="line"/>
      <point x="788" y="360" type="line"/>
      <point x="1272" y="360" type="line"/>
      <point x="1272" y="619" type="line"/>
      <point x="788" y="619" type="line"/>
      <point x="788" y="655" type="line"/>
      <point x="1272" y="655" type="line"/>
      <point x="1272" y="914" type="line"/>
      <point x="884" y="914" type="line"/>
      <point x="1359" y="1516" type="line"/>
      <point x="1012" y="1516" type="line"/>
      <point x="631" y="994" type="line"/>
      <point x="266" y="1516" type="line"/>
      <point x="-98" y="1516" type="line"/>
      <point x="385" y="914" type="line"/>
      <point x="-10" y="914" type="line"/>
      <point x="-10" y="655" type="line"/>
      <point x="478" y="655" type="line"/>
      <point x="478" y="619" type="line"/>
      <point x="-10" y="619" type="line"/>
      <point x="-10" y="360" type="line"/>
      <point x="478" y="360" type="line"/>
    </contour>
  </outline>
</glyph>
<glyph name="dieresis" format="1">
  <advance width="801"/>
  <unicode hex="00A8"/>
  <outline>
    <contour>
      <point x="213" y="-105" type="curve" smooth="yes"/>
      <point x="291" y="-105"/>
      <point x="382" y="-51"/>
      <point x="382" y="59" type="curve" smooth="yes"/>
      <point x="382" y="170"/>
      <point x="294" y="230"/>
      <point x="213" y="230" type="curve" smooth="yes"/>
      <point x="131" y="230"/>
      <point x="46" y="169"/>
      <point x="46" y="59" type="curve" smooth="yes"/>
      <point x="46" y="-49"/>
      <point x="134" y="-105"/>
    </contour>
    <contour>
      <point x="590" y="-105" type="curve" smooth="yes"/>
      <point x="669" y="-105"/>
      <point x="757" y="-50"/>
      <point x="757" y="59" type="curve" smooth="yes"/>
      <point x="757" y="169"/>
      <point x="672" y="230"/>
      <point x="590" y="230" type="curve" smooth="yes"/>
      <point x="509" y="230"/>
      <point x="421" y="170"/>
      <point x="421" y="59" type="curve" smooth="yes"/>
      <point x="421" y="-50"/>
      <point x="512" y="-105"/>
    </contour>
  </outline>
</glyph>
<glyph name="copyright" format="1">
  <advance width="1814"/>
  <unicode hex="00A9"/>
  <outline>
    <contour>
      <point x="917" y="186" type="curve" smooth="yes"/>
      <point x="629" y="186"/>
      <point x="408" y="401"/>
      <point x="408" y="694" type="curve" smooth="yes"/>
      <point x="408" y="988"/>
      <point x="637" y="1208"/>
      <point x="926" y="1208" type="curve" smooth="yes"/>
      <point x="999" y="1208"/>
      <point x="1088" y="1192"/>
      <point x="1164" y="1160" type="curve" smooth="yes"/>
      <point x="1195" y="1147" type="line"/>
      <point x="1195" y="923" type="line"/>
      <point x="1123" y="956" type="line" smooth="yes"/>
      <point x="1060" y="985"/>
      <point x="988" y="999"/>
      <point x="936" y="999" type="curve" smooth="yes"/>
      <point x="765" y="999"/>
      <point x="641" y="869"/>
      <point x="641" y="695" type="curve" smooth="yes"/>
      <point x="641" y="517"/>
      <point x="745" y="397"/>
      <point x="920" y="397" type="curve" smooth="yes"/>
      <point x="980" y="397"/>
      <point x="1043" y="413"/>
      <point x="1122" y="451" type="curve" smooth="yes"/>
      <point x="1195" y="486" type="line"/>
      <point x="1195" y="260" type="line"/>
      <point x="1166" y="246" type="line" smooth="yes"/>
      <point x="1078" y="205"/>
      <point x="1000" y="186"/>
    </contour>
    <contour>
      <point x="907" y="218" type="curve" smooth="yes"/>
      <point x="640" y="218"/>
      <point x="372" y="384"/>
      <point x="372" y="724" type="curve" smooth="yes"/>
      <point x="372" y="1065"/>
      <point x="640" y="1229"/>
      <point x="906" y="1229" type="curve" smooth="yes"/>
      <point x="1173" y="1229"/>
      <point x="1442" y="1063"/>
      <point x="1442" y="724" type="curve" smooth="yes"/>
      <point x="1442" y="383"/>
      <point x="1174" y="218"/>
    </contour>
    <contour>
      <point x="905" y="0" type="curve" smooth="yes"/>
      <point x="1287" y="0"/>
      <point x="1681" y="245"/>
      <point x="1681" y="724" type="curve" smooth="yes"/>
      <point x="1681" y="1205"/>
      <point x="1289" y="1446"/>
      <point x="908" y="1446" type="curve" smooth="yes"/>
      <point x="527" y="1446"/>
      <point x="133" y="1205"/>
      <point x="133" y="724" type="curve" smooth="yes"/>
      <point x="133" y="244"/>
      <point x="524" y="0"/>
    </contour>
  </outline>
</glyph>
<glyph name="registered" format="1">
  <advance width="1813"/>
  <unicode hex="00AE"/>
  <outline>
    <contour>
      <point x="1253" y="235" type="curve"/>
      <point x="1253" y="251" type="line"/>
      <point x="1186" y="362"/>
      <point x="1116" y="490"/>
      <point x="1059" y="623" type="curve"/>
      <point x="1172" y="677"/>
      <point x="1225" y="780"/>
      <point x="1225" y="896" type="curve" smooth="yes"/>
      <point x="1225" y="979" type="line"/>
      <point x="1214" y="973" type="line"/>
      <point x="1176" y="1133"/>
      <point x="1027" y="1192"/>
      <point x="871" y="1192" type="curve" smooth="yes"/>
      <point x="699" y="1192" type="line"/>
      <point x="765" y="1218"/>
      <point x="837" y="1231"/>
      <point x="908" y="1231" type="curve" smooth="yes"/>
      <point x="1175" y="1231"/>
      <point x="1444" y="1049"/>
      <point x="1444" y="675" type="curve" smooth="yes"/>
      <point x="1444" y="473"/>
      <point x="1366" y="327"/>
    </contour>
    <contour>
      <point x="909" y="220" type="curve" smooth="yes"/>
      <point x="839" y="220"/>
      <point x="768" y="231"/>
      <point x="703" y="254" type="curve"/>
      <point x="830" y="254" type="line"/>
      <point x="830" y="635" type="line"/>
      <point x="841" y="635" type="line" smooth="yes"/>
      <point x="844" y="635" type="line"/>
      <point x="902" y="510"/>
      <point x="984" y="355"/>
      <point x="1038" y="276" type="curve" smooth="yes"/>
      <point x="1053" y="254" type="line"/>
      <point x="1115" y="254" type="line"/>
      <point x="1050" y="231"/>
      <point x="979" y="220"/>
    </contour>
    <contour>
      <point x="907" y="2" type="curve" smooth="yes"/>
      <point x="1289" y="2"/>
      <point x="1683" y="247"/>
      <point x="1683" y="726" type="curve" smooth="yes"/>
      <point x="1683" y="1207"/>
      <point x="1291" y="1448"/>
      <point x="910" y="1448" type="curve" smooth="yes"/>
      <point x="529" y="1448"/>
      <point x="135" y="1207"/>
      <point x="135" y="726" type="curve" smooth="yes"/>
      <point x="135" y="246"/>
      <point x="526" y="2"/>
    </contour>
    <contour>
      <point x="829" y="784" type="curve"/>
      <point x="829" y="989" type="line"/>
      <point x="857" y="989" type="line" smooth="yes"/>
      <point x="994" y="989"/>
      <point x="998" y="943"/>
      <point x="998" y="889" type="curve" smooth="yes"/>
      <point x="998" y="799"/>
      <point x="952" y="786"/>
    </contour>
    <contour>
      <point x="611" y="203" type="line"/>
      <point x="473" y="291"/>
      <point x="374" y="447"/>
      <point x="374" y="675" type="curve" smooth="yes"/>
      <point x="374" y="904"/>
      <point x="473" y="1060"/>
      <point x="611" y="1147" type="curve"/>
    </contour>
  </outline>
</glyph>
<glyph name="macron" format="1">
  <advance width="721"/>
  <unicode hex="00AF"/>
  <outline>
    <contour>
      <point x="53" y="-101" type="line"/>
      <point x="668" y="-101" type="line"/>
      <point x="668" y="153" type="line"/>
      <point x="53" y="153" type="line"/>
    </contour>
  </outline>
</glyph>
<glyph name="acute" format="1">
  <advance width="370"/>
  <unicode hex="00B4"/>
  <outline>
    <contour>
      <point x="34" y="113" type="curve" smooth="yes"/>
      <point x="50" y="112"/>
      <point x="66" y="118"/>
      <point x="76" y="129" type="curve" smooth="yes"/>
      <point x="337" y="401" type="line" smooth="yes"/>
      <point x="370" y="435"/>
      <point x="385" y="476"/>
      <point x="387" y="515" type="curve" smooth="yes"/>
      <point x="391" y="600"/>
      <point x="320" y="656"/>
      <point x="251" y="659" type="curve" smooth="yes"/>
      <point x="188" y="662"/>
      <point x="123" y="625"/>
      <point x="99" y="543" type="curve" smooth="yes"/>
      <point x="-8" y="184" type="line" smooth="yes"/>
      <point x="-10" y="176"/>
      <point x="-12" y="170"/>
      <point x="-12" y="164" type="curve" smooth="yes"/>
      <point x="-14" y="131"/>
      <point x="10" y="114"/>
    </contour>
  </outline>
</glyph>
<glyph name="paragraph" format="1">
  <advance width="1243"/>
  <unicode hex="00B6"/>
  <outline>
    <contour>
      <point x="926" y="51" type="line"/>
      <point x="1020" y="51" type="line" smooth="yes"/>
      <point x="1084" y="51"/>
      <point x="1089" y="104"/>
      <point x="1089" y="122" type="curve" smooth="yes"/>
      <point x="1089" y="128" type="line"/>
      <point x="1089" y="131" type="line"/>
      <point x="1088" y="252"/>
      <point x="1088" y="374"/>
      <point x="1088" y="495" type="curve" smooth="yes"/>
      <point x="1088" y="979"/>
      <point x="1093" y="1461"/>
      <point x="1093" y="1947" type="curve" smooth="yes"/>
      <point x="1093" y="2135" type="line"/>
      <point x="1120" y="2136"/>
      <point x="1150" y="2136"/>
      <point x="1166" y="2138" type="curve" smooth="yes"/>
      <point x="1221" y="2142"/>
      <point x="1231" y="2179"/>
      <point x="1231" y="2206" type="curve" smooth="yes"/>
      <point x="1231" y="2237"/>
      <point x="1227" y="2236"/>
      <point x="1226" y="2261" type="curve" smooth="yes"/>
      <point x="1226" y="2269" type="line"/>
      <point x="1220" y="2286"/>
      <point x="1214" y="2305"/>
      <point x="1191" y="2319" type="curve" smooth="yes"/>
      <point x="1180" y="2325" type="line"/>
      <point x="1129" y="2327"/>
      <point x="922" y="2331"/>
      <point x="869" y="2331" type="curve" smooth="yes"/>
      <point x="835" y="2331"/>
      <point x="761" y="2333"/>
      <point x="733" y="2333" type="curve" smooth="yes"/>
      <point x="418" y="2333"/>
      <point x="39" y="2277"/>
      <point x="39" y="1838" type="curve" smooth="yes"/>
      <point x="39" y="1524"/>
      <point x="236" y="1322"/>
      <point x="552" y="1322" type="curve" smooth="yes"/>
      <point x="556" y="1322" type="line"/>
      <point x="557" y="1292"/>
      <point x="558" y="1252"/>
      <point x="558" y="1232" type="curve" smooth="yes"/>
      <point x="558" y="978" type="line" smooth="yes"/>
      <point x="558" y="748"/>
      <point x="554" y="518"/>
      <point x="554" y="286" type="curve" smooth="yes"/>
      <point x="554" y="263" type="line" smooth="yes"/>
      <point x="554" y="225"/>
      <point x="554" y="158"/>
      <point x="555" y="136" type="curve"/>
      <point x="555" y="136"/>
      <point x="553" y="127"/>
      <point x="553" y="115" type="curve" smooth="yes"/>
      <point x="553" y="91"/>
      <point x="562" y="56"/>
      <point x="619" y="56" type="curve" smooth="yes"/>
      <point x="715" y="56" type="line"/>
      <point x="740" y="78" type="line"/>
      <point x="762" y="100"/>
      <point x="767" y="166"/>
      <point x="767" y="241" type="curve" smooth="yes"/>
      <point x="767" y="327"/>
      <point x="760" y="425"/>
      <point x="760" y="481" type="curve" smooth="yes"/>
      <point x="761" y="660"/>
      <point x="761" y="949"/>
      <point x="761" y="1240" type="curve" smooth="yes"/>
      <point x="761" y="1605"/>
      <point x="760" y="1973"/>
      <point x="760" y="2134" type="curve"/>
      <point x="886" y="2134" type="line"/>
      <point x="886" y="91" type="line"/>
    </contour>
  </outline>
</glyph>
<glyph name="cedilla" format="1">
  <advance width="538"/>
  <unicode hex="00B8"/>
  <outline>
    <contour>
      <point x="262" y="147" type="curve" smooth="yes"/>
      <point x="373" y="147"/>
      <point x="520" y="192"/>
      <point x="520" y="349" type="curve" smooth="yes"/>
      <point x="520" y="452"/>
      <point x="447" y="530"/>
      <point x="342" y="553" type="curve"/>
      <point x="385" y="687" type="line"/>
      <point x="202" y="687" type="line"/>
      <point x="82" y="330" type="line"/>
      <point x="153" y="330" type="line" smooth="yes"/>
      <point x="178" y="330"/>
      <point x="265" y="328"/>
      <point x="286" y="313" type="curve"/>
      <point x="286" y="311"/>
      <point x="281" y="297"/>
      <point x="224" y="297" type="curve" smooth="yes"/>
      <point x="168" y="297"/>
      <point x="110" y="313"/>
      <point x="71" y="313" type="curve" smooth="yes"/>
      <point x="64" y="313" type="line" smooth="yes"/>
      <point x="47" y="313"/>
      <point x="7" y="308"/>
      <point x="7" y="257" type="curve" smooth="yes"/>
      <point x="7" y="209"/>
      <point x="34" y="207"/>
      <point x="34" y="207" type="curve"/>
      <point x="38" y="202" type="line"/>
      <point x="95" y="168"/>
      <point x="176" y="147"/>
    </contour>
  </outline>
</glyph>
<glyph name="questiondown" format="1">
  <advance width="997"/>
  <unicode hex="00BF"/>
  <outline>
    <contour>
      <point x="532" y="-17" type="curve" smooth="yes"/>
      <point x="672" y="-17"/>
      <point x="811" y="27"/>
      <point x="918" y="112" type="curve" smooth="yes"/>
      <point x="947" y="135" type="line"/>
      <point x="850" y="390" type="line"/>
      <point x="795" y="340" type="line" smooth="yes"/>
      <point x="735" y="285"/>
      <point x="637" y="248"/>
      <point x="547" y="248" type="curve" smooth="yes"/>
      <point x="458" y="248"/>
      <point x="375" y="306"/>
      <point x="375" y="397" type="curve" smooth="yes"/>
      <point x="375" y="589"/>
      <point x="693" y="694"/>
      <point x="693" y="1050" type="curve" smooth="yes"/>
      <point x="693" y="1094"/>
      <point x="665" y="1146"/>
      <point x="604" y="1146" type="curve" smooth="yes"/>
      <point x="543" y="1146"/>
      <point x="520" y="1094"/>
      <point x="511" y="1060" type="curve" smooth="yes"/>
      <point x="453" y="817"/>
      <point x="78" y="697"/>
      <point x="78" y="377" type="curve" smooth="yes"/>
      <point x="78" y="109"/>
      <point x="307" y="-17"/>
    </contour>
    <contour>
      <point x="583" y="1180" type="curve" smooth="yes"/>
      <point x="673" y="1180"/>
      <point x="764" y="1246"/>
      <point x="764" y="1364" type="curve" smooth="yes"/>
      <point x="764" y="1482"/>
      <point x="670" y="1542"/>
      <point x="583" y="1542" type="curve" smooth="yes"/>
      <point x="498" y="1542"/>
      <point x="403" y="1482"/>
      <point x="403" y="1364" type="curve" smooth="yes"/>
      <point x="403" y="1247"/>
      <point x="495" y="1180"/>
    </contour>
  </outline>
</glyph>
<glyph name="Acircumflex" format="1">
  <advance width="1527"/>
  <unicode hex="00C2"/>
  <outline>
    <contour>
      <point x="459" y="1567" type="curve" smooth="yes"/>
      <point x="464" y="1567" type="line" smooth="yes"/>
      <point x="477" y="1567"/>
      <point x="484" y="1571"/>
      <point x="491" y="1573" type="curve"/>
      <point x="763" y="1763" type="line"/>
      <point x="1036" y="1573" type="line"/>
      <point x="1042" y="1571"/>
      <point x="1057" y="1567"/>
      <point x="1064" y="1567" type="curve" smooth="yes"/>
      <point x="1095" y="1567"/>
      <point x="1117" y="1589"/>
      <point x="1117" y="1620" type="curve" smooth="yes"/>
      <point x="1117" y="1638" type="line"/>
      <point x="845" y="2058" type="line" smooth="yes"/>
      <point x="827" y="2086"/>
      <point x="792" y="2096"/>
      <point x="763" y="2096" type="curve" smooth="yes"/>
      <point x="729" y="2096"/>
      <point x="704" y="2080"/>
      <point x="686" y="2062" type="curve"/>
      <point x="415" y="1645" type="line"/>
      <point x="407" y="1626"/>
      <point x="409" y="1621"/>
      <point x="409" y="1620" type="curve" smooth="yes"/>
      <point x="409" y="1571"/>
      <point x="445" y="1567"/>
    </contour>
    <contour>
      <point x="-16" y="0" type="line"/>
      <point x="292" y="0" type="line"/>
      <point x="494" y="436" type="line"/>
      <point x="1031" y="436" type="line"/>
      <point x="1244" y="0" type="line"/>
      <point x="1484" y="0" type="line"/>
      <point x="1526" y="42" type="line"/>
      <point x="851" y="1516" type="line"/>
      <point x="640" y="1516" type="line"/>
    </contour>
    <contour>
      <point x="606" y="713" type="line"/>
      <point x="753" y="1121" type="line"/>
      <point x="913" y="713" type="line"/>
    </contour>
  </outline>
</glyph>
<glyph name="Ccedilla" format="1">
  <advance width="1511"/>
  <unicode hex="00C7"/>
  <outline>
    <contour>
      <point x="727" y="-445" type="curve" smooth="yes"/>
      <point x="838" y="-445"/>
      <point x="985" y="-398"/>
      <point x="985" y="-241" type="curve" smooth="yes"/>
      <point x="985" y="-138"/>
      <point x="912" y="-60"/>
      <point x="807" y="-37" type="curve"/>
      <point x="814" y="-14" type="line"/>
      <point x="843" y="-17"/>
      <point x="874" y="-18"/>
      <point x="905" y="-18" type="curve" smooth="yes"/>
      <point x="1069" y="-18"/>
      <point x="1232" y="24"/>
      <point x="1415" y="122" type="curve" smooth="yes"/>
      <point x="1442" y="136" type="line"/>
      <point x="1442" y="482" type="line"/>
      <point x="1359" y="417" type="line" smooth="yes"/>
      <point x="1232" y="317"/>
      <point x="1065" y="262"/>
      <point x="916" y="262" type="curve" smooth="yes"/>
      <point x="630" y="262"/>
      <point x="376" y="419"/>
      <point x="376" y="754" type="curve" smooth="yes"/>
      <point x="376" y="1064"/>
      <point x="629" y="1249"/>
      <point x="922" y="1249" type="curve" smooth="yes"/>
      <point x="1053" y="1249"/>
      <point x="1206" y="1204"/>
      <point x="1367" y="1119" type="curve" smooth="yes"/>
      <point x="1442" y="1079" type="line"/>
      <point x="1442" y="1414" type="line"/>
      <point x="1411" y="1428" type="line" smooth="yes"/>
      <point x="1252" y="1498"/>
      <point x="1076" y="1537"/>
      <point x="920" y="1537" type="curve" smooth="yes"/>
      <point x="458" y="1537"/>
      <point x="55" y="1239"/>
      <point x="55" y="761" type="curve" smooth="yes"/>
      <point x="55" y="412"/>
      <point x="284" y="117"/>
      <point x="642" y="19" type="curve"/>
      <point x="547" y="-260" type="line"/>
      <point x="618" y="-260" type="line" smooth="yes"/>
      <point x="643" y="-260"/>
      <point x="731" y="-263"/>
      <point x="751" y="-278" type="curve"/>
      <point x="751" y="-281"/>
      <point x="748" y="-295"/>
      <point x="690" y="-295" type="curve" smooth="yes"/>
      <point x="635" y="-295"/>
      <point x="579" y="-277"/>
      <point x="536" y="-277" type="curve" smooth="yes"/>
      <point x="530" y="-277" type="line" smooth="yes"/>
      <point x="514" y="-277"/>
      <point x="472" y="-281"/>
      <point x="472" y="-334" type="curve" smooth="yes"/>
      <point x="472" y="-386"/>
      <point x="499" y="-384"/>
      <point x="499" y="-384" type="curve"/>
      <point x="503" y="-388" type="line"/>
      <point x="559" y="-422"/>
      <point x="641" y="-445"/>
    </contour>
  </outline>
</glyph>
<glyph name="Eacute" format="1">
  <advance width="1060"/>
  <unicode hex="00C9"/>
  <outline>
    <contour>
      <point x="77" y="0" type="line"/>
      <point x="1024" y="0" type="line"/>
      <point x="1024" y="278" type="line"/>
      <point x="370" y="278" type="line"/>
      <point x="370" y="629" type="line"/>
      <point x="997" y="629" type="line"/>
      <point x="997" y="907" type="line"/>
      <point x="370" y="907" type="line"/>
      <point x="370" y="1237" type="line"/>
      <point x="1011" y="1237" type="line"/>
      <point x="1011" y="1515" type="line"/>
      <point x="77" y="1515" type="line"/>
    </contour>
    <contour>
      <point x="408" y="1566" type="curve" smooth="yes"/>
      <point x="443" y="1566"/>
      <point x="462" y="1588"/>
      <point x="475" y="1609" type="curve"/>
      <point x="695" y="1898" type="line"/>
      <point x="725" y="1936"/>
      <point x="739" y="1977"/>
      <point x="739" y="2014" type="curve" smooth="yes"/>
      <point x="739" y="2100"/>
      <point x="667" y="2152"/>
      <point x="598" y="2152" type="curve" smooth="yes"/>
      <point x="532" y="2152"/>
      <point x="474" y="2109"/>
      <point x="450" y="2028" type="curve"/>
      <point x="355" y="1667" type="line" smooth="yes"/>
      <point x="351" y="1653"/>
      <point x="350" y="1644"/>
      <point x="350" y="1632" type="curve" smooth="yes"/>
      <point x="350" y="1626"/>
      <point x="348" y="1566"/>
    </contour>
  </outline>
</glyph>
<glyph name="Ntilde" format="1">
  <advance width="1595"/>
  <unicode hex="00D1"/>
  <outline>
    <contour>
      <point x="75" y="0" type="line"/>
      <point x="359" y="0" type="line"/>
      <point x="359" y="1103" type="line"/>
      <point x="1281" y="0" type="line"/>
      <point x="1520" y="0" type="line"/>
      <point x="1520" y="1515" type="line"/>
      <point x="1233" y="1515" type="line"/>
      <point x="1233" y="401" type="line"/>
      <point x="304" y="1515" type="line"/>
      <point x="75" y="1515" type="line"/>
    </contour>
    <contour>
      <point x="914" y="1566" type="curve" smooth="yes"/>
      <point x="1037" y="1566"/>
      <point x="1121" y="1641"/>
      <point x="1183" y="1734" type="curve" smooth="yes"/>
      <point x="1190" y="1744"/>
      <point x="1196" y="1757"/>
      <point x="1196" y="1777" type="curve" smooth="yes"/>
      <point x="1196" y="1807"/>
      <point x="1167" y="1841"/>
      <point x="1133" y="1841" type="curve" smooth="yes"/>
      <point x="1056" y="1841"/>
      <point x="1065" y="1796"/>
      <point x="1026" y="1796" type="curve" smooth="yes"/>
      <point x="969" y="1796"/>
      <point x="804" y="1884"/>
      <point x="660" y="1884" type="curve" smooth="yes"/>
      <point x="542" y="1884"/>
      <point x="468" y="1807"/>
      <point x="413" y="1717" type="curve" smooth="yes"/>
      <point x="406" y="1707"/>
      <point x="398" y="1685"/>
      <point x="398" y="1673" type="curve" smooth="yes"/>
      <point x="398" y="1636"/>
      <point x="429" y="1609"/>
      <point x="463" y="1609" type="curve" smooth="yes"/>
      <point x="536" y="1609"/>
      <point x="533" y="1654"/>
      <point x="568" y="1654" type="curve" smooth="yes"/>
      <point x="659" y="1654"/>
      <point x="796" y="1566"/>
    </contour>
  </outline>
</glyph>
<glyph name="Ograve" format="1">
  <advance width="1757"/>
  <unicode hex="00D2"/>
  <outline>
    <contour>
      <point x="1004" y="1565" type="curve" smooth="yes"/>
      <point x="1056" y="1565"/>
      <point x="1063" y="1618"/>
      <point x="1063" y="1630" type="curve" smooth="yes"/>
      <point x="1063" y="1634"/>
      <point x="1064" y="1648"/>
      <point x="1060" y="1662" type="curve" smooth="yes"/>
      <point x="974" y="2040" type="line"/>
      <point x="949" y="2118"/>
      <point x="892" y="2164"/>
      <point x="829" y="2164" type="curve" smooth="yes"/>
      <point x="757" y="2164"/>
      <point x="685" y="2108"/>
      <point x="685" y="2023" type="curve" smooth="yes"/>
      <point x="685" y="1984"/>
      <point x="700" y="1949"/>
      <point x="727" y="1913" type="curve"/>
      <point x="936" y="1605" type="line" smooth="yes"/>
      <point x="951" y="1583"/>
      <point x="973" y="1565"/>
    </contour>
    <contour>
      <point x="877" y="264" type="curve" smooth="yes"/>
      <point x="592" y="264"/>
      <point x="356" y="484"/>
      <point x="356" y="758" type="curve" smooth="yes"/>
      <point x="356" y="1032"/>
      <point x="592" y="1253"/>
      <point x="877" y="1253" type="curve" smooth="yes"/>
      <point x="1162" y="1253"/>
      <point x="1400" y="1032"/>
      <point x="1400" y="758" type="curve" smooth="yes"/>
      <point x="1400" y="484"/>
      <point x="1162" y="264"/>
    </contour>
    <contour>
      <point x="877" y="-21" type="curve" smooth="yes"/>
      <point x="1330" y="-21"/>
      <point x="1701" y="330"/>
      <point x="1701" y="758" type="curve" smooth="yes"/>
      <point x="1701" y="1187"/>
      <point x="1329" y="1535"/>
      <point x="877" y="1535" type="curve" smooth="yes"/>
      <point x="424" y="1535"/>
      <point x="54" y="1187"/>
      <point x="54" y="758" type="curve" smooth="yes"/>
      <point x="54" y="330"/>
      <point x="423" y="-21"/>
    </contour>
  </outline>
</glyph>
<glyph name="Ocircumflex" format="1">
  <advance width="1757"/>
  <unicode hex="00D4"/>
  <outline>
    <contour>
      <point x="577" y="1565" type="curve" smooth="yes"/>
      <point x="578" y="1565"/>
      <point x="597" y="1569"/>
      <point x="598" y="1569" type="curve" smooth="yes"/>
      <point x="876" y="1761" type="line"/>
      <point x="1141" y="1577" type="line" smooth="yes"/>
      <point x="1158" y="1565"/>
      <point x="1176" y="1565"/>
      <point x="1177" y="1565" type="curve" smooth="yes"/>
      <point x="1226" y="1565"/>
      <point x="1230" y="1601"/>
      <point x="1230" y="1615" type="curve" smooth="yes"/>
      <point x="1230" y="1620" type="line" smooth="yes"/>
      <point x="1230" y="1637" type="line"/>
      <point x="958" y="2057" type="line" smooth="yes"/>
      <point x="942" y="2081"/>
      <point x="909" y="2096"/>
      <point x="876" y="2096" type="curve" smooth="yes"/>
      <point x="840" y="2096"/>
      <point x="816" y="2081"/>
      <point x="798" y="2060" type="curve"/>
      <point x="535" y="1655" type="line" smooth="yes"/>
      <point x="535" y="1655"/>
      <point x="522" y="1662"/>
      <point x="522" y="1620" type="curve" smooth="yes"/>
      <point x="522" y="1588"/>
      <point x="545" y="1565"/>
    </contour>
    <contour>
      <point x="877" y="263" type="curve" smooth="yes"/>
      <point x="592" y="263"/>
      <point x="356" y="485"/>
      <point x="356" y="759" type="curve" smooth="yes"/>
      <point x="356" y="1033"/>
      <point x="592" y="1254"/>
      <point x="877" y="1254" type="curve" smooth="yes"/>
      <point x="1162" y="1254"/>
      <point x="1400" y="1033"/>
      <point x="1400" y="759" type="curve" smooth="yes"/>
      <point x="1400" y="485"/>
      <point x="1162" y="263"/>
    </contour>
    <contour>
      <point x="877" y="-19" type="curve" smooth="yes"/>
      <point x="1329" y="-19"/>
      <point x="1701" y="330"/>
      <point x="1701" y="759" type="curve" smooth="yes"/>
      <point x="1701" y="1187"/>
      <point x="1329" y="1536"/>
      <point x="877" y="1536" type="curve" smooth="yes"/>
      <point x="424" y="1536"/>
      <point x="54" y="1187"/>
      <point x="54" y="759" type="curve" smooth="yes"/>
      <point x="54" y="330"/>
      <point x="423" y="-19"/>
    </contour>
  </outline>
</glyph>
<glyph name="Oslash" format="1">
  <advance width="1751"/>
  <unicode hex="00D8"/>
  <outline>
    <contour>
      <point x="406" y="-195" type="line"/>
      <point x="554" y="48" type="line"/>
      <point x="652" y="6"/>
      <point x="762" y="-19"/>
      <point x="877" y="-19" type="curve" smooth="yes"/>
      <point x="1329" y="-19"/>
      <point x="1701" y="330"/>
      <point x="1701" y="760" type="curve" smooth="yes"/>
      <point x="1701" y="1000"/>
      <point x="1585" y="1216"/>
      <point x="1402" y="1359" type="curve"/>
      <point x="1540" y="1573" type="line"/>
      <point x="1360" y="1693" type="line"/>
      <point x="1219" y="1461" type="line"/>
      <point x="1115" y="1509"/>
      <point x="999" y="1536"/>
      <point x="877" y="1536" type="curve" smooth="yes"/>
      <point x="423" y="1536"/>
      <point x="54" y="1185"/>
      <point x="54" y="757" type="curve" smooth="yes"/>
      <point x="54" y="509"/>
      <point x="176" y="290"/>
      <point x="367" y="146" type="curve"/>
      <point x="223" y="-77" type="line"/>
    </contour>
    <contour>
      <point x="520" y="310" type="line"/>
      <point x="420" y="410"/>
      <point x="356" y="551"/>
      <point x="356" y="708" type="curve" smooth="yes"/>
      <point x="356" y="1011"/>
      <point x="592" y="1253"/>
      <point x="877" y="1253" type="curve" smooth="yes"/>
      <point x="945" y="1253"/>
      <point x="1009" y="1240"/>
      <point x="1069" y="1215" type="curve"/>
    </contour>
    <contour>
      <point x="877" y="262" type="curve" smooth="yes"/>
      <point x="816" y="262"/>
      <point x="758" y="273"/>
      <point x="703" y="294" type="curve"/>
      <point x="1248" y="1193" type="line"/>
      <point x="1342" y="1094"/>
      <point x="1400" y="960"/>
      <point x="1400" y="810" type="curve" smooth="yes"/>
      <point x="1400" y="507"/>
      <point x="1162" y="262"/>
    </contour>
  </outline>
</glyph>
<glyph name="Uacute" format="1">
  <advance width="1486"/>
  <unicode hex="00DA"/>
  <outline>
    <contour>
      <point x="744" y="-20" type="curve" smooth="yes"/>
      <point x="1071" y="-20"/>
      <point x="1407" y="186"/>
      <point x="1407" y="596" type="curve" smooth="yes"/>
      <point x="1407" y="1515" type="line"/>
      <point x="1113" y="1515" type="line"/>
      <point x="1113" y="614" type="line" smooth="yes"/>
      <point x="1113" y="372"/>
      <point x="929" y="256"/>
      <point x="741" y="256" type="curve" smooth="yes"/>
      <point x="553" y="256"/>
      <point x="372" y="371"/>
      <point x="372" y="614" type="curve" smooth="yes"/>
      <point x="372" y="1515" type="line"/>
      <point x="78" y="1515" type="line"/>
      <point x="78" y="595" type="line" smooth="yes"/>
      <point x="78" y="186"/>
      <point x="417" y="-20"/>
    </contour>
    <contour>
      <point x="608" y="1566" type="curve" smooth="yes"/>
      <point x="644" y="1566"/>
      <point x="660" y="1587"/>
      <point x="675" y="1611" type="curve"/>
      <point x="894" y="1899" type="line" smooth="yes"/>
      <point x="922" y="1935"/>
      <point x="938" y="1974"/>
      <point x="938" y="2015" type="curve" smooth="yes"/>
      <point x="938" y="2101"/>
      <point x="865" y="2153"/>
      <point x="796" y="2153" type="curve" smooth="yes"/>
      <point x="732" y="2153"/>
      <point x="672" y="2109"/>
      <point x="649" y="2029" type="curve"/>
      <point x="552" y="1666" type="line" smooth="yes"/>
      <point x="549" y="1653"/>
      <point x="547" y="1643"/>
      <point x="547" y="1632" type="curve" smooth="yes"/>
      <point x="547" y="1617"/>
      <point x="558" y="1566"/>
    </contour>
  </outline>
</glyph>
<glyph name="Udieresis" format="1">
  <advance width="1486"/>
  <unicode hex="00DC"/>
  <outline>
    <contour>
      <point x="744" y="-20" type="curve" smooth="yes"/>
      <point x="1071" y="-20"/>
      <point x="1407" y="186"/>
      <point x="1407" y="596" type="curve" smooth="yes"/>
      <point x="1407" y="1514" type="line"/>
      <point x="1113" y="1514" type="line"/>
      <point x="1113" y="612" type="line" smooth="yes"/>
      <point x="1113" y="371"/>
      <point x="929" y="255"/>
      <point x="741" y="255" type="curve" smooth="yes"/>
      <point x="553" y="255"/>
      <point x="372" y="370"/>
      <point x="372" y="612" type="curve" smooth="yes"/>
      <point x="372" y="1514" type="line"/>
      <point x="78" y="1514" type="line"/>
      <point x="78" y="595" type="line" smooth="yes"/>
      <point x="78" y="186"/>
      <point x="417" y="-20"/>
    </contour>
    <contour>
      <point x="554" y="1565" type="curve" smooth="yes"/>
      <point x="632" y="1565"/>
      <point x="723" y="1619"/>
      <point x="723" y="1730" type="curve" smooth="yes"/>
      <point x="723" y="1838"/>
      <point x="636" y="1901"/>
      <point x="554" y="1901" type="curve" smooth="yes"/>
      <point x="471" y="1901"/>
      <point x="387" y="1837"/>
      <point x="387" y="1730" type="curve" smooth="yes"/>
      <point x="387" y="1621"/>
      <point x="475" y="1565"/>
    </contour>
    <contour>
      <point x="931" y="1565" type="curve" smooth="yes"/>
      <point x="1010" y="1565"/>
      <point x="1098" y="1620"/>
      <point x="1098" y="1730" type="curve" smooth="yes"/>
      <point x="1098" y="1837"/>
      <point x="1014" y="1901"/>
      <point x="931" y="1901" type="curve" smooth="yes"/>
      <point x="849" y="1901"/>
      <point x="762" y="1838"/>
      <point x="762" y="1730" type="curve" smooth="yes"/>
      <point x="762" y="1620"/>
      <point x="853" y="1565"/>
    </contour>
  </outline>
</glyph>
<glyph name="germandbls" format="1">
  <advance width="1190"/>
  <unicode hex="00DF"/>
  <outline>
    <contour>
      <point x="76" y="-3" type="line"/>
      <point x="367" y="-3" type="line"/>
      <point x="367" y="1028" type="line" smooth="yes"/>
      <point x="367" y="1203"/>
      <point x="458" y="1256"/>
      <point x="548" y="1256" type="curve" smooth="yes"/>
      <point x="707" y="1256"/>
      <point x="770" y="1154"/>
      <point x="770" y="1050" type="curve" smooth="yes"/>
      <point x="770" y="955"/>
      <point x="705" y="881"/>
      <point x="600" y="880" type="curve"/>
      <point x="488" y="885" type="line"/>
      <point x="488" y="655" type="line"/>
      <point x="630" y="655" type="line" smooth="yes"/>
      <point x="775" y="655"/>
      <point x="830" y="548"/>
      <point x="830" y="455" type="curve" smooth="yes"/>
      <point x="830" y="277"/>
      <point x="669" y="275"/>
      <point x="470" y="275" type="curve" smooth="yes"/>
      <point x="419" y="275" type="line"/>
      <point x="419" y="0" type="line"/>
      <point x="470" y="0" type="line" smooth="yes"/>
      <point x="875" y="0"/>
      <point x="1132" y="107"/>
      <point x="1132" y="437" type="curve" smooth="yes"/>
      <point x="1132" y="498"/>
      <point x="1109" y="697"/>
      <point x="901" y="799" type="curve"/>
      <point x="998" y="869"/>
      <point x="1046" y="968"/>
      <point x="1046" y="1068" type="curve" smooth="yes"/>
      <point x="1046" y="1294"/>
      <point x="850" y="1518"/>
      <point x="543" y="1518" type="curve" smooth="yes"/>
      <point x="307" y="1518"/>
      <point x="76" y="1365"/>
      <point x="76" y="1029" type="curve" smooth="yes"/>
    </contour>
  </outline>
</glyph>
<glyph name="aacute" format="1">
  <advance width="958"/>
  <unicode hex="00E1"/>
  <outline>
    <contour>
      <point x="830" y="-28" type="line"/>
      <point x="986" y="176" type="line"/>
      <point x="935" y="201" type="line" smooth="yes"/>
      <point x="843" y="245"/>
      <point x="831" y="230"/>
      <point x="831" y="302" type="curve" smooth="yes"/>
      <point x="831" y="675" type="line" smooth="yes"/>
      <point x="831" y="919"/>
      <point x="608" y="1004"/>
      <point x="429" y="1004" type="curve" smooth="yes"/>
      <point x="269" y="1004"/>
      <point x="117" y="915"/>
      <point x="67" y="863" type="curve" smooth="yes"/>
      <point x="46" y="840" type="line"/>
      <point x="132" y="580" type="line"/>
      <point x="191" y="636" type="line" smooth="yes"/>
      <point x="252" y="695"/>
      <point x="337" y="739"/>
      <point x="433" y="739" type="curve" smooth="yes"/>
      <point x="507" y="739"/>
      <point x="552" y="696"/>
      <point x="552" y="594" type="curve" smooth="yes"/>
      <point x="552" y="577" type="line"/>
      <point x="425" y="549" type="line"/>
      <point x="162" y="487"/>
      <point x="35" y="373"/>
      <point x="35" y="246" type="curve" smooth="yes"/>
      <point x="35" y="53"/>
      <point x="190" y="-21"/>
      <point x="354" y="-21" type="curve" smooth="yes"/>
      <point x="434" y="-21"/>
      <point x="549" y="13"/>
      <point x="631" y="102" type="curve"/>
      <point x="679" y="51"/>
      <point x="741" y="13"/>
      <point x="791" y="-10" type="curve" smooth="yes"/>
    </contour>
    <contour>
      <point x="364" y="1045" type="curve" smooth="yes"/>
      <point x="407" y="1045"/>
      <point x="419" y="1072"/>
      <point x="430" y="1089" type="curve"/>
      <point x="650" y="1378" type="line" smooth="yes"/>
      <point x="678" y="1416"/>
      <point x="694" y="1455"/>
      <point x="694" y="1494" type="curve" smooth="yes"/>
      <point x="694" y="1581"/>
      <point x="621" y="1632"/>
      <point x="552" y="1632" type="curve" smooth="yes"/>
      <point x="488" y="1632"/>
      <point x="428" y="1588"/>
      <point x="405" y="1508" type="curve"/>
      <point x="308" y="1146" type="line" smooth="yes"/>
      <point x="304" y="1133"/>
      <point x="303" y="1123"/>
      <point x="303" y="1112" type="curve" smooth="yes"/>
      <point x="303" y="1103"/>
      <point x="307" y="1045"/>
    </contour>
    <contour>
      <point x="381" y="168" type="curve" smooth="yes"/>
      <point x="364" y="168"/>
      <point x="351" y="171"/>
      <point x="344" y="178" type="curve" smooth="yes"/>
      <point x="336" y="186"/>
      <point x="326" y="204"/>
      <point x="326" y="245" type="curve" smooth="yes"/>
      <point x="326" y="309"/>
      <point x="420" y="351"/>
      <point x="551" y="390" type="curve"/>
      <point x="551" y="242" type="line"/>
      <point x="503" y="194"/>
      <point x="428" y="168"/>
    </contour>
  </outline>
</glyph>
<glyph name="acircumflex" format="1">
  <advance width="958"/>
  <unicode hex="00E2"/>
  <outline>
    <contour>
      <point x="831" y="-27" type="line"/>
      <point x="986" y="179" type="line"/>
      <point x="934" y="203" type="line" smooth="yes"/>
      <point x="842" y="246"/>
      <point x="831" y="231"/>
      <point x="831" y="303" type="curve" smooth="yes"/>
      <point x="831" y="674" type="line" smooth="yes"/>
      <point x="831" y="919"/>
      <point x="609" y="1006"/>
      <point x="429" y="1006" type="curve" smooth="yes"/>
      <point x="269" y="1006"/>
      <point x="118" y="917"/>
      <point x="67" y="862" type="curve" smooth="yes"/>
      <point x="46" y="840" type="line"/>
      <point x="132" y="581" type="line"/>
      <point x="190" y="637" type="line" smooth="yes"/>
      <point x="252" y="696"/>
      <point x="337" y="741"/>
      <point x="433" y="741" type="curve" smooth="yes"/>
      <point x="507" y="741"/>
      <point x="552" y="697"/>
      <point x="552" y="595" type="curve" smooth="yes"/>
      <point x="552" y="579" type="line"/>
      <point x="425" y="551" type="line"/>
      <point x="162" y="489"/>
      <point x="35" y="374"/>
      <point x="35" y="245" type="curve" smooth="yes"/>
      <point x="35" y="53"/>
      <point x="191" y="-21"/>
      <point x="354" y="-21" type="curve" smooth="yes"/>
      <point x="435" y="-21"/>
      <point x="547" y="14"/>
      <point x="630" y="103" type="curve"/>
      <point x="677" y="53"/>
      <point x="742" y="14"/>
      <point x="792" y="-9" type="curve" smooth="yes"/>
    </contour>
    <contour>
      <point x="194" y="1047" type="curve" smooth="yes"/>
      <point x="199" y="1047" type="line" smooth="yes"/>
      <point x="212" y="1047"/>
      <point x="219" y="1051"/>
      <point x="226" y="1053" type="curve"/>
      <point x="498" y="1243" type="line"/>
      <point x="771" y="1053" type="line"/>
      <point x="777" y="1051"/>
      <point x="792" y="1047"/>
      <point x="799" y="1047" type="curve" smooth="yes"/>
      <point x="830" y="1047"/>
      <point x="852" y="1069"/>
      <point x="852" y="1100" type="curve" smooth="yes"/>
      <point x="852" y="1117" type="line"/>
      <point x="579" y="1540" type="line"/>
      <point x="556" y="1570"/>
      <point x="524" y="1576"/>
      <point x="498" y="1576" type="curve" smooth="yes"/>
      <point x="465" y="1576"/>
      <point x="438" y="1561"/>
      <point x="420" y="1541" type="curve"/>
      <point x="157" y="1135" type="line"/>
      <point x="157" y="1135"/>
      <point x="144" y="1142"/>
      <point x="144" y="1100" type="curve" smooth="yes"/>
      <point x="144" y="1051"/>
      <point x="180" y="1047"/>
    </contour>
    <contour>
      <point x="380" y="168" type="curve" smooth="yes"/>
      <point x="364" y="168"/>
      <point x="351" y="172"/>
      <point x="344" y="179" type="curve" smooth="yes"/>
      <point x="336" y="187"/>
      <point x="326" y="204"/>
      <point x="326" y="244" type="curve" smooth="yes"/>
      <point x="326" y="311"/>
      <point x="419" y="352"/>
      <point x="551" y="391" type="curve"/>
      <point x="551" y="244" type="line"/>
      <point x="503" y="195"/>
      <point x="427" y="168"/>
    </contour>
  </outline>
</glyph>
<glyph name="atilde" format="1">
  <advance width="958"/>
  <unicode hex="00E3"/>
  <outline>
    <contour>
      <point x="831" y="-29" type="line"/>
      <point x="986" y="177" type="line"/>
      <point x="935" y="201" type="line" smooth="yes"/>
      <point x="843" y="245"/>
      <point x="831" y="230"/>
      <point x="831" y="303" type="curve" smooth="yes"/>
      <point x="831" y="675" type="line" smooth="yes"/>
      <point x="831" y="919"/>
      <point x="609" y="1006"/>
      <point x="429" y="1006" type="curve" smooth="yes"/>
      <point x="269" y="1006"/>
      <point x="118" y="917"/>
      <point x="67" y="862" type="curve" smooth="yes"/>
      <point x="46" y="840" type="line"/>
      <point x="132" y="581" type="line"/>
      <point x="190" y="637" type="line" smooth="yes"/>
      <point x="252" y="696"/>
      <point x="337" y="740"/>
      <point x="433" y="740" type="curve" smooth="yes"/>
      <point x="507" y="740"/>
      <point x="552" y="696"/>
      <point x="552" y="595" type="curve" smooth="yes"/>
      <point x="552" y="579" type="line"/>
      <point x="425" y="550" type="line" smooth="yes"/>
      <point x="162" y="489"/>
      <point x="35" y="374"/>
      <point x="35" y="246" type="curve" smooth="yes"/>
      <point x="35" y="53"/>
      <point x="191" y="-20"/>
      <point x="354" y="-20" type="curve" smooth="yes"/>
      <point x="435" y="-20"/>
      <point x="547" y="13"/>
      <point x="630" y="103" type="curve"/>
      <point x="678" y="52"/>
      <point x="741" y="13"/>
      <point x="791" y="-10" type="curve" smooth="yes"/>
    </contour>
    <contour>
      <point x="615" y="1047" type="curve" smooth="yes"/>
      <point x="738" y="1047"/>
      <point x="822" y="1121"/>
      <point x="884" y="1213" type="curve" smooth="yes"/>
      <point x="891" y="1223"/>
      <point x="897" y="1241"/>
      <point x="897" y="1258" type="curve" smooth="yes"/>
      <point x="897" y="1286"/>
      <point x="872" y="1322"/>
      <point x="834" y="1322" type="curve" smooth="yes"/>
      <point x="756" y="1322"/>
      <point x="766" y="1276"/>
      <point x="727" y="1276" type="curve" smooth="yes"/>
      <point x="670" y="1276"/>
      <point x="505" y="1365"/>
      <point x="361" y="1365" type="curve" smooth="yes"/>
      <point x="242" y="1365"/>
      <point x="168" y="1288"/>
      <point x="113" y="1197" type="curve" smooth="yes"/>
      <point x="106" y="1187"/>
      <point x="99" y="1166"/>
      <point x="99" y="1153" type="curve" smooth="yes"/>
      <point x="99" y="1114"/>
      <point x="134" y="1089"/>
      <point x="164" y="1089" type="curve" smooth="yes"/>
      <point x="237" y="1089"/>
      <point x="235" y="1135"/>
      <point x="269" y="1135" type="curve" smooth="yes"/>
      <point x="360" y="1135"/>
      <point x="497" y="1047"/>
    </contour>
    <contour>
      <point x="381" y="168" type="curve" smooth="yes"/>
      <point x="364" y="168"/>
      <point x="351" y="172"/>
      <point x="344" y="179" type="curve" smooth="yes"/>
      <point x="336" y="187"/>
      <point x="326" y="204"/>
      <point x="326" y="245" type="curve" smooth="yes"/>
      <point x="326" y="310"/>
      <point x="419" y="351"/>
      <point x="551" y="391" type="curve"/>
      <point x="551" y="243" type="line"/>
      <point x="503" y="195"/>
      <point x="428" y="168"/>
    </contour>
  </outline>
</glyph>
<glyph name="aring" format="1">
  <advance width="958"/>
  <unicode hex="00E5"/>
  <outline>
    <contour>
      <point x="831" y="-29" type="line"/>
      <point x="986" y="177" type="line"/>
      <point x="935" y="202" type="line" smooth="yes"/>
      <point x="843" y="246"/>
      <point x="831" y="231"/>
      <point x="831" y="303" type="curve" smooth="yes"/>
      <point x="831" y="676" type="line" smooth="yes"/>
      <point x="831" y="920"/>
      <point x="609" y="1007"/>
      <point x="429" y="1007" type="curve" smooth="yes"/>
      <point x="269" y="1007"/>
      <point x="118" y="917"/>
      <point x="67" y="862" type="curve" smooth="yes"/>
      <point x="46" y="840" type="line"/>
      <point x="132" y="583" type="line"/>
      <point x="190" y="638" type="line" smooth="yes"/>
      <point x="252" y="696"/>
      <point x="337" y="740"/>
      <point x="433" y="740" type="curve" smooth="yes"/>
      <point x="507" y="740"/>
      <point x="552" y="697"/>
      <point x="552" y="595" type="curve" smooth="yes"/>
      <point x="552" y="579" type="line"/>
      <point x="425" y="550" type="line" smooth="yes"/>
      <point x="162" y="489"/>
      <point x="35" y="374"/>
      <point x="35" y="246" type="curve" smooth="yes"/>
      <point x="35" y="54"/>
      <point x="191" y="-20"/>
      <point x="354" y="-20" type="curve" smooth="yes"/>
      <point x="435" y="-20"/>
      <point x="547" y="13"/>
      <point x="630" y="103" type="curve"/>
      <point x="678" y="52"/>
      <point x="741" y="13"/>
      <point x="791" y="-10" type="curve" smooth="yes"/>
    </contour>
    <contour>
      <point x="381" y="168" type="curve" smooth="yes"/>
      <point x="364" y="168"/>
      <point x="351" y="172"/>
      <point x="344" y="179" type="curve" smooth="yes"/>
      <point x="336" y="187"/>
      <point x="326" y="204"/>
      <point x="326" y="245" type="curve" smooth="yes"/>
      <point x="326" y="310"/>
      <point x="419" y="352"/>
      <point x="551" y="391" type="curve"/>
      <point x="551" y="243" type="line"/>
      <point x="503" y="195"/>
      <point x="428" y="168"/>
    </contour>
    <contour>
      <point x="499" y="1250" type="curve" smooth="yes"/>
      <point x="457" y="1250"/>
      <point x="425" y="1274"/>
      <point x="425" y="1315" type="curve" smooth="yes"/>
      <point x="425" y="1358"/>
      <point x="454" y="1378"/>
      <point x="498" y="1378" type="curve" smooth="yes"/>
      <point x="542" y="1378"/>
      <point x="570" y="1358"/>
      <point x="570" y="1315" type="curve" smooth="yes"/>
      <point x="570" y="1272"/>
      <point x="540" y="1250"/>
    </contour>
    <contour>
      <point x="498" y="1046" type="curve" smooth="yes"/>
      <point x="637" y="1046"/>
      <point x="788" y="1136"/>
      <point x="788" y="1315" type="curve" smooth="yes"/>
      <point x="788" y="1495"/>
      <point x="636" y="1582"/>
      <point x="499" y="1582" type="curve" smooth="yes"/>
      <point x="361" y="1582"/>
      <point x="209" y="1495"/>
      <point x="209" y="1317" type="curve" smooth="yes"/>
      <point x="209" y="1137"/>
      <point x="360" y="1046"/>
    </contour>
  </outline>
</glyph>
<glyph name="ccedilla" format="1">
  <advance width="964"/>
  <unicode hex="00E7"/>
  <outline>
    <contour>
      <point x="457" y="-445" type="curve" smooth="yes"/>
      <point x="371" y="-445"/>
      <point x="290" y="-424"/>
      <point x="233" y="-388" type="curve" smooth="yes"/>
      <point x="229" y="-385" type="line"/>
      <point x="229" y="-385"/>
      <point x="202" y="-377"/>
      <point x="202" y="-334" type="curve" smooth="yes"/>
      <point x="202" y="-283"/>
      <point x="239" y="-278"/>
      <point x="257" y="-278" type="curve" smooth="yes"/>
      <point x="266" y="-278" type="line" smooth="yes"/>
      <point x="307" y="-278"/>
      <point x="363" y="-295"/>
      <point x="419" y="-295" type="curve" smooth="yes"/>
      <point x="477" y="-295"/>
      <point x="480" y="-282"/>
      <point x="480" y="-278" type="curve"/>
      <point x="461" y="-264"/>
      <point x="374" y="-261"/>
      <point x="348" y="-261" type="curve" smooth="yes"/>
      <point x="277" y="-261" type="line"/>
      <point x="372" y="21" type="line"/>
      <point x="166" y="96"/>
      <point x="30" y="275"/>
      <point x="30" y="502" type="curve" smooth="yes"/>
      <point x="30" y="807"/>
      <point x="291" y="1017"/>
      <point x="585" y="1017" type="curve" smooth="yes"/>
      <point x="679" y="1017"/>
      <point x="797" y="996"/>
      <point x="867" y="953" type="curve" smooth="yes"/>
      <point x="891" y="938" type="line"/>
      <point x="891" y="657" type="line"/>
      <point x="815" y="700" type="line" smooth="yes"/>
      <point x="729" y="749"/>
      <point x="695" y="760"/>
      <point x="601" y="760" type="curve" smooth="yes"/>
      <point x="419" y="760"/>
      <point x="316" y="628"/>
      <point x="316" y="500" type="curve" smooth="yes"/>
      <point x="316" y="370"/>
      <point x="412" y="233"/>
      <point x="604" y="233" type="curve" smooth="yes"/>
      <point x="673" y="233"/>
      <point x="764" y="272"/>
      <point x="832" y="313" type="curve"/>
      <point x="914" y="313" type="line"/>
      <point x="914" y="66" type="line"/>
      <point x="890" y="51" type="line" smooth="yes"/>
      <point x="867" y="37"/>
      <point x="843" y="26"/>
      <point x="818" y="17" type="curve"/>
      <point x="729" y="-6" type="line"/>
      <point x="664" y="-18"/>
      <point x="609" y="-20"/>
      <point x="592" y="-20" type="curve" smooth="yes"/>
      <point x="576" y="-20"/>
      <point x="559" y="-19"/>
      <point x="543" y="-18" type="curve"/>
      <point x="537" y="-37" type="line"/>
      <point x="641" y="-60"/>
      <point x="714" y="-140"/>
      <point x="714" y="-242" type="curve" smooth="yes"/>
      <point x="714" y="-399"/>
      <point x="567" y="-445"/>
    </contour>
  </outline>
</glyph>
<glyph name="eacute" format="1">
  <advance width="1051"/>
  <unicode hex="00E9"/>
  <outline>
    <contour>
      <point x="615" y="-19" type="curve" smooth="yes"/>
      <point x="742" y="-19"/>
      <point x="856" y="13"/>
      <point x="956" y="79" type="curve" smooth="yes"/>
      <point x="979" y="95" type="line"/>
      <point x="979" y="372" type="line"/>
      <point x="900" y="321" type="line" smooth="yes"/>
      <point x="808" y="262"/>
      <point x="713" y="232"/>
      <point x="614" y="232" type="curve" smooth="yes"/>
      <point x="447" y="232"/>
      <point x="346" y="315"/>
      <point x="326" y="447" type="curve"/>
      <point x="997" y="447" type="line"/>
      <point x="997" y="519" type="line" smooth="yes"/>
      <point x="997" y="796"/>
      <point x="847" y="1015"/>
      <point x="532" y="1015" type="curve" smooth="yes"/>
      <point x="236" y="1015"/>
      <point x="29" y="781"/>
      <point x="29" y="513" type="curve" smooth="yes"/>
      <point x="29" y="201"/>
      <point x="265" y="-19"/>
    </contour>
    <contour>
      <point x="377" y="1046" type="curve" smooth="yes"/>
      <point x="418" y="1046"/>
      <point x="433" y="1073"/>
      <point x="444" y="1090" type="curve"/>
      <point x="664" y="1379" type="line" smooth="yes"/>
      <point x="693" y="1416"/>
      <point x="710" y="1456"/>
      <point x="710" y="1495" type="curve" smooth="yes"/>
      <point x="710" y="1582"/>
      <point x="634" y="1633"/>
      <point x="567" y="1633" type="curve" smooth="yes"/>
      <point x="504" y="1633"/>
      <point x="444" y="1590"/>
      <point x="419" y="1509" type="curve"/>
      <point x="324" y="1147" type="line" smooth="yes"/>
      <point x="320" y="1133"/>
      <point x="319" y="1124"/>
      <point x="319" y="1112" type="curve" smooth="yes"/>
      <point x="319" y="1105" type="line" smooth="yes"/>
      <point x="319" y="1088"/>
      <point x="324" y="1046"/>
    </contour>
    <contour>
      <point x="344" y="668" type="line"/>
      <point x="376" y="727"/>
      <point x="439" y="765"/>
      <point x="538" y="765" type="curve" smooth="yes"/>
      <point x="633" y="765"/>
      <point x="705" y="726"/>
      <point x="726" y="668" type="curve"/>
    </contour>
  </outline>
</glyph>
<glyph name="ecircumflex" format="1">
  <advance width="1051"/>
  <unicode hex="00EA"/>
  <outline>
    <contour>
      <point x="196" y="1044" type="curve" smooth="yes"/>
      <point x="205" y="1044"/>
      <point x="244" y="1059"/>
      <point x="246" y="1057" type="curve"/>
      <point x="514" y="1242" type="line"/>
      <point x="785" y="1054" type="line"/>
      <point x="800" y="1047"/>
      <point x="812" y="1047"/>
      <point x="812" y="1047" type="curve" smooth="yes"/>
      <point x="828" y="1047"/>
      <point x="866" y="1060"/>
      <point x="866" y="1100" type="curve" smooth="yes"/>
      <point x="866" y="1117" type="line"/>
      <point x="593" y="1539" type="line" smooth="yes"/>
      <point x="574" y="1568"/>
      <point x="539" y="1576"/>
      <point x="514" y="1576" type="curve" smooth="yes"/>
      <point x="489" y="1576"/>
      <point x="454" y="1569"/>
      <point x="435" y="1540" type="curve" smooth="yes"/>
      <point x="149" y="1099" type="line"/>
      <point x="140" y="1083"/>
      <point x="158" y="1100"/>
      <point x="158" y="1100" type="curve"/>
      <point x="158" y="1053"/>
      <point x="179" y="1044"/>
    </contour>
    <contour>
      <point x="615" y="-20" type="curve" smooth="yes"/>
      <point x="742" y="-20"/>
      <point x="857" y="15"/>
      <point x="956" y="79" type="curve" smooth="yes"/>
      <point x="979" y="94" type="line"/>
      <point x="979" y="375" type="line"/>
      <point x="899" y="321" type="line" smooth="yes"/>
      <point x="808" y="259"/>
      <point x="713" y="232"/>
      <point x="614" y="232" type="curve" smooth="yes"/>
      <point x="447" y="232"/>
      <point x="346" y="314"/>
      <point x="326" y="447" type="curve"/>
      <point x="997" y="447" type="line"/>
      <point x="997" y="517" type="line" smooth="yes"/>
      <point x="997" y="795"/>
      <point x="847" y="1016"/>
      <point x="532" y="1016" type="curve" smooth="yes"/>
      <point x="236" y="1016"/>
      <point x="29" y="781"/>
      <point x="29" y="514" type="curve" smooth="yes"/>
      <point x="29" y="201"/>
      <point x="265" y="-20"/>
    </contour>
    <contour>
      <point x="344" y="669" type="line"/>
      <point x="377" y="727"/>
      <point x="439" y="764"/>
      <point x="538" y="764" type="curve" smooth="yes"/>
      <point x="634" y="764"/>
      <point x="705" y="726"/>
      <point x="726" y="669" type="curve"/>
    </contour>
  </outline>
</glyph>
<glyph name="edieresis" format="1">
  <advance width="1051"/>
  <unicode hex="00EB"/>
  <outline>
    <contour>
      <point x="615" y="-19" type="curve" smooth="yes"/>
      <point x="742" y="-19"/>
      <point x="857" y="14"/>
      <point x="956" y="80" type="curve" smooth="yes"/>
      <point x="979" y="96" type="line"/>
      <point x="979" y="376" type="line"/>
      <point x="899" y="322" type="line" smooth="yes"/>
      <point x="808" y="260"/>
      <point x="713" y="232"/>
      <point x="614" y="232" type="curve" smooth="yes"/>
      <point x="447" y="232"/>
      <point x="346" y="315"/>
      <point x="326" y="447" type="curve"/>
      <point x="997" y="447" type="line"/>
      <point x="997" y="518" type="line" smooth="yes"/>
      <point x="997" y="796"/>
      <point x="847" y="1016"/>
      <point x="532" y="1016" type="curve" smooth="yes"/>
      <point x="236" y="1016"/>
      <point x="29" y="782"/>
      <point x="29" y="514" type="curve" smooth="yes"/>
      <point x="29" y="201"/>
      <point x="265" y="-19"/>
    </contour>
    <contour>
      <point x="324" y="1047" type="curve" smooth="yes"/>
      <point x="403" y="1047"/>
      <point x="494" y="1100"/>
      <point x="494" y="1211" type="curve" smooth="yes"/>
      <point x="494" y="1321"/>
      <point x="407" y="1382"/>
      <point x="324" y="1382" type="curve" smooth="yes"/>
      <point x="242" y="1382"/>
      <point x="156" y="1321"/>
      <point x="156" y="1211" type="curve" smooth="yes"/>
      <point x="156" y="1102"/>
      <point x="246" y="1047"/>
    </contour>
    <contour>
      <point x="702" y="1047" type="curve" smooth="yes"/>
      <point x="780" y="1047"/>
      <point x="870" y="1101"/>
      <point x="870" y="1211" type="curve" smooth="yes"/>
      <point x="870" y="1321"/>
      <point x="784" y="1382"/>
      <point x="702" y="1382" type="curve" smooth="yes"/>
      <point x="620" y="1382"/>
      <point x="532" y="1321"/>
      <point x="532" y="1211" type="curve" smooth="yes"/>
      <point x="532" y="1101"/>
      <point x="623" y="1047"/>
    </contour>
    <contour>
      <point x="344" y="669" type="line"/>
      <point x="376" y="728"/>
      <point x="439" y="765"/>
      <point x="538" y="765" type="curve" smooth="yes"/>
      <point x="634" y="765"/>
      <point x="705" y="727"/>
      <point x="726" y="669" type="curve"/>
    </contour>
  </outline>
</glyph>
<glyph name="iacute" format="1">
  <advance width="456"/>
  <unicode hex="00ED"/>
  <outline>
    <contour>
      <point x="115" y="1047" type="curve" smooth="yes"/>
      <point x="148" y="1047"/>
      <point x="165" y="1066"/>
      <point x="181" y="1087" type="curve" smooth="yes"/>
      <point x="403" y="1378" type="line"/>
      <point x="432" y="1419"/>
      <point x="445" y="1457"/>
      <point x="445" y="1494" type="curve" smooth="yes"/>
      <point x="445" y="1581"/>
      <point x="372" y="1631"/>
      <point x="304" y="1631" type="curve" smooth="yes"/>
      <point x="239" y="1631"/>
      <point x="180" y="1589"/>
      <point x="157" y="1508" type="curve"/>
      <point x="62" y="1147" type="line" smooth="yes"/>
      <point x="59" y="1140"/>
      <point x="54" y="1138"/>
      <point x="54" y="1113" type="curve" smooth="yes"/>
      <point x="54" y="1085"/>
      <point x="72" y="1047"/>
    </contour>
    <contour>
      <point x="110" y="0" type="line"/>
      <point x="393" y="0" type="line"/>
      <point x="393" y="996" type="line"/>
      <point x="110" y="996" type="line"/>
    </contour>
  </outline>
</glyph>
<glyph name="eth" format="1">
  <advance width="1199"/>
  <unicode hex="00F0"/>
  <outline>
    <contour>
      <point x="586" y="-21" type="curve" smooth="yes"/>
      <point x="937" y="-21"/>
      <point x="1147" y="217"/>
      <point x="1147" y="495" type="curve" smooth="yes"/>
      <point x="1147" y="577"/>
      <point x="1132" y="649"/>
      <point x="1101" y="718" type="curve" smooth="yes"/>
      <point x="1049" y="833"/>
      <point x="955" y="938"/>
      <point x="818" y="1088" type="curve"/>
      <point x="656" y="1284" type="line"/>
      <point x="808" y="1411" type="line"/>
      <point x="673" y="1573" type="line"/>
      <point x="521" y="1444" type="line"/>
      <point x="459" y="1519" type="line"/>
      <point x="135" y="1519" type="line"/>
      <point x="331" y="1281" type="line"/>
      <point x="131" y="1120" type="line"/>
      <point x="264" y="960" type="line"/>
      <point x="464" y="1122" type="line"/>
      <point x="601" y="966" type="line"/>
      <point x="589" y="967"/>
      <point x="573" y="968"/>
      <point x="560" y="968" type="curve" smooth="yes"/>
      <point x="299" y="968"/>
      <point x="60" y="777"/>
      <point x="35" y="509" type="curve"/>
      <point x="32" y="509" type="line"/>
      <point x="32" y="463" type="line" smooth="yes"/>
      <point x="32" y="221"/>
      <point x="222" y="-21"/>
    </contour>
    <contour>
      <point x="590" y="233" type="curve" smooth="yes"/>
      <point x="403" y="233"/>
      <point x="312" y="348"/>
      <point x="312" y="473" type="curve" smooth="yes"/>
      <point x="312" y="598"/>
      <point x="406" y="715"/>
      <point x="590" y="715" type="curve" smooth="yes"/>
      <point x="791" y="715"/>
      <point x="863" y="627"/>
      <point x="873" y="500" type="curve"/>
      <point x="873" y="473" type="line" smooth="yes"/>
      <point x="873" y="339"/>
      <point x="774" y="233"/>
    </contour>
  </outline>
</glyph>
<glyph name="ntilde" format="1">
  <advance width="1015"/>
  <unicode hex="00F1"/>
  <outline>
    <contour>
      <point x="52" y="0" type="line"/>
      <point x="333" y="0" type="line"/>
      <point x="333" y="657" type="line"/>
      <point x="384" y="713"/>
      <point x="496" y="766"/>
      <point x="578" y="766" type="curve" smooth="yes"/>
      <point x="640" y="766"/>
      <point x="687" y="746"/>
      <point x="687" y="640" type="curve" smooth="yes"/>
      <point x="687" y="0" type="line"/>
      <point x="967" y="0" type="line"/>
      <point x="967" y="665" type="line" smooth="yes"/>
      <point x="967" y="866"/>
      <point x="821" y="1017"/>
      <point x="605" y="1017" type="curve" smooth="yes"/>
      <point x="554" y="1017"/>
      <point x="447" y="1009"/>
      <point x="329" y="920" type="curve"/>
      <point x="329" y="998" type="line"/>
      <point x="52" y="998" type="line"/>
    </contour>
    <contour>
      <point x="626" y="1047" type="curve" smooth="yes"/>
      <point x="749" y="1047"/>
      <point x="833" y="1122"/>
      <point x="895" y="1215" type="curve" smooth="yes"/>
      <point x="901" y="1224"/>
      <point x="908" y="1241"/>
      <point x="908" y="1259" type="curve" smooth="yes"/>
      <point x="908" y="1291"/>
      <point x="877" y="1322"/>
      <point x="845" y="1322" type="curve" smooth="yes"/>
      <point x="767" y="1322"/>
      <point x="777" y="1276"/>
      <point x="738" y="1276" type="curve" smooth="yes"/>
      <point x="681" y="1276"/>
      <point x="516" y="1366"/>
      <point x="372" y="1366" type="curve" smooth="yes"/>
      <point x="253" y="1366"/>
      <point x="179" y="1288"/>
      <point x="124" y="1198" type="curve" smooth="yes"/>
      <point x="118" y="1190"/>
      <point x="110" y="1167"/>
      <point x="110" y="1154" type="curve" smooth="yes"/>
      <point x="110" y="1117"/>
      <point x="141" y="1090"/>
      <point x="175" y="1090" type="curve" smooth="yes"/>
      <point x="248" y="1090"/>
      <point x="245" y="1135"/>
      <point x="280" y="1135" type="curve" smooth="yes"/>
      <point x="371" y="1135"/>
      <point x="508" y="1047"/>
    </contour>
  </outline>
</glyph>
<glyph name="oacute" format="1">
  <advance width="1198"/>
  <unicode hex="00F3"/>
  <outline>
    <contour>
      <point x="465" y="1046" type="curve" smooth="yes"/>
      <point x="508" y="1046"/>
      <point x="520" y="1073"/>
      <point x="531" y="1090" type="curve"/>
      <point x="751" y="1379" type="line" smooth="yes"/>
      <point x="779" y="1417"/>
      <point x="795" y="1456"/>
      <point x="795" y="1495" type="curve" smooth="yes"/>
      <point x="795" y="1581"/>
      <point x="721" y="1633"/>
      <point x="653" y="1633" type="curve" smooth="yes"/>
      <point x="589" y="1633"/>
      <point x="529" y="1589"/>
      <point x="506" y="1509" type="curve"/>
      <point x="409" y="1147" type="line" smooth="yes"/>
      <point x="405" y="1135"/>
      <point x="404" y="1123"/>
      <point x="404" y="1112" type="curve" smooth="yes"/>
      <point x="404" y="1102"/>
      <point x="409" y="1046"/>
    </contour>
    <contour>
      <point x="599" y="234" type="curve" smooth="yes"/>
      <point x="429" y="234"/>
      <point x="311" y="350"/>
      <point x="311" y="498" type="curve" smooth="yes"/>
      <point x="311" y="648"/>
      <point x="429" y="761"/>
      <point x="599" y="761" type="curve" smooth="yes"/>
      <point x="770" y="761"/>
      <point x="889" y="648"/>
      <point x="889" y="498" type="curve" smooth="yes"/>
      <point x="889" y="350"/>
      <point x="769" y="234"/>
    </contour>
    <contour>
      <point x="599" y="-19" type="curve" smooth="yes"/>
      <point x="908" y="-19"/>
      <point x="1170" y="188"/>
      <point x="1170" y="500" type="curve" smooth="yes"/>
      <point x="1170" y="810"/>
      <point x="907" y="1016"/>
      <point x="599" y="1016" type="curve" smooth="yes"/>
      <point x="290" y="1016"/>
      <point x="30" y="810"/>
      <point x="30" y="500" type="curve" smooth="yes"/>
      <point x="30" y="188"/>
      <point x="290" y="-19"/>
    </contour>
  </outline>
</glyph>
<glyph name="ocircumflex" format="1">
  <advance width="1198"/>
  <unicode hex="00F4"/>
  <outline>
    <contour>
      <point x="296" y="1047" type="curve" smooth="yes"/>
      <point x="301" y="1047" type="line" smooth="yes"/>
      <point x="314" y="1047"/>
      <point x="321" y="1051"/>
      <point x="328" y="1053" type="curve"/>
      <point x="600" y="1242" type="line"/>
      <point x="873" y="1053" type="line"/>
      <point x="879" y="1051"/>
      <point x="894" y="1047"/>
      <point x="901" y="1047" type="curve" smooth="yes"/>
      <point x="932" y="1047"/>
      <point x="954" y="1069"/>
      <point x="954" y="1100" type="curve" smooth="yes"/>
      <point x="954" y="1117" type="line"/>
      <point x="681" y="1538" type="line"/>
      <point x="657" y="1572"/>
      <point x="625" y="1576"/>
      <point x="600" y="1576" type="curve" smooth="yes"/>
      <point x="571" y="1576"/>
      <point x="543" y="1565"/>
      <point x="522" y="1539" type="curve"/>
      <point x="259" y="1135" type="line"/>
      <point x="259" y="1135"/>
      <point x="246" y="1142"/>
      <point x="246" y="1100" type="curve" smooth="yes"/>
      <point x="246" y="1051"/>
      <point x="282" y="1047"/>
    </contour>
    <contour>
      <point x="599" y="234" type="curve" smooth="yes"/>
      <point x="429" y="234"/>
      <point x="311" y="350"/>
      <point x="311" y="498" type="curve" smooth="yes"/>
      <point x="311" y="649"/>
      <point x="428" y="760"/>
      <point x="599" y="760" type="curve" smooth="yes"/>
      <point x="770" y="760"/>
      <point x="889" y="648"/>
      <point x="889" y="498" type="curve" smooth="yes"/>
      <point x="889" y="350"/>
      <point x="769" y="234"/>
    </contour>
    <contour>
      <point x="599" y="-20" type="curve" smooth="yes"/>
      <point x="908" y="-20"/>
      <point x="1170" y="188"/>
      <point x="1170" y="500" type="curve" smooth="yes"/>
      <point x="1170" y="809"/>
      <point x="908" y="1017"/>
      <point x="599" y="1017" type="curve" smooth="yes"/>
      <point x="290" y="1017"/>
      <point x="30" y="809"/>
      <point x="30" y="500" type="curve" smooth="yes"/>
      <point x="30" y="188"/>
      <point x="290" y="-20"/>
    </contour>
  </outline>
</glyph>
<glyph name="otilde" format="1">
  <advance width="1198"/>
  <unicode hex="00F5"/>
  <outline>
    <contour>
      <point x="717" y="1046" type="curve" smooth="yes"/>
      <point x="840" y="1046"/>
      <point x="924" y="1121"/>
      <point x="986" y="1213" type="curve" smooth="yes"/>
      <point x="993" y="1223"/>
      <point x="999" y="1241"/>
      <point x="999" y="1258" type="curve" smooth="yes"/>
      <point x="999" y="1286"/>
      <point x="974" y="1322"/>
      <point x="936" y="1322" type="curve" smooth="yes"/>
      <point x="858" y="1322"/>
      <point x="868" y="1276"/>
      <point x="829" y="1276" type="curve" smooth="yes"/>
      <point x="772" y="1276"/>
      <point x="607" y="1364"/>
      <point x="463" y="1364" type="curve" smooth="yes"/>
      <point x="346" y="1364"/>
      <point x="270" y="1288"/>
      <point x="215" y="1197" type="curve" smooth="yes"/>
      <point x="208" y="1187"/>
      <point x="201" y="1166"/>
      <point x="201" y="1153" type="curve" smooth="yes"/>
      <point x="201" y="1114"/>
      <point x="236" y="1089"/>
      <point x="266" y="1089" type="curve" smooth="yes"/>
      <point x="339" y="1089"/>
      <point x="338" y="1135"/>
      <point x="371" y="1135" type="curve" smooth="yes"/>
      <point x="462" y="1135"/>
      <point x="599" y="1046"/>
    </contour>
    <contour>
      <point x="599" y="233" type="curve" smooth="yes"/>
      <point x="429" y="233"/>
      <point x="311" y="349"/>
      <point x="311" y="498" type="curve" smooth="yes"/>
      <point x="311" y="648"/>
      <point x="428" y="760"/>
      <point x="599" y="760" type="curve" smooth="yes"/>
      <point x="770" y="760"/>
      <point x="889" y="648"/>
      <point x="889" y="498" type="curve" smooth="yes"/>
      <point x="889" y="350"/>
      <point x="769" y="233"/>
    </contour>
    <contour>
      <point x="599" y="-19" type="curve" smooth="yes"/>
      <point x="908" y="-19"/>
      <point x="1170" y="188"/>
      <point x="1170" y="500" type="curve" smooth="yes"/>
      <point x="1170" y="808"/>
      <point x="908" y="1017"/>
      <point x="599" y="1017" type="curve" smooth="yes"/>
      <point x="290" y="1017"/>
      <point x="30" y="808"/>
      <point x="30" y="500" type="curve" smooth="yes"/>
      <point x="30" y="188"/>
      <point x="290" y="-19"/>
    </contour>
  </outline>
</glyph>
<glyph name="odieresis" format="1">
  <advance width="1198"/>
  <unicode hex="00F6"/>
  <outline>
    <contour>
      <point x="411" y="1047" type="curve" smooth="yes"/>
      <point x="489" y="1047"/>
      <point x="580" y="1100"/>
      <point x="580" y="1211" type="curve" smooth="yes"/>
      <point x="580" y="1321"/>
      <point x="492" y="1382"/>
      <point x="411" y="1382" type="curve" smooth="yes"/>
      <point x="329" y="1382"/>
      <point x="244" y="1320"/>
      <point x="244" y="1211" type="curve" smooth="yes"/>
      <point x="244" y="1102"/>
      <point x="332" y="1047"/>
    </contour>
    <contour>
      <point x="599" y="234" type="curve" smooth="yes"/>
      <point x="429" y="234"/>
      <point x="311" y="350"/>
      <point x="311" y="498" type="curve" smooth="yes"/>
      <point x="311" y="649"/>
      <point x="429" y="761"/>
      <point x="599" y="761" type="curve" smooth="yes"/>
      <point x="770" y="761"/>
      <point x="889" y="648"/>
      <point x="889" y="498" type="curve" smooth="yes"/>
      <point x="889" y="351"/>
      <point x="769" y="234"/>
    </contour>
    <contour>
      <point x="599" y="-19" type="curve" smooth="yes"/>
      <point x="908" y="-19"/>
      <point x="1170" y="188"/>
      <point x="1170" y="500" type="curve" smooth="yes"/>
      <point x="1170" y="810"/>
      <point x="908" y="1017"/>
      <point x="599" y="1017" type="curve" smooth="yes"/>
      <point x="290" y="1017"/>
      <point x="30" y="809"/>
      <point x="30" y="500" type="curve" smooth="yes"/>
      <point x="30" y="188"/>
      <point x="290" y="-19"/>
    </contour>
    <contour>
      <point x="787" y="1047" type="curve" smooth="yes"/>
      <point x="866" y="1047"/>
      <point x="955" y="1101"/>
      <point x="955" y="1211" type="curve" smooth="yes"/>
      <point x="955" y="1320"/>
      <point x="870" y="1382"/>
      <point x="787" y="1382" type="curve" smooth="yes"/>
      <point x="706" y="1382"/>
      <point x="619" y="1321"/>
      <point x="619" y="1211" type="curve" smooth="yes"/>
      <point x="619" y="1101"/>
      <point x="710" y="1047"/>
    </contour>
  </outline>
</glyph>
<glyph name="oslash" format="1">
  <advance width="1199"/>
  <unicode hex="00F8"/>
  <outline>
    <contour>
      <point x="341" y="-171" type="line"/>
      <point x="432" y="4" type="line"/>
      <point x="484" y="-11"/>
      <point x="541" y="-19"/>
      <point x="599" y="-19" type="curve" smooth="yes"/>
      <point x="908" y="-19"/>
      <point x="1170" y="190"/>
      <point x="1170" y="505" type="curve" smooth="yes"/>
      <point x="1170" y="683"/>
      <point x="1084" y="831"/>
      <point x="948" y="923" type="curve"/>
      <point x="1062" y="1125" type="line"/>
      <point x="883" y="1208" type="line"/>
      <point x="772" y="992" type="line"/>
      <point x="719" y="1008"/>
      <point x="659" y="1017"/>
      <point x="599" y="1017" type="curve" smooth="yes"/>
      <point x="290" y="1017"/>
      <point x="30" y="807"/>
      <point x="30" y="498" type="curve" smooth="yes"/>
      <point x="30" y="317"/>
      <point x="117" y="168"/>
      <point x="253" y="76" type="curve"/>
      <point x="159" y="-89" type="line"/>
    </contour>
    <contour>
      <point x="380" y="236" type="line"/>
      <point x="337" y="291"/>
      <point x="311" y="365"/>
      <point x="311" y="446" type="curve" smooth="yes"/>
      <point x="311" y="627"/>
      <point x="428" y="760"/>
      <point x="599" y="760" type="curve" smooth="yes"/>
      <point x="617" y="760"/>
      <point x="632" y="759"/>
      <point x="649" y="756" type="curve"/>
    </contour>
    <contour>
      <point x="599" y="234" type="curve" smooth="yes"/>
      <point x="582" y="234"/>
      <point x="568" y="235"/>
      <point x="552" y="238" type="curve"/>
      <point x="820" y="758" type="line"/>
      <point x="863" y="704"/>
      <point x="889" y="631"/>
      <point x="889" y="548" type="curve" smooth="yes"/>
      <point x="889" y="372"/>
      <point x="769" y="234"/>
    </contour>
    <contour>
      <point x="600" y="996" type="move"/>
    </contour>
  </outline>
</glyph>
<glyph name="ugrave" format="1">
  <advance width="1003"/>
  <unicode hex="00F9"/>
  <outline>
    <contour>
      <point x="418" y="-19" type="curve" smooth="yes"/>
      <point x="505" y="-19"/>
      <point x="591" y="10"/>
      <point x="669" y="65" type="curve"/>
      <point x="669" y="0" type="line"/>
      <point x="946" y="0" type="line"/>
      <point x="946" y="997" type="line"/>
      <point x="667" y="997" type="line"/>
      <point x="667" y="325" type="line"/>
      <point x="619" y="269"/>
      <point x="527" y="228"/>
      <point x="452" y="228" type="curve" smooth="yes"/>
      <point x="384" y="228"/>
      <point x="330" y="254"/>
      <point x="330" y="358" type="curve" smooth="yes"/>
      <point x="330" y="997" type="line"/>
      <point x="49" y="997" type="line"/>
      <point x="49" y="349" type="line" smooth="yes"/>
      <point x="49" y="113"/>
      <point x="225" y="-19"/>
    </contour>
    <contour>
      <point x="626" y="1045" type="curve" smooth="yes"/>
      <point x="685" y="1045"/>
      <point x="685" y="1102"/>
      <point x="685" y="1110" type="curve" smooth="yes"/>
      <point x="685" y="1117"/>
      <point x="686" y="1123"/>
      <point x="681" y="1143" type="curve" smooth="yes"/>
      <point x="596" y="1520" type="line"/>
      <point x="571" y="1598"/>
      <point x="514" y="1644"/>
      <point x="451" y="1644" type="curve" smooth="yes"/>
      <point x="380" y="1644"/>
      <point x="307" y="1588"/>
      <point x="307" y="1504" type="curve" smooth="yes"/>
      <point x="307" y="1465"/>
      <point x="323" y="1428"/>
      <point x="349" y="1393" type="curve"/>
      <point x="558" y="1087" type="line" smooth="yes"/>
      <point x="570" y="1069"/>
      <point x="589" y="1045"/>
    </contour>
  </outline>
</glyph>
<glyph name="uacute" format="1">
  <advance width="1003"/>
  <unicode hex="00FA"/>
  <outline>
    <contour>
      <point x="418" y="-17" type="curve" smooth="yes"/>
      <point x="505" y="-17"/>
      <point x="591" y="12"/>
      <point x="669" y="67" type="curve"/>
      <point x="669" y="0" type="line"/>
      <point x="946" y="0" type="line"/>
      <point x="946" y="999" type="line"/>
      <point x="667" y="999" type="line"/>
      <point x="667" y="327" type="line"/>
      <point x="619" y="271"/>
      <point x="528" y="230"/>
      <point x="452" y="230" type="curve" smooth="yes"/>
      <point x="383" y="230"/>
      <point x="330" y="256"/>
      <point x="330" y="360" type="curve" smooth="yes"/>
      <point x="330" y="999" type="line"/>
      <point x="49" y="999" type="line"/>
      <point x="49" y="351" type="line" smooth="yes"/>
      <point x="49" y="114"/>
      <point x="225" y="-17"/>
    </contour>
    <contour>
      <point x="362" y="1047" type="curve" smooth="yes"/>
      <point x="404" y="1047"/>
      <point x="415" y="1073"/>
      <point x="428" y="1091" type="curve"/>
      <point x="649" y="1380" type="line" smooth="yes"/>
      <point x="677" y="1417"/>
      <point x="693" y="1456"/>
      <point x="693" y="1496" type="curve" smooth="yes"/>
      <point x="693" y="1582"/>
      <point x="619" y="1634"/>
      <point x="551" y="1634" type="curve" smooth="yes"/>
      <point x="487" y="1634"/>
      <point x="428" y="1591"/>
      <point x="403" y="1510" type="curve"/>
      <point x="307" y="1150" type="line" smooth="yes"/>
      <point x="303" y="1134"/>
      <point x="302" y="1125"/>
      <point x="302" y="1113" type="curve" smooth="yes"/>
      <point x="302" y="1105"/>
      <point x="303" y="1047"/>
    </contour>
  </outline>
</glyph>
<glyph name="ucircumflex" format="1">
  <advance width="1003"/>
  <unicode hex="00FB"/>
  <outline>
    <contour>
      <point x="194" y="1047" type="curve" smooth="yes"/>
      <point x="199" y="1047" type="line" smooth="yes"/>
      <point x="199" y="1047"/>
      <point x="229" y="1058"/>
      <point x="230" y="1057" type="curve" smooth="yes"/>
      <point x="498" y="1242" type="line"/>
      <point x="767" y="1055" type="line"/>
      <point x="783" y="1047"/>
      <point x="798" y="1047"/>
      <point x="799" y="1047" type="curve" smooth="yes"/>
      <point x="830" y="1047"/>
      <point x="852" y="1069"/>
      <point x="852" y="1100" type="curve" smooth="yes"/>
      <point x="852" y="1117" type="line"/>
      <point x="578" y="1539" type="line"/>
      <point x="554" y="1569"/>
      <point x="523" y="1575"/>
      <point x="498" y="1575" type="curve" smooth="yes"/>
      <point x="463" y="1575"/>
      <point x="437" y="1563"/>
      <point x="419" y="1538" type="curve"/>
      <point x="157" y="1135" type="line"/>
      <point x="157" y="1135"/>
      <point x="144" y="1142"/>
      <point x="144" y="1100" type="curve" smooth="yes"/>
      <point x="144" y="1051"/>
      <point x="180" y="1047"/>
    </contour>
    <contour>
      <point x="418" y="-19" type="curve" smooth="yes"/>
      <point x="505" y="-19"/>
      <point x="591" y="10"/>
      <point x="669" y="66" type="curve"/>
      <point x="669" y="0" type="line"/>
      <point x="946" y="0" type="line"/>
      <point x="946" y="996" type="line"/>
      <point x="667" y="996" type="line"/>
      <point x="667" y="325" type="line"/>
      <point x="619" y="269"/>
      <point x="527" y="228"/>
      <point x="452" y="228" type="curve" smooth="yes"/>
      <point x="384" y="228"/>
      <point x="330" y="255"/>
      <point x="330" y="359" type="curve" smooth="yes"/>
      <point x="330" y="996" type="line"/>
      <point x="49" y="996" type="line"/>
      <point x="49" y="349" type="line" smooth="yes"/>
      <point x="49" y="112"/>
      <point x="225" y="-19"/>
    </contour>
  </outline>
</glyph>
<glyph name="thorn" format="1">
  <advance width="1005"/>
  <unicode hex="00FE"/>
  <outline>
    <contour>
      <point x="69" y="-361" type="line"/>
      <point x="354" y="-361" type="line"/>
      <point x="354" y="6" type="line"/>
      <point x="392" y="-7"/>
      <point x="448" y="-20"/>
      <point x="513" y="-20" type="curve" smooth="yes"/>
      <point x="877" y="-20"/>
      <point x="1061" y="265"/>
      <point x="1061" y="526" type="curve" smooth="yes"/>
      <point x="1061" y="767"/>
      <point x="898" y="1017"/>
      <point x="556" y="1017" type="curve" smooth="yes"/>
      <point x="491" y="1017"/>
      <point x="423" y="998"/>
      <point x="357" y="958" type="curve"/>
      <point x="357" y="1477" type="line"/>
      <point x="69" y="1477" type="line"/>
    </contour>
    <contour>
      <point x="497" y="241" type="curve" smooth="yes"/>
      <point x="426" y="241"/>
      <point x="381" y="255"/>
      <point x="357" y="265" type="curve"/>
      <point x="357" y="702" type="line"/>
      <point x="387" y="720"/>
      <point x="455" y="752"/>
      <point x="539" y="752" type="curve" smooth="yes"/>
      <point x="690" y="752"/>
      <point x="765" y="650"/>
      <point x="765" y="522" type="curve" smooth="yes"/>
      <point x="765" y="377"/>
      <point x="667" y="241"/>
    </contour>
  </outline>
</glyph>
<glyph name="Abreve" format="1">
  <advance width="1527"/>
  <unicode hex="0102"/>
  <outline>
    <contour>
      <point x="763" y="1566" type="curve" smooth="yes"/>
      <point x="899" y="1566"/>
      <point x="1038" y="1666"/>
      <point x="1044" y="1854" type="curve" smooth="yes"/>
      <point x="1046" y="1907" type="line"/>
      <point x="843" y="1907" type="line"/>
      <point x="838" y="1862" type="line" smooth="yes"/>
      <point x="832" y="1805"/>
      <point x="795" y="1783"/>
      <point x="762" y="1783" type="curve" smooth="yes"/>
      <point x="729" y="1783"/>
      <point x="693" y="1804"/>
      <point x="686" y="1862" type="curve" smooth="yes"/>
      <point x="680" y="1907" type="line"/>
      <point x="478" y="1907" type="line"/>
      <point x="480" y="1854" type="line" smooth="yes"/>
      <point x="487" y="1666"/>
      <point x="625" y="1566"/>
    </contour>
    <contour>
      <point x="-16" y="0" type="line"/>
      <point x="292" y="0" type="line"/>
      <point x="494" y="435" type="line"/>
      <point x="1031" y="435" type="line"/>
      <point x="1244" y="0" type="line"/>
      <point x="1484" y="0" type="line"/>
      <point x="1526" y="42" type="line"/>
      <point x="851" y="1515" type="line"/>
      <point x="640" y="1515" type="line"/>
    </contour>
    <contour>
      <point x="606" y="713" type="line"/>
      <point x="753" y="1121" type="line"/>
      <point x="913" y="713" type="line"/>
    </contour>
  </outline>
</glyph>
<glyph name="Aogonek" format="1">
  <advance width="1527"/>
  <unicode hex="0104"/>
  <outline>
    <contour>
      <point x="1305" y="-378" type="curve" smooth="yes"/>
      <point x="1321" y="-378"/>
      <point x="1339" y="-377"/>
      <point x="1358" y="-373" type="curve" smooth="yes"/>
      <point x="1389" y="-366" type="line"/>
      <point x="1443" y="-147" type="line"/>
      <point x="1376" y="-147" type="line" smooth="yes"/>
      <point x="1266" y="-147"/>
      <point x="1240" y="-97"/>
      <point x="1240" y="-72" type="curve" smooth="yes"/>
      <point x="1240" y="-58"/>
      <point x="1249" y="-35"/>
      <point x="1280" y="-15" type="curve" smooth="yes"/>
      <point x="1289" y="-9"/>
      <point x="1298" y="-5"/>
      <point x="1310" y="0" type="curve"/>
      <point x="1484" y="0" type="line"/>
      <point x="1526" y="42" type="line"/>
      <point x="851" y="1516" type="line"/>
      <point x="640" y="1516" type="line"/>
      <point x="-16" y="0" type="line"/>
      <point x="292" y="0" type="line"/>
      <point x="494" y="436" type="line"/>
      <point x="1031" y="436" type="line"/>
      <point x="1184" y="116" type="line"/>
      <point x="1072" y="81"/>
      <point x="1018" y="-15"/>
      <point x="1018" y="-108" type="curve" smooth="yes"/>
      <point x="1018" y="-248"/>
      <point x="1136" y="-378"/>
    </contour>
    <contour>
      <point x="606" y="713" type="line"/>
      <point x="753" y="1121" type="line"/>
      <point x="913" y="713" type="line"/>
    </contour>
  </outline>
</glyph>
<glyph name="aogonek" format="1">
  <advance width="958"/>
  <unicode hex="0105"/>
  <outline>
    <contour>
      <point x="812" y="-395" type="curve" smooth="yes"/>
      <point x="828" y="-395"/>
      <point x="847" y="-394"/>
      <point x="868" y="-388" type="curve" smooth="yes"/>
      <point x="897" y="-380" type="line"/>
      <point x="949" y="-163" type="line"/>
      <point x="883" y="-163" type="line" smooth="yes"/>
      <point x="774" y="-163"/>
      <point x="747" y="-113"/>
      <point x="747" y="-90" type="curve" smooth="yes"/>
      <point x="747" y="-73"/>
      <point x="761" y="-44"/>
      <point x="807" y="-21" type="curve" smooth="yes"/>
      <point x="818" y="-15"/>
      <point x="833" y="-11"/>
      <point x="846" y="-6" type="curve"/>
      <point x="986" y="179" type="line"/>
      <point x="935" y="203" type="line" smooth="yes"/>
      <point x="842" y="247"/>
      <point x="831" y="232"/>
      <point x="831" y="304" type="curve" smooth="yes"/>
      <point x="831" y="674" type="line" smooth="yes"/>
      <point x="831" y="918"/>
      <point x="609" y="1006"/>
      <point x="429" y="1006" type="curve" smooth="yes"/>
      <point x="269" y="1006"/>
      <point x="118" y="916"/>
      <point x="67" y="861" type="curve" smooth="yes"/>
      <point x="46" y="839" type="line"/>
      <point x="132" y="582" type="line"/>
      <point x="190" y="637" type="line" smooth="yes"/>
      <point x="251" y="696"/>
      <point x="337" y="739"/>
      <point x="433" y="739" type="curve" smooth="yes"/>
      <point x="507" y="739"/>
      <point x="552" y="695"/>
      <point x="552" y="593" type="curve" smooth="yes"/>
      <point x="552" y="578" type="line"/>
      <point x="425" y="549" type="line" smooth="yes"/>
      <point x="162" y="489"/>
      <point x="35" y="373"/>
      <point x="35" y="245" type="curve" smooth="yes"/>
      <point x="35" y="52"/>
      <point x="190" y="-22"/>
      <point x="354" y="-22" type="curve" smooth="yes"/>
      <point x="435" y="-22"/>
      <point x="549" y="13"/>
      <point x="631" y="102" type="curve"/>
      <point x="633" y="99"/>
      <point x="636" y="97"/>
      <point x="639" y="94" type="curve"/>
      <point x="563" y="46"/>
      <point x="525" y="-40"/>
      <point x="525" y="-124" type="curve" smooth="yes"/>
      <point x="525" y="-265"/>
      <point x="643" y="-395"/>
    </contour>
    <contour>
      <point x="381" y="168" type="curve" smooth="yes"/>
      <point x="364" y="168"/>
      <point x="351" y="172"/>
      <point x="344" y="179" type="curve" smooth="yes"/>
      <point x="336" y="187"/>
      <point x="326" y="204"/>
      <point x="326" y="244" type="curve" smooth="yes"/>
      <point x="326" y="309"/>
      <point x="419" y="351"/>
      <point x="551" y="391" type="curve"/>
      <point x="551" y="242" type="line"/>
      <point x="503" y="194"/>
      <point x="428" y="168"/>
    </contour>
  </outline>
</glyph>
<glyph name="Cacute" format="1">
  <advance width="1511"/>
  <unicode hex="0106"/>
  <outline>
    <contour>
      <point x="905" y="-20" type="curve" smooth="yes"/>
      <point x="1069" y="-20"/>
      <point x="1233" y="24"/>
      <point x="1415" y="120" type="curve" smooth="yes"/>
      <point x="1442" y="134" type="line"/>
      <point x="1442" y="481" type="line"/>
      <point x="1360" y="416" type="line" smooth="yes"/>
      <point x="1233" y="317"/>
      <point x="1065" y="263"/>
      <point x="916" y="263" type="curve" smooth="yes"/>
      <point x="630" y="263"/>
      <point x="376" y="418"/>
      <point x="376" y="755" type="curve" smooth="yes"/>
      <point x="376" y="1065"/>
      <point x="629" y="1249"/>
      <point x="922" y="1249" type="curve" smooth="yes"/>
      <point x="1053" y="1249"/>
      <point x="1206" y="1204"/>
      <point x="1367" y="1120" type="curve" smooth="yes"/>
      <point x="1442" y="1081" type="line"/>
      <point x="1442" y="1414" type="line"/>
      <point x="1411" y="1428" type="line" smooth="yes"/>
      <point x="1252" y="1498"/>
      <point x="1075" y="1536"/>
      <point x="920" y="1536" type="curve" smooth="yes"/>
      <point x="458" y="1536"/>
      <point x="55" y="1240"/>
      <point x="55" y="759" type="curve" smooth="yes"/>
      <point x="55" y="328"/>
      <point x="404" y="-20"/>
    </contour>
    <contour>
      <point x="607" y="1566" type="curve" smooth="yes"/>
      <point x="640" y="1566"/>
      <point x="661" y="1586"/>
      <point x="675" y="1611" type="curve"/>
      <point x="894" y="1899" type="line" smooth="yes"/>
      <point x="922" y="1935"/>
      <point x="940" y="1974"/>
      <point x="940" y="2015" type="curve" smooth="yes"/>
      <point x="940" y="2101"/>
      <point x="866" y="2153"/>
      <point x="797" y="2153" type="curve" smooth="yes"/>
      <point x="734" y="2153"/>
      <point x="673" y="2110"/>
      <point x="650" y="2029" type="curve"/>
      <point x="554" y="1666" type="line" smooth="yes"/>
      <point x="551" y="1653"/>
      <point x="549" y="1643"/>
      <point x="549" y="1632" type="curve" smooth="yes"/>
      <point x="549" y="1626"/>
      <point x="547" y="1566"/>
    </contour>
  </outline>
</glyph>
<glyph name="cacute" format="1">
  <advance width="964"/>
  <unicode hex="0107"/>
  <outline>
    <contour>
      <point x="592" y="-19" type="curve" smooth="yes"/>
      <point x="621" y="-19"/>
      <point x="781" y="-16"/>
      <point x="890" y="53" type="curve" smooth="yes"/>
      <point x="914" y="68" type="line"/>
      <point x="914" y="313" type="line"/>
      <point x="832" y="313" type="line"/>
      <point x="764" y="272"/>
      <point x="674" y="234"/>
      <point x="604" y="234" type="curve" smooth="yes"/>
      <point x="411" y="234"/>
      <point x="316" y="369"/>
      <point x="316" y="500" type="curve" smooth="yes"/>
      <point x="316" y="628"/>
      <point x="419" y="761"/>
      <point x="601" y="761" type="curve" smooth="yes"/>
      <point x="695" y="761"/>
      <point x="729" y="748"/>
      <point x="816" y="701" type="curve" smooth="yes"/>
      <point x="891" y="661" type="line"/>
      <point x="891" y="938" type="line"/>
      <point x="868" y="953" type="line" smooth="yes"/>
      <point x="796" y="1000"/>
      <point x="677" y="1016"/>
      <point x="585" y="1016" type="curve" smooth="yes"/>
      <point x="291" y="1016"/>
      <point x="30" y="808"/>
      <point x="30" y="500" type="curve" smooth="yes"/>
      <point x="30" y="197"/>
      <point x="276" y="-19"/>
    </contour>
    <contour>
      <point x="337" y="1046" type="curve" smooth="yes"/>
      <point x="380" y="1046"/>
      <point x="392" y="1073"/>
      <point x="403" y="1090" type="curve"/>
      <point x="623" y="1379" type="line" smooth="yes"/>
      <point x="651" y="1417"/>
      <point x="667" y="1456"/>
      <point x="667" y="1495" type="curve" smooth="yes"/>
      <point x="667" y="1581"/>
      <point x="593" y="1633"/>
      <point x="525" y="1633" type="curve" smooth="yes"/>
      <point x="461" y="1633"/>
      <point x="401" y="1589"/>
      <point x="378" y="1509" type="curve"/>
      <point x="281" y="1147" type="line" smooth="yes"/>
      <point x="277" y="1135"/>
      <point x="276" y="1123"/>
      <point x="276" y="1112" type="curve" smooth="yes"/>
      <point x="276" y="1102"/>
      <point x="281" y="1046"/>
    </contour>
  </outline>
</glyph>
<glyph name="Ccircumflex" format="1">
  <advance width="1511"/>
  <unicode hex="0108"/>
  <outline>
    <contour>
      <point x="905" y="-19" type="curve" smooth="yes"/>
      <point x="1069" y="-19"/>
      <point x="1232" y="23"/>
      <point x="1415" y="121" type="curve" smooth="yes"/>
      <point x="1442" y="135" type="line"/>
      <point x="1442" y="481" type="line"/>
      <point x="1360" y="416" type="line" smooth="yes"/>
      <point x="1233" y="316"/>
      <point x="1065" y="262"/>
      <point x="916" y="262" type="curve" smooth="yes"/>
      <point x="630" y="262"/>
      <point x="376" y="419"/>
      <point x="376" y="754" type="curve" smooth="yes"/>
      <point x="376" y="1064"/>
      <point x="629" y="1248"/>
      <point x="922" y="1248" type="curve" smooth="yes"/>
      <point x="1053" y="1248"/>
      <point x="1206" y="1204"/>
      <point x="1367" y="1119" type="curve" smooth="yes"/>
      <point x="1442" y="1079" type="line"/>
      <point x="1442" y="1416" type="line"/>
      <point x="1411" y="1429" type="line" smooth="yes"/>
      <point x="1252" y="1497"/>
      <point x="1076" y="1536"/>
      <point x="920" y="1536" type="curve" smooth="yes"/>
      <point x="458" y="1536"/>
      <point x="55" y="1239"/>
      <point x="55" y="759" type="curve" smooth="yes"/>
      <point x="55" y="329"/>
      <point x="404" y="-19"/>
    </contour>
    <contour>
      <point x="445" y="1565" type="curve" smooth="yes"/>
      <point x="446" y="1565"/>
      <point x="465" y="1569"/>
      <point x="466" y="1569" type="curve" smooth="yes"/>
      <point x="744" y="1761" type="line"/>
      <point x="1018" y="1570" type="line"/>
      <point x="1028" y="1565"/>
      <point x="1036" y="1565"/>
      <point x="1040" y="1565" type="curve" smooth="yes"/>
      <point x="1042" y="1565" type="line" smooth="yes"/>
      <point x="1063" y="1565"/>
      <point x="1098" y="1574"/>
      <point x="1098" y="1620" type="curve" smooth="yes"/>
      <point x="1098" y="1637" type="line"/>
      <point x="824" y="2057" type="line" smooth="yes"/>
      <point x="806" y="2085"/>
      <point x="774" y="2096"/>
      <point x="744" y="2096" type="curve" smooth="yes"/>
      <point x="713" y="2096"/>
      <point x="682" y="2084"/>
      <point x="664" y="2057" type="curve" smooth="yes"/>
      <point x="403" y="1655" type="line"/>
      <point x="403" y="1655"/>
      <point x="390" y="1662"/>
      <point x="390" y="1620" type="curve" smooth="yes"/>
      <point x="390" y="1588"/>
      <point x="413" y="1565"/>
    </contour>
  </outline>
</glyph>
<glyph name="ccircumflex" format="1">
  <advance width="964"/>
  <unicode hex="0109"/>
  <outline>
    <contour>
      <point x="592" y="-20" type="curve" smooth="yes"/>
      <point x="622" y="-20"/>
      <point x="781" y="-16"/>
      <point x="890" y="52" type="curve" smooth="yes"/>
      <point x="914" y="67" type="line"/>
      <point x="914" y="314" type="line"/>
      <point x="831" y="314" type="line"/>
      <point x="764" y="272"/>
      <point x="674" y="234"/>
      <point x="604" y="234" type="curve" smooth="yes"/>
      <point x="411" y="234"/>
      <point x="316" y="370"/>
      <point x="316" y="500" type="curve" smooth="yes"/>
      <point x="316" y="629"/>
      <point x="419" y="760"/>
      <point x="601" y="760" type="curve" smooth="yes"/>
      <point x="696" y="760"/>
      <point x="729" y="749"/>
      <point x="815" y="701" type="curve" smooth="yes"/>
      <point x="891" y="658" type="line"/>
      <point x="891" y="938" type="line"/>
      <point x="867" y="953" type="line" smooth="yes"/>
      <point x="797" y="996"/>
      <point x="679" y="1017"/>
      <point x="585" y="1017" type="curve" smooth="yes"/>
      <point x="291" y="1017"/>
      <point x="30" y="807"/>
      <point x="30" y="500" type="curve" smooth="yes"/>
      <point x="30" y="198"/>
      <point x="276" y="-20"/>
    </contour>
    <contour>
      <point x="168" y="1047" type="curve" smooth="yes"/>
      <point x="173" y="1047" type="line" smooth="yes"/>
      <point x="186" y="1047"/>
      <point x="193" y="1051"/>
      <point x="200" y="1053" type="curve"/>
      <point x="472" y="1242" type="line"/>
      <point x="745" y="1053" type="line"/>
      <point x="751" y="1051"/>
      <point x="766" y="1047"/>
      <point x="773" y="1047" type="curve" smooth="yes"/>
      <point x="804" y="1047"/>
      <point x="826" y="1069"/>
      <point x="826" y="1100" type="curve" smooth="yes"/>
      <point x="826" y="1117" type="line"/>
      <point x="553" y="1538" type="line"/>
      <point x="529" y="1572"/>
      <point x="497" y="1576"/>
      <point x="472" y="1576" type="curve" smooth="yes"/>
      <point x="443" y="1576"/>
      <point x="415" y="1565"/>
      <point x="394" y="1539" type="curve"/>
      <point x="131" y="1135" type="line"/>
      <point x="131" y="1135"/>
      <point x="118" y="1142"/>
      <point x="118" y="1100" type="curve" smooth="yes"/>
      <point x="118" y="1051"/>
      <point x="154" y="1047"/>
    </contour>
  </outline>
</glyph>
<glyph name="Cdotaccent" format="1">
  <advance width="1511"/>
  <unicode hex="010A"/>
  <outline>
    <contour>
      <point x="905" y="-20" type="curve" smooth="yes"/>
      <point x="404" y="-20"/>
      <point x="55" y="327"/>
      <point x="55" y="758" type="curve" smooth="yes"/>
      <point x="55" y="1240"/>
      <point x="458" y="1535"/>
      <point x="920" y="1535" type="curve" smooth="yes"/>
      <point x="1075" y="1535"/>
      <point x="1252" y="1497"/>
      <point x="1411" y="1427" type="curve" smooth="yes"/>
      <point x="1442" y="1413" type="line"/>
      <point x="1442" y="1081" type="line"/>
      <point x="1368" y="1120" type="line" smooth="yes"/>
      <point x="1207" y="1204"/>
      <point x="1052" y="1249"/>
      <point x="922" y="1249" type="curve" smooth="yes"/>
      <point x="629" y="1249"/>
      <point x="376" y="1064"/>
      <point x="376" y="755" type="curve" smooth="yes"/>
      <point x="376" y="417"/>
      <point x="630" y="262"/>
      <point x="916" y="262" type="curve" smooth="yes"/>
      <point x="1065" y="262"/>
      <point x="1233" y="316"/>
      <point x="1360" y="415" type="curve" smooth="yes"/>
      <point x="1442" y="480" type="line"/>
      <point x="1442" y="135" type="line"/>
      <point x="1415" y="121" type="line" smooth="yes"/>
      <point x="1232" y="23"/>
      <point x="1069" y="-20"/>
    </contour>
    <contour>
      <point x="744" y="1566" type="curve" smooth="yes"/>
      <point x="658" y="1566"/>
      <point x="563" y="1624"/>
      <point x="563" y="1743" type="curve" smooth="yes"/>
      <point x="563" y="1863"/>
      <point x="655" y="1928"/>
      <point x="744" y="1928" type="curve" smooth="yes"/>
      <point x="831" y="1928"/>
      <point x="923" y="1862"/>
      <point x="923" y="1743" type="curve" smooth="yes"/>
      <point x="923" y="1624"/>
      <point x="828" y="1566"/>
    </contour>
  </outline>
</glyph>
<glyph name="cdotaccent" format="1">
  <advance width="964"/>
  <unicode hex="010B"/>
  <outline>
    <contour>
      <point x="592" y="-20" type="curve" smooth="yes"/>
      <point x="622" y="-20"/>
      <point x="781" y="-16"/>
      <point x="890" y="52" type="curve" smooth="yes"/>
      <point x="914" y="67" type="line"/>
      <point x="914" y="312" type="line"/>
      <point x="832" y="312" type="line"/>
      <point x="765" y="271"/>
      <point x="674" y="234"/>
      <point x="604" y="234" type="curve" smooth="yes"/>
      <point x="411" y="234"/>
      <point x="316" y="369"/>
      <point x="316" y="500" type="curve" smooth="yes"/>
      <point x="316" y="629"/>
      <point x="419" y="761"/>
      <point x="601" y="761" type="curve" smooth="yes"/>
      <point x="695" y="761"/>
      <point x="729" y="747"/>
      <point x="816" y="700" type="curve" smooth="yes"/>
      <point x="891" y="660" type="line"/>
      <point x="891" y="937" type="line"/>
      <point x="868" y="952" type="line" smooth="yes"/>
      <point x="797" y="999"/>
      <point x="678" y="1016"/>
      <point x="585" y="1016" type="curve" smooth="yes"/>
      <point x="291" y="1016"/>
      <point x="30" y="807"/>
      <point x="30" y="499" type="curve" smooth="yes"/>
      <point x="30" y="197"/>
      <point x="276" y="-20"/>
    </contour>
    <contour>
      <point x="472" y="1046" type="curve" smooth="yes"/>
      <point x="557" y="1046"/>
      <point x="653" y="1105"/>
      <point x="653" y="1224" type="curve" smooth="yes"/>
      <point x="653" y="1342"/>
      <point x="560" y="1409"/>
      <point x="472" y="1409" type="curve" smooth="yes"/>
      <point x="384" y="1409"/>
      <point x="291" y="1344"/>
      <point x="291" y="1224" type="curve" smooth="yes"/>
      <point x="291" y="1105"/>
      <point x="386" y="1046"/>
    </contour>
  </outline>
</glyph>
<glyph name="Ccaron" format="1">
  <advance width="1511"/>
  <unicode hex="010C"/>
  <outline>
    <contour>
      <point x="905" y="-19" type="curve" smooth="yes"/>
      <point x="1069" y="-19"/>
      <point x="1232" y="23"/>
      <point x="1415" y="121" type="curve" smooth="yes"/>
      <point x="1442" y="135" type="line"/>
      <point x="1442" y="481" type="line"/>
      <point x="1360" y="416" type="line" smooth="yes"/>
      <point x="1233" y="316"/>
      <point x="1065" y="262"/>
      <point x="916" y="262" type="curve" smooth="yes"/>
      <point x="630" y="262"/>
      <point x="376" y="419"/>
      <point x="376" y="754" type="curve" smooth="yes"/>
      <point x="376" y="1064"/>
      <point x="629" y="1248"/>
      <point x="922" y="1248" type="curve" smooth="yes"/>
      <point x="1053" y="1248"/>
      <point x="1206" y="1204"/>
      <point x="1367" y="1119" type="curve" smooth="yes"/>
      <point x="1442" y="1079" type="line"/>
      <point x="1442" y="1416" type="line"/>
      <point x="1411" y="1429" type="line" smooth="yes"/>
      <point x="1252" y="1497"/>
      <point x="1076" y="1536"/>
      <point x="920" y="1536" type="curve" smooth="yes"/>
      <point x="458" y="1536"/>
      <point x="55" y="1239"/>
      <point x="55" y="759" type="curve" smooth="yes"/>
      <point x="55" y="329"/>
      <point x="404" y="-19"/>
    </contour>
    <contour>
      <point x="743" y="1565" type="curve" smooth="yes"/>
      <point x="752" y="1565"/>
      <point x="821" y="1605"/>
      <point x="821" y="1605" type="curve"/>
      <point x="1081" y="2001" type="line" smooth="yes"/>
      <point x="1083" y="2003"/>
      <point x="1098" y="2040"/>
      <point x="1098" y="2041" type="curve" smooth="yes"/>
      <point x="1098" y="2090"/>
      <point x="1064" y="2096"/>
      <point x="1041" y="2096" type="curve" smooth="yes"/>
      <point x="1040" y="2096"/>
      <point x="1027" y="2094"/>
      <point x="1026" y="2094" type="curve" smooth="yes"/>
      <point x="929" y="2031"/>
      <point x="838" y="1964"/>
      <point x="743" y="1898" type="curve"/>
      <point x="657" y="1958"/>
      <point x="569" y="2019"/>
      <point x="483" y="2079" type="curve"/>
      <point x="477" y="2085"/>
      <point x="446" y="2096"/>
      <point x="443" y="2096" type="curve" smooth="yes"/>
      <point x="396" y="2096"/>
      <point x="389" y="2069"/>
      <point x="389" y="2053" type="curve" smooth="yes"/>
      <point x="389" y="2046"/>
      <point x="390" y="2041"/>
      <point x="390" y="2041" type="curve"/>
      <point x="390" y="2023" type="line"/>
      <point x="662" y="1605" type="line" smooth="yes"/>
      <point x="682" y="1575"/>
      <point x="714" y="1565"/>
    </contour>
  </outline>
</glyph>
<glyph name="dcaron" format="1">
  <advance width="1065"/>
  <unicode hex="010F"/>
  <outline>
    <contour>
      <point x="639" y="-18" type="curve" smooth="yes"/>
      <point x="824" y="-18"/>
      <point x="969" y="46"/>
      <point x="977" y="49" type="curve" smooth="yes"/>
      <point x="1006" y="62" type="line"/>
      <point x="1006" y="1490" type="line"/>
      <point x="724" y="1490" type="line"/>
      <point x="724" y="984" type="line"/>
      <point x="665" y="1006"/>
      <point x="602" y="1017"/>
      <point x="540" y="1017" type="curve" smooth="yes"/>
      <point x="206" y="1017"/>
      <point x="28" y="762"/>
      <point x="28" y="514" type="curve" smooth="yes"/>
      <point x="28" y="252"/>
      <point x="225" y="-18"/>
    </contour>
    <contour>
      <point x="1168" y="916" type="line"/>
      <point x="1190" y="916" type="line" smooth="yes"/>
      <point x="1344" y="916"/>
      <point x="1479" y="1142"/>
      <point x="1479" y="1293" type="curve" smooth="yes"/>
      <point x="1479" y="1424"/>
      <point x="1378" y="1490"/>
      <point x="1285" y="1490" type="curve" smooth="yes"/>
      <point x="1193" y="1490"/>
      <point x="1102" y="1421"/>
      <point x="1102" y="1302" type="curve" smooth="yes"/>
      <point x="1102" y="1240"/>
      <point x="1135" y="1178"/>
      <point x="1200" y="1144" type="curve"/>
      <point x="1194" y="1100"/>
      <point x="1178" y="1070"/>
      <point x="1133" y="1029" type="curve" smooth="yes"/>
      <point x="1094" y="993" type="line"/>
    </contour>
    <contour>
      <point x="652" y="217" type="curve" smooth="yes"/>
      <point x="420" y="217"/>
      <point x="317" y="355"/>
      <point x="317" y="507" type="curve" smooth="yes"/>
      <point x="317" y="651"/>
      <point x="409" y="769"/>
      <point x="564" y="769" type="curve" smooth="yes"/>
      <point x="627" y="769"/>
      <point x="687" y="751"/>
      <point x="724" y="727" type="curve"/>
      <point x="724" y="222" type="line"/>
      <point x="703" y="218"/>
      <point x="678" y="217"/>
    </contour>
  </outline>
</glyph>
<glyph name="dcroat" format="1">
  <advance width="1064"/>
  <unicode hex="0111"/>
  <outline>
    <contour>
      <point x="640" y="-18" type="curve" smooth="yes"/>
      <point x="824" y="-18"/>
      <point x="971" y="45"/>
      <point x="978" y="48" type="curve" smooth="yes"/>
      <point x="1007" y="60" type="line"/>
      <point x="1007" y="1089" type="line"/>
      <point x="1115" y="1089" type="line"/>
      <point x="1115" y="1320" type="line"/>
      <point x="1007" y="1320" type="line"/>
      <point x="1007" y="1490" type="line"/>
      <point x="724" y="1490" type="line"/>
      <point x="724" y="1320" type="line"/>
      <point x="395" y="1320" type="line"/>
      <point x="395" y="1089" type="line"/>
      <point x="724" y="1089" type="line"/>
      <point x="724" y="984" type="line"/>
      <point x="665" y="1006"/>
      <point x="603" y="1017"/>
      <point x="541" y="1017" type="curve" smooth="yes"/>
      <point x="207" y="1017"/>
      <point x="29" y="762"/>
      <point x="29" y="514" type="curve" smooth="yes"/>
      <point x="29" y="252"/>
      <point x="226" y="-18"/>
    </contour>
    <contour>
      <point x="653" y="217" type="curve" smooth="yes"/>
      <point x="420" y="217"/>
      <point x="318" y="355"/>
      <point x="318" y="507" type="curve" smooth="yes"/>
      <point x="318" y="651"/>
      <point x="410" y="769"/>
      <point x="563" y="769" type="curve" smooth="yes"/>
      <point x="626" y="769"/>
      <point x="687" y="751"/>
      <point x="724" y="727" type="curve"/>
      <point x="724" y="222" type="line"/>
      <point x="702" y="218"/>
      <point x="678" y="217"/>
    </contour>
  </outline>
</glyph>
<glyph name="Eogonek" format="1">
  <advance width="1060"/>
  <unicode hex="0118"/>
  <outline>
    <contour>
      <point x="572" y="-412" type="curve" smooth="yes"/>
      <point x="590" y="-412"/>
      <point x="607" y="-409"/>
      <point x="621" y="-407" type="curve" smooth="yes"/>
      <point x="655" y="-403" type="line"/>
      <point x="710" y="-180" type="line"/>
      <point x="643" y="-180" type="line" smooth="yes"/>
      <point x="534" y="-180"/>
      <point x="507" y="-131"/>
      <point x="507" y="-107" type="curve" smooth="yes"/>
      <point x="507" y="-88"/>
      <point x="526" y="-51"/>
      <point x="590" y="-30" type="curve" smooth="yes"/>
      <point x="651" y="-9" type="line"/>
      <point x="646" y="0" type="line"/>
      <point x="1024" y="0" type="line"/>
      <point x="1024" y="279" type="line"/>
      <point x="370" y="279" type="line"/>
      <point x="370" y="631" type="line"/>
      <point x="997" y="631" type="line"/>
      <point x="997" y="907" type="line"/>
      <point x="370" y="907" type="line"/>
      <point x="370" y="1238" type="line"/>
      <point x="1011" y="1238" type="line"/>
      <point x="1011" y="1516" type="line"/>
      <point x="77" y="1516" type="line"/>
      <point x="77" y="0" type="line"/>
      <point x="324" y="0" type="line"/>
      <point x="299" y="-42"/>
      <point x="286" y="-92"/>
      <point x="286" y="-141" type="curve" smooth="yes"/>
      <point x="286" y="-281"/>
      <point x="403" y="-412"/>
    </contour>
  </outline>
</glyph>
<glyph name="eogonek" format="1">
  <advance width="1051"/>
  <unicode hex="0119"/>
  <outline>
    <contour>
      <point x="542" y="-432" type="curve" smooth="yes"/>
      <point x="557" y="-432"/>
      <point x="576" y="-432"/>
      <point x="598" y="-425" type="curve" smooth="yes"/>
      <point x="626" y="-416" type="line"/>
      <point x="679" y="-200" type="line"/>
      <point x="612" y="-200" type="line" smooth="yes"/>
      <point x="504" y="-200"/>
      <point x="477" y="-150"/>
      <point x="477" y="-128" type="curve" smooth="yes"/>
      <point x="477" y="-108"/>
      <point x="495" y="-72"/>
      <point x="560" y="-49" type="curve" smooth="yes"/>
      <point x="621" y="-28" type="line"/>
      <point x="617" y="-21" type="line"/>
      <point x="743" y="-21"/>
      <point x="858" y="15"/>
      <point x="956" y="79" type="curve" smooth="yes"/>
      <point x="979" y="94" type="line"/>
      <point x="979" y="375" type="line"/>
      <point x="899" y="321" type="line" smooth="yes"/>
      <point x="808" y="259"/>
      <point x="713" y="232"/>
      <point x="614" y="232" type="curve" smooth="yes"/>
      <point x="447" y="232"/>
      <point x="346" y="314"/>
      <point x="326" y="446" type="curve"/>
      <point x="997" y="446" type="line"/>
      <point x="997" y="518" type="line" smooth="yes"/>
      <point x="997" y="795"/>
      <point x="847" y="1015"/>
      <point x="532" y="1015" type="curve" smooth="yes"/>
      <point x="236" y="1015"/>
      <point x="29" y="782"/>
      <point x="29" y="516" type="curve" smooth="yes"/>
      <point x="29" y="297"/>
      <point x="144" y="120"/>
      <point x="342" y="36" type="curve"/>
      <point x="283" y="-14"/>
      <point x="255" y="-89"/>
      <point x="255" y="-162" type="curve" smooth="yes"/>
      <point x="255" y="-303"/>
      <point x="373" y="-432"/>
    </contour>
    <contour>
      <point x="344" y="669" type="line"/>
      <point x="377" y="727"/>
      <point x="440" y="764"/>
      <point x="538" y="764" type="curve" smooth="yes"/>
      <point x="634" y="764"/>
      <point x="705" y="727"/>
      <point x="726" y="669" type="curve"/>
    </contour>
  </outline>
</glyph>
